%TF.GenerationSoftware,KiCad,Pcbnew,(6.0.1)*%
%TF.CreationDate,2022-02-22T23:19:08-05:00*%
%TF.ProjectId,sipm-linear-s14160,7369706d-2d6c-4696-9e65-61722d733134,rev?*%
%TF.SameCoordinates,Original*%
%TF.FileFunction,Soldermask,Top*%
%TF.FilePolarity,Negative*%
%FSLAX46Y46*%
G04 Gerber Fmt 4.6, Leading zero omitted, Abs format (unit mm)*
G04 Created by KiCad (PCBNEW (6.0.1)) date 2022-02-22 23:19:08*
%MOMM*%
%LPD*%
G01*
G04 APERTURE LIST*
G04 Aperture macros list*
%AMRoundRect*
0 Rectangle with rounded corners*
0 $1 Rounding radius*
0 $2 $3 $4 $5 $6 $7 $8 $9 X,Y pos of 4 corners*
0 Add a 4 corners polygon primitive as box body*
4,1,4,$2,$3,$4,$5,$6,$7,$8,$9,$2,$3,0*
0 Add four circle primitives for the rounded corners*
1,1,$1+$1,$2,$3*
1,1,$1+$1,$4,$5*
1,1,$1+$1,$6,$7*
1,1,$1+$1,$8,$9*
0 Add four rect primitives between the rounded corners*
20,1,$1+$1,$2,$3,$4,$5,0*
20,1,$1+$1,$4,$5,$6,$7,0*
20,1,$1+$1,$6,$7,$8,$9,0*
20,1,$1+$1,$8,$9,$2,$3,0*%
G04 Aperture macros list end*
%ADD10RoundRect,0.147500X-0.147500X-0.172500X0.147500X-0.172500X0.147500X0.172500X-0.147500X0.172500X0*%
%ADD11RoundRect,0.147500X0.147500X0.172500X-0.147500X0.172500X-0.147500X-0.172500X0.147500X-0.172500X0*%
%ADD12C,2.240000*%
%ADD13C,2.740000*%
%ADD14R,1.473200X0.558800*%
%ADD15RoundRect,0.147500X0.172500X-0.147500X0.172500X0.147500X-0.172500X0.147500X-0.172500X-0.147500X0*%
%ADD16C,6.000000*%
%ADD17C,0.500000*%
%ADD18R,1.700000X1.700000*%
%ADD19O,1.700000X1.700000*%
G04 APERTURE END LIST*
D10*
%TO.C,R35*%
X186915000Y-99100000D03*
X187885000Y-99100000D03*
%TD*%
D11*
%TO.C,R56*%
X170485000Y-102090002D03*
X169515000Y-102090002D03*
%TD*%
%TO.C,R100*%
X170485000Y-108550000D03*
X169515000Y-108550000D03*
%TD*%
%TO.C,R2*%
X187885000Y-95400000D03*
X186915000Y-95400000D03*
%TD*%
D10*
%TO.C,R90*%
X179390000Y-109425000D03*
X180360000Y-109425000D03*
%TD*%
%TO.C,C34*%
X196877400Y-102630000D03*
X197847400Y-102630000D03*
%TD*%
D12*
%TO.C,J13*%
X160740000Y-74470000D03*
D13*
X163280000Y-71930000D03*
X158200000Y-77010000D03*
X158200000Y-71930000D03*
X163280000Y-77010000D03*
%TD*%
D14*
%TO.C,U4*%
X195480000Y-97200001D03*
X195480000Y-96250000D03*
X195480000Y-95299999D03*
X193244800Y-95299999D03*
X193244800Y-96250000D03*
X193244800Y-97200001D03*
%TD*%
D12*
%TO.C,J6*%
X220340000Y-97322000D03*
D13*
X217800000Y-99862000D03*
X217800000Y-94782000D03*
X222880000Y-94782000D03*
X222880000Y-99862000D03*
%TD*%
D11*
%TO.C,C36*%
X170485000Y-104000000D03*
X169515000Y-104000000D03*
%TD*%
D12*
%TO.C,J8*%
X220350000Y-108748000D03*
D13*
X217810000Y-111288000D03*
X222890000Y-111288000D03*
X217810000Y-106208000D03*
X222890000Y-106208000D03*
%TD*%
D11*
%TO.C,R77*%
X187885000Y-105250000D03*
X186915000Y-105250000D03*
%TD*%
D10*
%TO.C,R87*%
X196877400Y-106790000D03*
X197847400Y-106790000D03*
%TD*%
D11*
%TO.C,C32*%
X170485000Y-102990002D03*
X169515000Y-102990002D03*
%TD*%
%TO.C,R112*%
X173950000Y-112100000D03*
X172980000Y-112100000D03*
%TD*%
%TO.C,R89*%
X187885000Y-107950000D03*
X186915000Y-107950000D03*
%TD*%
D12*
%TO.C,J9*%
X147810000Y-108778000D03*
D13*
X145270000Y-106238000D03*
X145270000Y-111318000D03*
X150350000Y-106238000D03*
X150350000Y-111318000D03*
%TD*%
D11*
%TO.C,C7*%
X170485000Y-94190002D03*
X169515000Y-94190002D03*
%TD*%
D10*
%TO.C,R111*%
X193546001Y-113900000D03*
X194516001Y-113900000D03*
%TD*%
D11*
%TO.C,R5*%
X180360000Y-95300000D03*
X179390000Y-95300000D03*
%TD*%
D14*
%TO.C,U10*%
X195480000Y-106780001D03*
X195480000Y-105830000D03*
X195480000Y-104879999D03*
X193244800Y-104879999D03*
X193244800Y-105830000D03*
X193244800Y-106780001D03*
%TD*%
D11*
%TO.C,C20*%
X170485000Y-97500000D03*
X169515000Y-97500000D03*
%TD*%
D14*
%TO.C,U3*%
X171837200Y-92240001D03*
X171837200Y-93190002D03*
X171837200Y-94140003D03*
X174072400Y-94140003D03*
X174072400Y-93190002D03*
X174072400Y-92240001D03*
%TD*%
D11*
%TO.C,C47*%
X172585000Y-90840000D03*
X171615000Y-90840000D03*
%TD*%
D10*
%TO.C,C15*%
X175340000Y-95500000D03*
X176310000Y-95500000D03*
%TD*%
D11*
%TO.C,R80*%
X180360000Y-106240000D03*
X179390000Y-106240000D03*
%TD*%
D15*
%TO.C,C46*%
X192600000Y-87670000D03*
X192600000Y-86700000D03*
%TD*%
D11*
%TO.C,C23*%
X191842400Y-100390000D03*
X190872400Y-100390000D03*
%TD*%
D10*
%TO.C,C2*%
X175340000Y-92230002D03*
X176310000Y-92230002D03*
%TD*%
%TO.C,R91*%
X186915000Y-106925000D03*
X187885000Y-106925000D03*
%TD*%
D14*
%TO.C,U11*%
X171837200Y-105309999D03*
X171837200Y-106260000D03*
X171837200Y-107210001D03*
X174072400Y-107210001D03*
X174072400Y-106260000D03*
X174072400Y-105309999D03*
%TD*%
D11*
%TO.C,R13*%
X170485000Y-92200000D03*
X169515000Y-92200000D03*
%TD*%
D10*
%TO.C,R12*%
X196877400Y-94060000D03*
X197847400Y-94060000D03*
%TD*%
%TO.C,C6*%
X196877400Y-92060000D03*
X197847400Y-92060000D03*
%TD*%
D11*
%TO.C,C78*%
X173950000Y-114040000D03*
X172980000Y-114040000D03*
%TD*%
D14*
%TO.C,U14*%
X195480000Y-110030001D03*
X195480000Y-109080000D03*
X195480000Y-108129999D03*
X193244800Y-108129999D03*
X193244800Y-109080000D03*
X193244800Y-110030001D03*
%TD*%
D10*
%TO.C,R4*%
X186915000Y-94100000D03*
X187885000Y-94100000D03*
%TD*%
%TO.C,R102*%
X182115000Y-112200000D03*
X183085000Y-112200000D03*
%TD*%
D14*
%TO.C,U5*%
X171837200Y-95523334D03*
X171837200Y-96473335D03*
X171837200Y-97423336D03*
X174072400Y-97423336D03*
X174072400Y-96473335D03*
X174072400Y-95523334D03*
%TD*%
D10*
%TO.C,C18*%
X196877400Y-96310000D03*
X197847400Y-96310000D03*
%TD*%
D11*
%TO.C,R88*%
X170485000Y-105300000D03*
X169515000Y-105300000D03*
%TD*%
%TO.C,C74*%
X173950000Y-113065000D03*
X172980000Y-113065000D03*
%TD*%
D10*
%TO.C,R72*%
X193872053Y-90557053D03*
X194842053Y-90557053D03*
%TD*%
D12*
%TO.C,J2*%
X220340000Y-74470000D03*
D13*
X222880000Y-77010000D03*
X222880000Y-71930000D03*
X217800000Y-71930000D03*
X217800000Y-77010000D03*
%TD*%
D14*
%TO.C,U16*%
X192180001Y-113880001D03*
X192180001Y-112930000D03*
X192180001Y-111979999D03*
X189944801Y-111979999D03*
X189944801Y-112930000D03*
X189944801Y-113880001D03*
%TD*%
D10*
%TO.C,R34*%
X179390000Y-99510000D03*
X180360000Y-99510000D03*
%TD*%
D11*
%TO.C,R44*%
X170485000Y-98820002D03*
X169515000Y-98820002D03*
%TD*%
D10*
%TO.C,C5*%
X196877400Y-93060000D03*
X197847400Y-93060000D03*
%TD*%
%TO.C,R103*%
X186296001Y-111936000D03*
X187266001Y-111936000D03*
%TD*%
D15*
%TO.C,R101*%
X186331001Y-113861000D03*
X186331001Y-112891000D03*
%TD*%
D11*
%TO.C,R33*%
X187885000Y-100150000D03*
X186915000Y-100150000D03*
%TD*%
D14*
%TO.C,U1*%
X195480000Y-94010001D03*
X195480000Y-93060000D03*
X195480000Y-92109999D03*
X193244800Y-92109999D03*
X193244800Y-93060000D03*
X193244800Y-94010001D03*
%TD*%
D10*
%TO.C,C77*%
X193546001Y-111926000D03*
X194516001Y-111926000D03*
%TD*%
D11*
%TO.C,R32*%
X170485000Y-95590002D03*
X169515000Y-95590002D03*
%TD*%
%TO.C,C44*%
X189052053Y-90562053D03*
X188082053Y-90562053D03*
%TD*%
%TO.C,C58*%
X170485000Y-106260000D03*
X169515000Y-106260000D03*
%TD*%
D12*
%TO.C,J5*%
X147810000Y-85906000D03*
D13*
X150350000Y-88446000D03*
X150350000Y-83366000D03*
X145270000Y-83366000D03*
X145270000Y-88446000D03*
%TD*%
D11*
%TO.C,C3*%
X170485000Y-93186055D03*
X169515000Y-93186055D03*
%TD*%
D10*
%TO.C,C35*%
X196877400Y-101680000D03*
X197847400Y-101680000D03*
%TD*%
D16*
%TO.C,H3*%
X168590000Y-86410000D03*
%TD*%
D10*
%TO.C,R63*%
X179390000Y-91600000D03*
X180360000Y-91600000D03*
%TD*%
%TO.C,C25*%
X175340000Y-98800000D03*
X176310000Y-98800000D03*
%TD*%
%TO.C,C45*%
X193872053Y-89522054D03*
X194842053Y-89522054D03*
%TD*%
D11*
%TO.C,R36*%
X180360000Y-100610000D03*
X179390000Y-100610000D03*
%TD*%
D10*
%TO.C,C69*%
X196877400Y-108155000D03*
X197847400Y-108155000D03*
%TD*%
D11*
%TO.C,C70*%
X170485000Y-110450000D03*
X169515000Y-110450000D03*
%TD*%
D12*
%TO.C,J3*%
X147810000Y-74470000D03*
D13*
X150350000Y-71930000D03*
X150350000Y-77010000D03*
X145270000Y-77010000D03*
X145270000Y-71930000D03*
%TD*%
D14*
%TO.C,U12*%
X192574653Y-90522054D03*
X192574653Y-89572053D03*
X192574653Y-88622052D03*
X190339453Y-88622052D03*
X190339453Y-89572053D03*
X190339453Y-90522054D03*
%TD*%
D10*
%TO.C,C60*%
X196877400Y-105820000D03*
X197847400Y-105820000D03*
%TD*%
D11*
%TO.C,R104*%
X183085000Y-113200000D03*
X182115000Y-113200000D03*
%TD*%
%TO.C,C16*%
X170485000Y-96500000D03*
X169515000Y-96500000D03*
%TD*%
%TO.C,R92*%
X180360000Y-110375000D03*
X179390000Y-110375000D03*
%TD*%
%TO.C,C65*%
X191847400Y-110030000D03*
X190877400Y-110030000D03*
%TD*%
D14*
%TO.C,U17*%
X175297400Y-112099999D03*
X175297400Y-113050000D03*
X175297400Y-114000001D03*
X177532600Y-114000001D03*
X177532600Y-113050000D03*
X177532600Y-112099999D03*
%TD*%
D10*
%TO.C,R47*%
X186915000Y-101600000D03*
X187885000Y-101600000D03*
%TD*%
D14*
%TO.C,U13*%
X174182400Y-88939999D03*
X174182400Y-89890000D03*
X174182400Y-90840001D03*
X176417600Y-90840001D03*
X176417600Y-89890000D03*
X176417600Y-88939999D03*
%TD*%
D11*
%TO.C,C17*%
X191892400Y-97230000D03*
X190922400Y-97230000D03*
%TD*%
D12*
%TO.C,J10*%
X220370000Y-120174000D03*
D13*
X217830000Y-117634000D03*
X222910000Y-117634000D03*
X217830000Y-122714000D03*
X222910000Y-122714000D03*
%TD*%
D10*
%TO.C,C73*%
X178787000Y-112090000D03*
X179757000Y-112090000D03*
%TD*%
%TO.C,R78*%
X179390000Y-105210000D03*
X180360000Y-105210000D03*
%TD*%
%TO.C,C19*%
X196877400Y-95310000D03*
X197847400Y-95310000D03*
%TD*%
D12*
%TO.C,J4*%
X220340000Y-85896000D03*
D13*
X217800000Y-83356000D03*
X222880000Y-83356000D03*
X222880000Y-88436000D03*
X217800000Y-88436000D03*
%TD*%
D11*
%TO.C,R62*%
X187885000Y-92500000D03*
X186915000Y-92500000D03*
%TD*%
%TO.C,C26*%
X170485000Y-99800000D03*
X169515000Y-99800000D03*
%TD*%
D14*
%TO.C,U8*%
X195480000Y-103580001D03*
X195480000Y-102630000D03*
X195480000Y-101679999D03*
X193244800Y-101679999D03*
X193244800Y-102630000D03*
X193244800Y-103580001D03*
%TD*%
D10*
%TO.C,C66*%
X196877400Y-109080000D03*
X197847400Y-109080000D03*
%TD*%
D17*
%TO.C,U2*%
X182390000Y-92410000D03*
X184790000Y-92410000D03*
X182390000Y-93610000D03*
X184790000Y-93610000D03*
X182390000Y-94810000D03*
X184790000Y-94810000D03*
X182390000Y-96010000D03*
X184790000Y-96010000D03*
X182390000Y-97210000D03*
X184790000Y-97210000D03*
X182390000Y-98410000D03*
X184790000Y-98410000D03*
X182390000Y-99610000D03*
X184790000Y-99610000D03*
X182390000Y-100810000D03*
X184790000Y-100810000D03*
X182390000Y-102010000D03*
X184790000Y-102010000D03*
X182390000Y-103210000D03*
X184790000Y-103210000D03*
X182390000Y-104410000D03*
X184790000Y-104410000D03*
X182390000Y-105610000D03*
X184790000Y-105610000D03*
X182390000Y-106810000D03*
X184790000Y-106810000D03*
X182390000Y-108010000D03*
X184790000Y-108010000D03*
X182390000Y-109210000D03*
X184790000Y-109210000D03*
X182390000Y-110410000D03*
X184790000Y-110410000D03*
%TD*%
D10*
%TO.C,R23*%
X186915000Y-96900000D03*
X187885000Y-96900000D03*
%TD*%
D16*
%TO.C,H4*%
X198590000Y-116410000D03*
%TD*%
D12*
%TO.C,J16*%
X206100000Y-131600000D03*
D13*
X203560000Y-129060000D03*
X208640000Y-129060000D03*
X208640000Y-134140000D03*
X203560000Y-134140000D03*
%TD*%
D10*
%TO.C,C57*%
X175340000Y-105310000D03*
X176310000Y-105310000D03*
%TD*%
D14*
%TO.C,U9*%
X171837200Y-102090000D03*
X171837200Y-103040001D03*
X171837200Y-103990002D03*
X174072400Y-103990002D03*
X174072400Y-103040001D03*
X174072400Y-102090000D03*
%TD*%
D10*
%TO.C,C27*%
X196877400Y-98490000D03*
X197847400Y-98490000D03*
%TD*%
D12*
%TO.C,J11*%
X147810000Y-120214000D03*
D13*
X145270000Y-117674000D03*
X150350000Y-117674000D03*
X145270000Y-122754000D03*
X150350000Y-122754000D03*
%TD*%
D12*
%TO.C,J14*%
X220370000Y-131600000D03*
D13*
X222910000Y-129060000D03*
X222910000Y-134140000D03*
X217830000Y-129060000D03*
X217830000Y-134140000D03*
%TD*%
D16*
%TO.C,H2*%
X168590000Y-116410000D03*
%TD*%
D10*
%TO.C,C24*%
X196877400Y-99430000D03*
X197847400Y-99430000D03*
%TD*%
%TO.C,R108*%
X172980000Y-115090000D03*
X173950000Y-115090000D03*
%TD*%
D12*
%TO.C,J17*%
X159550000Y-131650000D03*
D13*
X157010000Y-134190000D03*
X162090000Y-134190000D03*
X157010000Y-129110000D03*
X162090000Y-129110000D03*
%TD*%
D10*
%TO.C,C61*%
X196877400Y-104880000D03*
X197847400Y-104880000D03*
%TD*%
%TO.C,C31*%
X175340000Y-102090002D03*
X176310000Y-102090002D03*
%TD*%
D15*
%TO.C,R64*%
X186700000Y-91285000D03*
X186700000Y-90315000D03*
%TD*%
D11*
%TO.C,R48*%
X180360000Y-103010000D03*
X179390000Y-103010000D03*
%TD*%
D10*
%TO.C,C76*%
X193546001Y-112900000D03*
X194516001Y-112900000D03*
%TD*%
%TO.C,C42*%
X177915000Y-88940000D03*
X178885000Y-88940000D03*
%TD*%
D12*
%TO.C,J12*%
X206100000Y-74420000D03*
D13*
X203560000Y-76960000D03*
X203560000Y-71880000D03*
X208640000Y-76960000D03*
X208640000Y-71880000D03*
%TD*%
D16*
%TO.C,H1*%
X198590000Y-86410000D03*
%TD*%
D11*
%TO.C,C28*%
X170485000Y-100740002D03*
X169515000Y-100740002D03*
%TD*%
D10*
%TO.C,R55*%
X196877400Y-103580000D03*
X197847400Y-103580000D03*
%TD*%
%TO.C,R43*%
X196877400Y-100390000D03*
X197847400Y-100390000D03*
%TD*%
D12*
%TO.C,J15*%
X147810000Y-131650000D03*
D13*
X150350000Y-134190000D03*
X145270000Y-129110000D03*
X145270000Y-134190000D03*
X150350000Y-129110000D03*
%TD*%
D11*
%TO.C,C43*%
X172585000Y-89840000D03*
X171615000Y-89840000D03*
%TD*%
D15*
%TO.C,R73*%
X174100000Y-88185000D03*
X174100000Y-87215000D03*
%TD*%
D11*
%TO.C,C4*%
X191872400Y-94030000D03*
X190902400Y-94030000D03*
%TD*%
%TO.C,R45*%
X187885000Y-102700000D03*
X186915000Y-102700000D03*
%TD*%
D10*
%TO.C,R79*%
X186915000Y-104300000D03*
X187885000Y-104300000D03*
%TD*%
D11*
%TO.C,C68*%
X170485000Y-109500000D03*
X169515000Y-109500000D03*
%TD*%
D10*
%TO.C,R22*%
X179390000Y-97160000D03*
X180360000Y-97160000D03*
%TD*%
D14*
%TO.C,U7*%
X171837200Y-98806667D03*
X171837200Y-99756668D03*
X171837200Y-100706669D03*
X174072400Y-100706669D03*
X174072400Y-99756668D03*
X174072400Y-98806667D03*
%TD*%
%TO.C,U15*%
X171837200Y-108549999D03*
X171837200Y-109500000D03*
X171837200Y-110450001D03*
X174072400Y-110450001D03*
X174072400Y-109500000D03*
X174072400Y-108549999D03*
%TD*%
D11*
%TO.C,R65*%
X180360000Y-92700000D03*
X179390000Y-92700000D03*
%TD*%
D10*
%TO.C,R3*%
X179390000Y-94300000D03*
X180360000Y-94300000D03*
%TD*%
D12*
%TO.C,J7*%
X147810000Y-97342000D03*
D13*
X150350000Y-99882000D03*
X150350000Y-94802000D03*
X145270000Y-94802000D03*
X145270000Y-99882000D03*
%TD*%
D11*
%TO.C,C62*%
X170485000Y-107210000D03*
X169515000Y-107210000D03*
%TD*%
D14*
%TO.C,U6*%
X195480000Y-100390001D03*
X195480000Y-99440000D03*
X195480000Y-98489999D03*
X193244800Y-98489999D03*
X193244800Y-99440000D03*
X193244800Y-100390001D03*
%TD*%
D11*
%TO.C,C75*%
X188516001Y-113876000D03*
X187546001Y-113876000D03*
%TD*%
D10*
%TO.C,C67*%
X175340000Y-108550000D03*
X176310000Y-108550000D03*
%TD*%
D11*
%TO.C,R21*%
X187885000Y-98000000D03*
X186915000Y-98000000D03*
%TD*%
%TO.C,R24*%
X180360000Y-98260000D03*
X179390000Y-98260000D03*
%TD*%
D10*
%TO.C,R46*%
X179390000Y-102010000D03*
X180360000Y-102010000D03*
%TD*%
D11*
%TO.C,C59*%
X191892400Y-106780000D03*
X190922400Y-106780000D03*
%TD*%
D10*
%TO.C,R31*%
X196877400Y-97310000D03*
X197847400Y-97310000D03*
%TD*%
%TO.C,R99*%
X196877400Y-110030000D03*
X197847400Y-110030000D03*
%TD*%
D11*
%TO.C,C33*%
X191872400Y-103630000D03*
X190902400Y-103630000D03*
%TD*%
D18*
%TO.C,J18*%
X187200000Y-134100000D03*
D19*
X187200000Y-131560000D03*
X184660000Y-134100000D03*
X184660000Y-131560000D03*
X182120000Y-134100000D03*
X182120000Y-131560000D03*
%TD*%
D18*
%TO.C,J1*%
X181475000Y-74125000D03*
D19*
X181475000Y-76665000D03*
X184015000Y-74125000D03*
X184015000Y-76665000D03*
X186555000Y-74125000D03*
X186555000Y-76665000D03*
%TD*%
M02*
