%TF.GenerationSoftware,KiCad,Pcbnew,(6.0.1)*%
%TF.CreationDate,2022-02-22T23:19:08-05:00*%
%TF.ProjectId,sipm-linear-s14160,7369706d-2d6c-4696-9e65-61722d733134,rev?*%
%TF.SameCoordinates,Original*%
%TF.FileFunction,Copper,L3,Inr*%
%TF.FilePolarity,Positive*%
%FSLAX46Y46*%
G04 Gerber Fmt 4.6, Leading zero omitted, Abs format (unit mm)*
G04 Created by KiCad (PCBNEW (6.0.1)) date 2022-02-22 23:19:08*
%MOMM*%
%LPD*%
G01*
G04 APERTURE LIST*
%TA.AperFunction,ComponentPad*%
%ADD10C,2.240000*%
%TD*%
%TA.AperFunction,ComponentPad*%
%ADD11C,2.740000*%
%TD*%
%TA.AperFunction,ComponentPad*%
%ADD12R,1.700000X1.700000*%
%TD*%
%TA.AperFunction,ComponentPad*%
%ADD13O,1.700000X1.700000*%
%TD*%
%TA.AperFunction,ViaPad*%
%ADD14C,0.450000*%
%TD*%
%TA.AperFunction,ViaPad*%
%ADD15C,0.600000*%
%TD*%
%TA.AperFunction,Conductor*%
%ADD16C,0.500000*%
%TD*%
%TA.AperFunction,Conductor*%
%ADD17C,0.200000*%
%TD*%
%TA.AperFunction,Conductor*%
%ADD18C,0.250000*%
%TD*%
G04 APERTURE END LIST*
D10*
%TO.N,Net-(J13-Pad1)*%
%TO.C,J13*%
X160740000Y-74470000D03*
D11*
%TO.N,GND*%
X163280000Y-71930000D03*
X158200000Y-77010000D03*
X158200000Y-71930000D03*
X163280000Y-77010000D03*
%TD*%
D10*
%TO.N,Net-(J6-Pad1)*%
%TO.C,J6*%
X220340000Y-97322000D03*
D11*
%TO.N,GND*%
X217800000Y-99862000D03*
X217800000Y-94782000D03*
X222880000Y-94782000D03*
X222880000Y-99862000D03*
%TD*%
D10*
%TO.N,Net-(J8-Pad1)*%
%TO.C,J8*%
X220350000Y-108748000D03*
D11*
%TO.N,GND*%
X217810000Y-111288000D03*
X222890000Y-111288000D03*
X217810000Y-106208000D03*
X222890000Y-106208000D03*
%TD*%
D10*
%TO.N,Net-(J9-Pad1)*%
%TO.C,J9*%
X147810000Y-108778000D03*
D11*
%TO.N,GND*%
X145270000Y-106238000D03*
X145270000Y-111318000D03*
X150350000Y-106238000D03*
X150350000Y-111318000D03*
%TD*%
D10*
%TO.N,Net-(J2-Pad1)*%
%TO.C,J2*%
X220340000Y-74470000D03*
D11*
%TO.N,GND*%
X222880000Y-77010000D03*
X222880000Y-71930000D03*
X217800000Y-71930000D03*
X217800000Y-77010000D03*
%TD*%
D10*
%TO.N,Net-(J5-Pad1)*%
%TO.C,J5*%
X147810000Y-85906000D03*
D11*
%TO.N,GND*%
X150350000Y-88446000D03*
X150350000Y-83366000D03*
X145270000Y-83366000D03*
X145270000Y-88446000D03*
%TD*%
D10*
%TO.N,Net-(J3-Pad1)*%
%TO.C,J3*%
X147810000Y-74470000D03*
D11*
%TO.N,GND*%
X150350000Y-71930000D03*
X150350000Y-77010000D03*
X145270000Y-77010000D03*
X145270000Y-71930000D03*
%TD*%
D10*
%TO.N,Net-(J10-Pad1)*%
%TO.C,J10*%
X220370000Y-120174000D03*
D11*
%TO.N,GND*%
X217830000Y-117634000D03*
X222910000Y-117634000D03*
X217830000Y-122714000D03*
X222910000Y-122714000D03*
%TD*%
D10*
%TO.N,Net-(J4-Pad1)*%
%TO.C,J4*%
X220340000Y-85896000D03*
D11*
%TO.N,GND*%
X217800000Y-83356000D03*
X222880000Y-83356000D03*
X222880000Y-88436000D03*
X217800000Y-88436000D03*
%TD*%
D10*
%TO.N,Net-(J16-Pad1)*%
%TO.C,J16*%
X206100000Y-131600000D03*
D11*
%TO.N,GND*%
X203560000Y-129060000D03*
X208640000Y-129060000D03*
X208640000Y-134140000D03*
X203560000Y-134140000D03*
%TD*%
D10*
%TO.N,Net-(J11-Pad1)*%
%TO.C,J11*%
X147810000Y-120214000D03*
D11*
%TO.N,GND*%
X145270000Y-117674000D03*
X150350000Y-117674000D03*
X145270000Y-122754000D03*
X150350000Y-122754000D03*
%TD*%
D10*
%TO.N,Net-(J14-Pad1)*%
%TO.C,J14*%
X220370000Y-131600000D03*
D11*
%TO.N,GND*%
X222910000Y-129060000D03*
X222910000Y-134140000D03*
X217830000Y-129060000D03*
X217830000Y-134140000D03*
%TD*%
D10*
%TO.N,Net-(J17-Pad1)*%
%TO.C,J17*%
X159550000Y-131650000D03*
D11*
%TO.N,GND*%
X157010000Y-134190000D03*
X162090000Y-134190000D03*
X157010000Y-129110000D03*
X162090000Y-129110000D03*
%TD*%
D10*
%TO.N,Net-(J12-Pad1)*%
%TO.C,J12*%
X206100000Y-74420000D03*
D11*
%TO.N,GND*%
X203560000Y-76960000D03*
X203560000Y-71880000D03*
X208640000Y-76960000D03*
X208640000Y-71880000D03*
%TD*%
D10*
%TO.N,Net-(J15-Pad1)*%
%TO.C,J15*%
X147810000Y-131650000D03*
D11*
%TO.N,GND*%
X150350000Y-134190000D03*
X145270000Y-129110000D03*
X145270000Y-134190000D03*
X150350000Y-129110000D03*
%TD*%
D10*
%TO.N,Net-(J7-Pad1)*%
%TO.C,J7*%
X147810000Y-97342000D03*
D11*
%TO.N,GND*%
X150350000Y-99882000D03*
X150350000Y-94802000D03*
X145270000Y-94802000D03*
X145270000Y-99882000D03*
%TD*%
D12*
%TO.N,unconnected-(J18-Pad1)*%
%TO.C,J18*%
X187200000Y-134100000D03*
D13*
%TO.N,/VSSA2*%
X187200000Y-131560000D03*
%TO.N,/VDDA2*%
X184660000Y-134100000D03*
%TO.N,/LINE2*%
X184660000Y-131560000D03*
%TO.N,/VBias2*%
X182120000Y-134100000D03*
%TO.N,GND*%
X182120000Y-131560000D03*
%TD*%
D12*
%TO.N,unconnected-(J1-Pad1)*%
%TO.C,J1*%
X181475000Y-74125000D03*
D13*
%TO.N,VSSA*%
X181475000Y-76665000D03*
%TO.N,VDDA*%
X184015000Y-74125000D03*
%TO.N,LINE*%
X184015000Y-76665000D03*
%TO.N,/VBias*%
X186555000Y-74125000D03*
%TO.N,GND*%
X186555000Y-76665000D03*
%TD*%
D14*
%TO.N,GND*%
X190937400Y-97255000D03*
X176300000Y-102000000D03*
X192600000Y-86700000D03*
X178400000Y-93400000D03*
X197800000Y-92030000D03*
X172990000Y-114040000D03*
X185530000Y-105004000D03*
X178450000Y-108350000D03*
X190860000Y-110080000D03*
X169500000Y-100700000D03*
X169500000Y-97600000D03*
X190897400Y-103630000D03*
X177700000Y-105850000D03*
X194500000Y-112900000D03*
X169500000Y-109500000D03*
X186331001Y-116176000D03*
X197837400Y-102680000D03*
X181600000Y-111250000D03*
X185784000Y-89510000D03*
X189420000Y-100880000D03*
X185530000Y-95352000D03*
X180300000Y-89500000D03*
X169500000Y-107200000D03*
X197887400Y-101755000D03*
X169400000Y-106300000D03*
X187850000Y-109730000D03*
X189940000Y-98230000D03*
X172940000Y-113090000D03*
X178885000Y-88940000D03*
X178400000Y-96100000D03*
X197787400Y-95330000D03*
X190050000Y-102420000D03*
X185530000Y-101448000D03*
X169500000Y-104000000D03*
X176300000Y-92200000D03*
X189700000Y-92300000D03*
X187531001Y-113876000D03*
X169400000Y-103000000D03*
X171615000Y-90785000D03*
X179740000Y-112090000D03*
X188900000Y-95400000D03*
X176400000Y-95500000D03*
X197887400Y-105780000D03*
X197862400Y-98530000D03*
X176300000Y-108500000D03*
X188157053Y-90557053D03*
X197862400Y-109080000D03*
X176400000Y-105300000D03*
X171600000Y-89800000D03*
X197837400Y-99430000D03*
X190887400Y-94030000D03*
X189750000Y-105790000D03*
X177700000Y-98950000D03*
X190940000Y-106770000D03*
X197887400Y-96330000D03*
X169500000Y-93200000D03*
X176400000Y-98800000D03*
X177950000Y-102750000D03*
X169500000Y-94200000D03*
X169500000Y-110450000D03*
X194500000Y-111900000D03*
X197887400Y-93100000D03*
X169400000Y-99800000D03*
X190890000Y-100400000D03*
X197812400Y-108180000D03*
X197837400Y-104830000D03*
X169400000Y-96500000D03*
X194957053Y-89557053D03*
X172990000Y-115090000D03*
%TO.N,Net-(C7-Pad1)*%
X170500000Y-94165002D03*
%TO.N,VDDA*%
X191887400Y-94030000D03*
X175400000Y-98800000D03*
X191892400Y-97230000D03*
X175250000Y-92250000D03*
X175400000Y-95500000D03*
X190600000Y-75050000D03*
X190600000Y-77800000D03*
X191842400Y-100390000D03*
X189800000Y-90557053D03*
X176100000Y-88300000D03*
%TO.N,VSSA*%
X196887400Y-96330000D03*
X196887400Y-93030000D03*
X196887400Y-99405000D03*
X170400000Y-99800000D03*
X193872053Y-89522054D03*
D15*
X173700000Y-77300000D03*
D14*
X172350000Y-89840000D03*
D15*
X194900000Y-85400000D03*
D14*
X170400000Y-96500000D03*
X170500000Y-93200000D03*
%TO.N,Net-(L1-Pad1)*%
X187870000Y-95400000D03*
%TO.N,Net-(C6-Pad1)*%
X196802400Y-92060000D03*
%TO.N,Net-(L2-Pad1)*%
X179400000Y-94300000D03*
%TO.N,/VBias*%
X182600000Y-86150000D03*
%TO.N,LINE*%
X199900000Y-98400000D03*
X167300000Y-100700000D03*
X167300000Y-97600000D03*
X200000000Y-92000000D03*
X163700000Y-86100000D03*
X167300000Y-94200000D03*
X184000000Y-80400000D03*
X192600000Y-82000000D03*
X199500000Y-82000000D03*
X167300000Y-91000000D03*
X199900000Y-95300000D03*
%TO.N,Net-(C46-Pad1)*%
X192600000Y-87700000D03*
%TO.N,Net-(C47-Pad1)*%
X172572500Y-90927500D03*
%TO.N,Net-(L11-Pad1)*%
X187920000Y-92540000D03*
%TO.N,Net-(L12-Pad1)*%
X179400000Y-91600000D03*
%TO.N,Net-(C1-Pad1)*%
X183000000Y-92400000D03*
%TO.N,Net-(C19-Pad1)*%
X196877400Y-95310000D03*
%TO.N,Net-(C20-Pad1)*%
X170500000Y-97600000D03*
%TO.N,Net-(L3-Pad1)*%
X187900000Y-98000000D03*
%TO.N,Net-(L4-Pad1)*%
X179400000Y-97200000D03*
%TO.N,Net-(C27-Pad1)*%
X196877400Y-98490000D03*
%TO.N,Net-(C28-Pad1)*%
X170485000Y-100740002D03*
%TO.N,Net-(L5-Pad1)*%
X188030000Y-100170000D03*
%TO.N,Net-(L6-Pad1)*%
X179350000Y-99500000D03*
%TO.N,Net-(C14-Pad1)*%
X183100000Y-102000000D03*
%TO.N,Net-(C35-Pad1)*%
X196847400Y-101720000D03*
%TO.N,Net-(C36-Pad1)*%
X170500000Y-104000000D03*
%TO.N,Net-(L7-Pad1)*%
X187940000Y-102670000D03*
%TO.N,Net-(L8-Pad1)*%
X179400000Y-102000000D03*
%TO.N,Net-(C61-Pad1)*%
X196877400Y-104880000D03*
%TO.N,Net-(C62-Pad1)*%
X170485000Y-107210000D03*
%TO.N,Net-(L9-Pad1)*%
X187880000Y-105250000D03*
%TO.N,Net-(L10-Pad1)*%
X179400000Y-105200000D03*
%TO.N,Net-(C69-Pad1)*%
X196852399Y-108129999D03*
%TO.N,Net-(C70-Pad1)*%
X170485000Y-110450000D03*
%TO.N,Net-(L13-Pad1)*%
X187890000Y-107950000D03*
%TO.N,Net-(L14-Pad1)*%
X179400000Y-109450000D03*
%TO.N,Net-(C77-Pad1)*%
X193546001Y-111926000D03*
%TO.N,Net-(C78-Pad1)*%
X173950000Y-115090000D03*
%TO.N,Net-(L15-Pad1)*%
X186331001Y-113876000D03*
%TO.N,Net-(L16-Pad1)*%
X182100000Y-112200000D03*
%TO.N,/VBias2*%
X183500000Y-120800000D03*
X183250000Y-109150000D03*
%TO.N,/VSSA2*%
X196912400Y-109080000D03*
D15*
X190900000Y-131600000D03*
D14*
X170400000Y-103000000D03*
X170400000Y-109500000D03*
X196837400Y-105830000D03*
X193546001Y-112900000D03*
X173957500Y-113057500D03*
D15*
X194100000Y-131600000D03*
D14*
X196912400Y-102655000D03*
X170400000Y-106300000D03*
%TO.N,/VDDA2*%
X191847400Y-110030000D03*
X174100000Y-127800000D03*
X175400000Y-105300000D03*
X176900000Y-111950000D03*
X191892400Y-106780000D03*
X190431001Y-113876000D03*
X191914900Y-103587500D03*
X174200000Y-118400000D03*
X175300000Y-108500000D03*
X175400000Y-102100000D03*
%TO.N,/LINE2*%
X199900000Y-104800000D03*
X167300000Y-104000000D03*
X198300000Y-125200000D03*
X183400000Y-129000000D03*
X167300000Y-107200000D03*
X200200000Y-111800000D03*
X167300000Y-110400000D03*
X199892400Y-101700000D03*
X199805000Y-108150000D03*
X169300000Y-126000000D03*
%TO.N,Net-(R10-Pad1)*%
X193787400Y-92330000D03*
%TO.N,Net-(R11-Pad1)*%
X173700000Y-94000000D03*
%TO.N,Net-(R10-Pad2)*%
X194887400Y-93763902D03*
%TO.N,Net-(R11-Pad2)*%
X172000000Y-92300000D03*
%TO.N,Net-(R23-Pad2)*%
X193700000Y-95400000D03*
%TO.N,Net-(R24-Pad2)*%
X173400000Y-97177237D03*
%TO.N,Net-(R29-Pad2)*%
X194987400Y-97130000D03*
%TO.N,Net-(R30-Pad2)*%
X172200000Y-95600000D03*
%TO.N,Net-(R35-Pad2)*%
X194062367Y-98743891D03*
%TO.N,Net-(R36-Pad2)*%
X173600000Y-100460570D03*
%TO.N,Net-(R41-Pad2)*%
X194937400Y-100280000D03*
%TO.N,Net-(R42-Pad2)*%
X172400000Y-99052766D03*
%TO.N,Net-(R47-Pad2)*%
X193727400Y-101800000D03*
%TO.N,Net-(R48-Pad2)*%
X173500000Y-103800000D03*
%TO.N,Net-(R53-Pad2)*%
X194867400Y-103440000D03*
%TO.N,Net-(R54-Pad2)*%
X172400000Y-102336099D03*
%TO.N,Net-(R64-Pad2)*%
X190657053Y-88622052D03*
%TO.N,Net-(R65-Pad2)*%
X175800000Y-90700000D03*
%TO.N,Net-(R70-Pad2)*%
X192257053Y-90557053D03*
%TO.N,Net-(R71-Pad2)*%
X174182400Y-88939999D03*
%TO.N,Net-(R79-Pad2)*%
X193630000Y-104950000D03*
%TO.N,Net-(R80-Pad2)*%
X173350000Y-106963902D03*
%TO.N,Net-(R85-Pad2)*%
X194940000Y-106620000D03*
%TO.N,Net-(R86-Pad2)*%
X172150000Y-105350000D03*
%TO.N,Net-(R91-Pad2)*%
X193830000Y-108270000D03*
%TO.N,Net-(R92-Pad2)*%
X173350000Y-110203902D03*
%TO.N,Net-(R97-Pad2)*%
X194930000Y-109930000D03*
%TO.N,Net-(R100-Pad1)*%
X172557053Y-108796098D03*
%TO.N,Net-(R103-Pad2)*%
X190631001Y-112176000D03*
%TO.N,Net-(R104-Pad2)*%
X177040000Y-113940000D03*
%TO.N,Net-(R109-Pad2)*%
X191731001Y-113776000D03*
%TO.N,Net-(R110-Pad2)*%
X175972053Y-112346098D03*
%TD*%
D16*
%TO.N,VDDA*%
X184035000Y-72365000D02*
X183220000Y-71550000D01*
X184035000Y-72365000D02*
X184850000Y-71550000D01*
X190600000Y-82300000D02*
X192850000Y-84550000D01*
X190600000Y-77800000D02*
X190600000Y-82300000D01*
X183220000Y-71550000D02*
X183100000Y-71550000D01*
X175600000Y-76550000D02*
X180600000Y-71550000D01*
X183100000Y-71550000D02*
X180600000Y-71550000D01*
X175600000Y-76550000D02*
X175600000Y-85550000D01*
X190600000Y-73050000D02*
X190600000Y-75050000D01*
X192850000Y-84550000D02*
X192850000Y-85550000D01*
X184035000Y-73775000D02*
X184035000Y-72365000D01*
X184850000Y-71550000D02*
X189100000Y-71550000D01*
X189100000Y-71550000D02*
X190600000Y-73050000D01*
%TO.N,VSSA*%
X172600000Y-84923775D02*
X172223775Y-85300000D01*
X172600000Y-78400000D02*
X172600000Y-84923775D01*
D17*
X196300000Y-90300000D02*
X196600000Y-90600000D01*
X195800000Y-90300000D02*
X196300000Y-90300000D01*
X194649999Y-90300000D02*
X195800000Y-90300000D01*
X193872053Y-89522054D02*
X194649999Y-90300000D01*
D16*
X173700000Y-77300000D02*
X172600000Y-78400000D01*
D18*
%TO.N,/VBias*%
X187729511Y-75299511D02*
X187729511Y-82270489D01*
X187729511Y-82270489D02*
X184500000Y-85500000D01*
X186555000Y-74125000D02*
X187729511Y-75299511D01*
%TO.N,LINE*%
X163700000Y-86100000D02*
X163700000Y-87300000D01*
X204600000Y-85700000D02*
X204600000Y-89300000D01*
X204600000Y-89300000D02*
X201900000Y-92000000D01*
X200900000Y-82000000D02*
X204600000Y-85700000D01*
X199500000Y-82000000D02*
X200900000Y-82000000D01*
X167300000Y-90900000D02*
X167300000Y-91000000D01*
X163700000Y-87300000D02*
X167300000Y-90900000D01*
X201900000Y-92000000D02*
X200000000Y-92000000D01*
X184000000Y-80400000D02*
X184000000Y-76350000D01*
%TO.N,/VSSA2*%
X193546001Y-112900000D02*
X194146001Y-113500000D01*
D16*
X172400000Y-118100000D02*
X171900000Y-117600000D01*
X196100000Y-129600000D02*
X196100000Y-121100000D01*
X173300000Y-124500000D02*
X172400000Y-123600000D01*
X187200000Y-131560000D02*
X190860000Y-131560000D01*
D18*
X171859511Y-112540489D02*
X171800000Y-112600000D01*
D16*
X172400000Y-123600000D02*
X172400000Y-118100000D01*
D18*
X173440489Y-112540489D02*
X171859511Y-112540489D01*
D16*
X190860000Y-131560000D02*
X190900000Y-131600000D01*
X196100000Y-121100000D02*
X194800000Y-119800000D01*
X194800000Y-119800000D02*
X194800000Y-117900000D01*
X180140000Y-124500000D02*
X173300000Y-124500000D01*
X194100000Y-131600000D02*
X196100000Y-129600000D01*
X187200000Y-131560000D02*
X180140000Y-124500000D01*
D18*
X173957500Y-113057500D02*
X173440489Y-112540489D01*
X194146001Y-113500000D02*
X195000000Y-113500000D01*
D16*
%TO.N,/VDDA2*%
X182700000Y-136200000D02*
X184065000Y-134835000D01*
X188800000Y-136000000D02*
X192700000Y-132100000D01*
X175500000Y-136200000D02*
X182700000Y-136200000D01*
X174200000Y-127900000D02*
X174200000Y-134900000D01*
X192700000Y-132100000D02*
X192700000Y-115700000D01*
X174200000Y-118400000D02*
X174200000Y-117150000D01*
X174100000Y-127800000D02*
X174200000Y-127900000D01*
X185740000Y-136000000D02*
X188800000Y-136000000D01*
X174200000Y-117150000D02*
X174400000Y-116950000D01*
X184065000Y-134325000D02*
X185740000Y-136000000D01*
X174200000Y-134900000D02*
X175500000Y-136200000D01*
D18*
%TO.N,/LINE2*%
X169300000Y-126000000D02*
X162900000Y-119600000D01*
X179000000Y-126800000D02*
X178200000Y-126000000D01*
X198300000Y-125200000D02*
X203400000Y-120100000D01*
X167300000Y-110500000D02*
X167300000Y-110400000D01*
X178200000Y-126000000D02*
X169300000Y-126000000D01*
X162900000Y-119600000D02*
X162900000Y-114900000D01*
X182390000Y-130010000D02*
X183400000Y-129000000D01*
X203400000Y-115000000D02*
X200200000Y-111800000D01*
X182290000Y-130010000D02*
X182390000Y-130010000D01*
X203400000Y-120100000D02*
X203400000Y-115000000D01*
X184065000Y-131785000D02*
X182290000Y-130010000D01*
X182290000Y-130010000D02*
X179080000Y-126800000D01*
X179080000Y-126800000D02*
X179000000Y-126800000D01*
X162900000Y-114900000D02*
X167300000Y-110500000D01*
%TD*%
%TA.AperFunction,Conductor*%
%TO.N,LINE*%
G36*
X202442121Y-90120002D02*
G01*
X202488614Y-90173658D01*
X202500000Y-90226000D01*
X202500000Y-100974000D01*
X202479998Y-101042121D01*
X202426342Y-101088614D01*
X202374000Y-101100000D01*
X198726000Y-101100000D01*
X198657879Y-101079998D01*
X198611386Y-101026342D01*
X198600000Y-100974000D01*
X198600000Y-90226000D01*
X198620002Y-90157879D01*
X198673658Y-90111386D01*
X198726000Y-90100000D01*
X202374000Y-90100000D01*
X202442121Y-90120002D01*
G37*
%TD.AperFunction*%
%TD*%
%TA.AperFunction,Conductor*%
%TO.N,VSSA*%
G36*
X195589363Y-85020002D02*
G01*
X195635856Y-85073658D01*
X195645960Y-85143932D01*
X195637398Y-85174825D01*
X195570194Y-85334696D01*
X195469151Y-85678011D01*
X195407006Y-86030451D01*
X195384535Y-86387621D01*
X195402017Y-86745070D01*
X195459235Y-87098343D01*
X195555475Y-87443037D01*
X195689538Y-87774854D01*
X195859753Y-88089659D01*
X196063998Y-88383529D01*
X196066311Y-88386171D01*
X196066314Y-88386175D01*
X196288207Y-88639642D01*
X196299727Y-88652801D01*
X196564003Y-88894118D01*
X196853531Y-89104472D01*
X196856597Y-89106214D01*
X196856599Y-89106215D01*
X196926251Y-89145783D01*
X197164703Y-89281243D01*
X197329242Y-89351764D01*
X197490408Y-89420840D01*
X197490412Y-89420841D01*
X197493640Y-89422225D01*
X197531707Y-89433718D01*
X197832866Y-89524644D01*
X197832871Y-89524645D01*
X197836242Y-89525663D01*
X198188239Y-89590266D01*
X198190098Y-89590396D01*
X198254874Y-89618651D01*
X198294272Y-89677712D01*
X198300000Y-89715271D01*
X198300000Y-91624062D01*
X198279998Y-91692183D01*
X198226342Y-91738676D01*
X198156068Y-91748780D01*
X198091488Y-91719286D01*
X198084905Y-91713157D01*
X198053220Y-91681472D01*
X197933126Y-91620281D01*
X197923337Y-91618731D01*
X197923335Y-91618730D01*
X197809793Y-91600747D01*
X197800000Y-91599196D01*
X197790207Y-91600747D01*
X197676665Y-91618730D01*
X197676663Y-91618731D01*
X197666874Y-91620281D01*
X197546780Y-91681472D01*
X197451472Y-91776780D01*
X197446972Y-91785612D01*
X197405824Y-91866369D01*
X197357076Y-91917984D01*
X197288161Y-91935050D01*
X197220959Y-91912149D01*
X197181290Y-91866369D01*
X197155428Y-91815612D01*
X197150928Y-91806780D01*
X197055620Y-91711472D01*
X196935526Y-91650281D01*
X196925737Y-91648731D01*
X196925735Y-91648730D01*
X196812193Y-91630747D01*
X196802400Y-91629196D01*
X196792607Y-91630747D01*
X196679065Y-91648730D01*
X196679063Y-91648731D01*
X196669274Y-91650281D01*
X196549180Y-91711472D01*
X196453872Y-91806780D01*
X196392681Y-91926874D01*
X196391131Y-91936663D01*
X196391130Y-91936665D01*
X196373147Y-92050207D01*
X196371596Y-92060000D01*
X196373147Y-92069793D01*
X196390262Y-92177851D01*
X196392681Y-92193126D01*
X196453872Y-92313220D01*
X196549180Y-92408528D01*
X196669274Y-92469719D01*
X196679063Y-92471269D01*
X196679065Y-92471270D01*
X196792607Y-92489253D01*
X196802400Y-92490804D01*
X196812193Y-92489253D01*
X196925735Y-92471270D01*
X196925737Y-92471269D01*
X196935526Y-92469719D01*
X197055620Y-92408528D01*
X197150928Y-92313220D01*
X197196576Y-92223631D01*
X197245324Y-92172016D01*
X197314239Y-92154950D01*
X197381441Y-92177851D01*
X197421110Y-92223631D01*
X197451472Y-92283220D01*
X197546780Y-92378528D01*
X197666874Y-92439719D01*
X197676665Y-92441270D01*
X197676666Y-92441270D01*
X197729075Y-92449571D01*
X197793228Y-92479984D01*
X197830755Y-92540252D01*
X197829741Y-92611242D01*
X197790508Y-92670413D01*
X197754915Y-92690180D01*
X197754274Y-92690281D01*
X197634180Y-92751472D01*
X197538872Y-92846780D01*
X197477681Y-92966874D01*
X197456596Y-93100000D01*
X197477681Y-93233126D01*
X197538872Y-93353220D01*
X197634180Y-93448528D01*
X197754274Y-93509719D01*
X197764063Y-93511269D01*
X197764065Y-93511270D01*
X197877607Y-93529253D01*
X197887400Y-93530804D01*
X197897193Y-93529253D01*
X198010735Y-93511270D01*
X198010737Y-93511269D01*
X198020526Y-93509719D01*
X198116798Y-93460666D01*
X198186573Y-93447562D01*
X198252358Y-93474262D01*
X198293265Y-93532289D01*
X198300000Y-93572933D01*
X198300000Y-94936662D01*
X198279998Y-95004783D01*
X198226342Y-95051276D01*
X198156068Y-95061380D01*
X198091488Y-95031886D01*
X198084905Y-95025757D01*
X198040620Y-94981472D01*
X197920526Y-94920281D01*
X197910737Y-94918731D01*
X197910735Y-94918730D01*
X197797193Y-94900747D01*
X197787400Y-94899196D01*
X197777607Y-94900747D01*
X197664065Y-94918730D01*
X197664063Y-94918731D01*
X197654274Y-94920281D01*
X197534180Y-94981472D01*
X197438872Y-95076780D01*
X197437912Y-95078664D01*
X197385123Y-95119371D01*
X197314387Y-95125448D01*
X197251595Y-95092316D01*
X197237275Y-95072903D01*
X197236261Y-95073640D01*
X197230428Y-95065612D01*
X197225928Y-95056780D01*
X197130620Y-94961472D01*
X197010526Y-94900281D01*
X197000737Y-94898731D01*
X197000735Y-94898730D01*
X196887193Y-94880747D01*
X196877400Y-94879196D01*
X196867607Y-94880747D01*
X196754065Y-94898730D01*
X196754063Y-94898731D01*
X196744274Y-94900281D01*
X196624180Y-94961472D01*
X196528872Y-95056780D01*
X196467681Y-95176874D01*
X196446596Y-95310000D01*
X196467681Y-95443126D01*
X196528872Y-95563220D01*
X196624180Y-95658528D01*
X196744274Y-95719719D01*
X196754063Y-95721269D01*
X196754065Y-95721270D01*
X196867607Y-95739253D01*
X196877400Y-95740804D01*
X196887193Y-95739253D01*
X197000735Y-95721270D01*
X197000737Y-95721269D01*
X197010526Y-95719719D01*
X197130620Y-95658528D01*
X197225928Y-95563220D01*
X197226888Y-95561336D01*
X197279677Y-95520629D01*
X197350413Y-95514552D01*
X197413205Y-95547684D01*
X197427525Y-95567097D01*
X197428539Y-95566360D01*
X197434372Y-95574388D01*
X197438872Y-95583220D01*
X197534180Y-95678528D01*
X197604483Y-95714349D01*
X197654274Y-95739719D01*
X197653547Y-95741145D01*
X197702976Y-95774941D01*
X197730615Y-95840337D01*
X197718511Y-95910294D01*
X197670506Y-95962602D01*
X197662642Y-95966970D01*
X197634180Y-95981472D01*
X197538872Y-96076780D01*
X197477681Y-96196874D01*
X197456596Y-96330000D01*
X197477681Y-96463126D01*
X197538872Y-96583220D01*
X197634180Y-96678528D01*
X197754274Y-96739719D01*
X197764063Y-96741269D01*
X197764065Y-96741270D01*
X197877607Y-96759253D01*
X197887400Y-96760804D01*
X197897193Y-96759253D01*
X198010735Y-96741270D01*
X198010737Y-96741269D01*
X198020526Y-96739719D01*
X198116798Y-96690666D01*
X198186573Y-96677562D01*
X198252358Y-96704262D01*
X198293265Y-96762289D01*
X198300000Y-96802933D01*
X198300000Y-98070060D01*
X198279998Y-98138181D01*
X198226342Y-98184674D01*
X198156068Y-98194778D01*
X198116933Y-98178895D01*
X198115620Y-98181472D01*
X197995526Y-98120281D01*
X197985737Y-98118731D01*
X197985735Y-98118730D01*
X197872193Y-98100747D01*
X197862400Y-98099196D01*
X197852607Y-98100747D01*
X197739065Y-98118730D01*
X197739063Y-98118731D01*
X197729274Y-98120281D01*
X197609180Y-98181472D01*
X197513872Y-98276780D01*
X197492357Y-98319005D01*
X197443611Y-98370619D01*
X197374697Y-98387686D01*
X197307495Y-98364786D01*
X197267824Y-98319005D01*
X197246309Y-98276780D01*
X197225928Y-98236780D01*
X197130620Y-98141472D01*
X197010526Y-98080281D01*
X197000737Y-98078731D01*
X197000735Y-98078730D01*
X196887193Y-98060747D01*
X196877400Y-98059196D01*
X196867607Y-98060747D01*
X196754065Y-98078730D01*
X196754063Y-98078731D01*
X196744274Y-98080281D01*
X196624180Y-98141472D01*
X196528872Y-98236780D01*
X196467681Y-98356874D01*
X196466131Y-98366663D01*
X196466130Y-98366665D01*
X196448147Y-98480207D01*
X196446596Y-98490000D01*
X196467681Y-98623126D01*
X196528872Y-98743220D01*
X196624180Y-98838528D01*
X196744274Y-98899719D01*
X196754063Y-98901269D01*
X196754065Y-98901270D01*
X196867607Y-98919253D01*
X196877400Y-98920804D01*
X196887193Y-98919253D01*
X197000735Y-98901270D01*
X197000737Y-98901269D01*
X197010526Y-98899719D01*
X197130620Y-98838528D01*
X197225928Y-98743220D01*
X197247443Y-98700995D01*
X197296189Y-98649381D01*
X197365103Y-98632314D01*
X197432305Y-98655214D01*
X197471976Y-98700995D01*
X197513872Y-98783220D01*
X197609180Y-98878528D01*
X197607409Y-98880299D01*
X197642036Y-98925206D01*
X197648110Y-98995943D01*
X197614977Y-99058734D01*
X197598682Y-99072853D01*
X197593015Y-99076970D01*
X197584180Y-99081472D01*
X197488872Y-99176780D01*
X197427681Y-99296874D01*
X197406596Y-99430000D01*
X197427681Y-99563126D01*
X197488872Y-99683220D01*
X197584180Y-99778528D01*
X197704274Y-99839719D01*
X197714063Y-99841269D01*
X197714065Y-99841270D01*
X197827607Y-99859253D01*
X197837400Y-99860804D01*
X197847193Y-99859253D01*
X197960735Y-99841270D01*
X197960737Y-99841269D01*
X197970526Y-99839719D01*
X198090620Y-99778528D01*
X198097635Y-99771513D01*
X198099936Y-99769841D01*
X198166803Y-99745981D01*
X198235955Y-99762059D01*
X198285437Y-99812971D01*
X198300000Y-99871775D01*
X198300000Y-100974000D01*
X198279998Y-101042121D01*
X198226342Y-101088614D01*
X198174000Y-101100000D01*
X194626000Y-101100000D01*
X194557879Y-101079998D01*
X194511386Y-101026342D01*
X194500000Y-100974000D01*
X194500000Y-100740085D01*
X194520002Y-100671964D01*
X194573658Y-100625471D01*
X194643932Y-100615367D01*
X194682838Y-100631161D01*
X194684180Y-100628528D01*
X194804274Y-100689719D01*
X194814063Y-100691269D01*
X194814065Y-100691270D01*
X194927607Y-100709253D01*
X194937400Y-100710804D01*
X194947193Y-100709253D01*
X195060735Y-100691270D01*
X195060737Y-100691269D01*
X195070526Y-100689719D01*
X195190620Y-100628528D01*
X195285928Y-100533220D01*
X195347119Y-100413126D01*
X195368204Y-100280000D01*
X195347119Y-100146874D01*
X195285928Y-100026780D01*
X195190620Y-99931472D01*
X195070526Y-99870281D01*
X195060737Y-99868731D01*
X195060735Y-99868730D01*
X194947193Y-99850747D01*
X194937400Y-99849196D01*
X194927607Y-99850747D01*
X194814065Y-99868730D01*
X194814063Y-99868731D01*
X194804274Y-99870281D01*
X194684180Y-99931472D01*
X194682474Y-99928124D01*
X194633207Y-99945709D01*
X194564054Y-99929636D01*
X194514568Y-99878728D01*
X194500000Y-99819915D01*
X194500000Y-97548538D01*
X194520002Y-97480417D01*
X194573658Y-97433924D01*
X194643932Y-97423820D01*
X194708512Y-97453314D01*
X194715095Y-97459443D01*
X194734180Y-97478528D01*
X194854274Y-97539719D01*
X194864063Y-97541269D01*
X194864065Y-97541270D01*
X194977607Y-97559253D01*
X194987400Y-97560804D01*
X194997193Y-97559253D01*
X195110735Y-97541270D01*
X195110737Y-97541269D01*
X195120526Y-97539719D01*
X195240620Y-97478528D01*
X195335928Y-97383220D01*
X195397119Y-97263126D01*
X195418204Y-97130000D01*
X195397119Y-96996874D01*
X195335928Y-96876780D01*
X195240620Y-96781472D01*
X195120526Y-96720281D01*
X195110737Y-96718731D01*
X195110735Y-96718730D01*
X194997193Y-96700747D01*
X194987400Y-96699196D01*
X194977607Y-96700747D01*
X194864065Y-96718730D01*
X194864063Y-96718731D01*
X194854274Y-96720281D01*
X194734180Y-96781472D01*
X194715095Y-96800557D01*
X194652783Y-96834583D01*
X194581968Y-96829518D01*
X194525132Y-96786971D01*
X194500321Y-96720451D01*
X194500000Y-96711462D01*
X194500000Y-94249675D01*
X194520002Y-94181554D01*
X194573658Y-94135061D01*
X194643932Y-94124957D01*
X194683203Y-94137409D01*
X194745436Y-94169119D01*
X194745442Y-94169121D01*
X194754274Y-94173621D01*
X194764063Y-94175171D01*
X194764065Y-94175172D01*
X194877607Y-94193155D01*
X194887400Y-94194706D01*
X194897193Y-94193155D01*
X195010735Y-94175172D01*
X195010737Y-94175171D01*
X195020526Y-94173621D01*
X195140620Y-94112430D01*
X195235928Y-94017122D01*
X195297119Y-93897028D01*
X195318204Y-93763902D01*
X195297119Y-93630776D01*
X195235928Y-93510682D01*
X195140620Y-93415374D01*
X195020526Y-93354183D01*
X195010737Y-93352633D01*
X195010735Y-93352632D01*
X194897193Y-93334649D01*
X194887400Y-93333098D01*
X194877607Y-93334649D01*
X194764065Y-93352632D01*
X194764063Y-93352633D01*
X194754274Y-93354183D01*
X194745442Y-93358683D01*
X194745436Y-93358685D01*
X194683203Y-93390395D01*
X194613427Y-93403500D01*
X194547642Y-93376800D01*
X194506735Y-93318773D01*
X194500000Y-93278129D01*
X194500000Y-90002859D01*
X194520002Y-89934738D01*
X194573658Y-89888245D01*
X194643932Y-89878141D01*
X194698571Y-89900319D01*
X194703833Y-89905581D01*
X194712664Y-89910081D01*
X194712666Y-89910082D01*
X194761057Y-89934738D01*
X194823927Y-89966772D01*
X194833716Y-89968322D01*
X194833718Y-89968323D01*
X194947260Y-89986306D01*
X194957053Y-89987857D01*
X194966846Y-89986306D01*
X195080388Y-89968323D01*
X195080390Y-89968322D01*
X195090179Y-89966772D01*
X195210273Y-89905581D01*
X195305581Y-89810273D01*
X195366772Y-89690179D01*
X195387857Y-89557053D01*
X195382724Y-89524644D01*
X195368323Y-89433718D01*
X195368322Y-89433716D01*
X195366772Y-89423927D01*
X195305581Y-89303833D01*
X195210273Y-89208525D01*
X195090179Y-89147334D01*
X195080390Y-89145784D01*
X195080388Y-89145783D01*
X194966846Y-89127800D01*
X194957053Y-89126249D01*
X194947260Y-89127800D01*
X194833718Y-89145783D01*
X194833716Y-89145784D01*
X194823927Y-89147334D01*
X194763880Y-89177929D01*
X194712666Y-89204024D01*
X194712664Y-89204025D01*
X194703833Y-89208525D01*
X194698684Y-89213674D01*
X194633195Y-89237041D01*
X194564043Y-89220962D01*
X194514562Y-89170049D01*
X194500000Y-89111247D01*
X194500000Y-85126000D01*
X194520002Y-85057879D01*
X194573658Y-85011386D01*
X194626000Y-85000000D01*
X195521242Y-85000000D01*
X195589363Y-85020002D01*
G37*
%TD.AperFunction*%
%TD*%
%TA.AperFunction,Conductor*%
%TO.N,VDDA*%
G36*
X194242121Y-85020002D02*
G01*
X194288614Y-85073658D01*
X194300000Y-85126000D01*
X194300000Y-89056940D01*
X194279998Y-89125061D01*
X194226342Y-89171554D01*
X194156068Y-89181658D01*
X194116797Y-89169207D01*
X194030155Y-89125061D01*
X194005179Y-89112335D01*
X193995390Y-89110785D01*
X193995388Y-89110784D01*
X193881846Y-89092801D01*
X193872053Y-89091250D01*
X193862260Y-89092801D01*
X193748718Y-89110784D01*
X193748716Y-89110785D01*
X193738927Y-89112335D01*
X193618833Y-89173526D01*
X193523525Y-89268834D01*
X193462334Y-89388928D01*
X193441249Y-89522054D01*
X193462334Y-89655180D01*
X193523525Y-89775274D01*
X193618833Y-89870582D01*
X193738927Y-89931773D01*
X193748718Y-89933324D01*
X193748719Y-89933324D01*
X193838550Y-89947552D01*
X193907934Y-89982906D01*
X194263095Y-90338067D01*
X194297121Y-90400379D01*
X194300000Y-90427162D01*
X194300000Y-91936662D01*
X194279998Y-92004783D01*
X194226342Y-92051276D01*
X194156068Y-92061380D01*
X194091488Y-92031886D01*
X194084905Y-92025757D01*
X194040620Y-91981472D01*
X193920526Y-91920281D01*
X193910737Y-91918731D01*
X193910735Y-91918730D01*
X193797193Y-91900747D01*
X193787400Y-91899196D01*
X193777607Y-91900747D01*
X193664065Y-91918730D01*
X193664063Y-91918731D01*
X193654274Y-91920281D01*
X193534180Y-91981472D01*
X193438872Y-92076780D01*
X193377681Y-92196874D01*
X193376131Y-92206663D01*
X193376130Y-92206665D01*
X193359796Y-92309793D01*
X193356596Y-92330000D01*
X193377681Y-92463126D01*
X193438872Y-92583220D01*
X193534180Y-92678528D01*
X193654274Y-92739719D01*
X193664063Y-92741269D01*
X193664065Y-92741270D01*
X193777607Y-92759253D01*
X193787400Y-92760804D01*
X193797193Y-92759253D01*
X193910735Y-92741270D01*
X193910737Y-92741269D01*
X193920526Y-92739719D01*
X194040620Y-92678528D01*
X194084905Y-92634243D01*
X194147217Y-92600217D01*
X194218032Y-92605282D01*
X194274868Y-92647829D01*
X194299679Y-92714349D01*
X194300000Y-92723338D01*
X194300000Y-95115493D01*
X194279998Y-95183614D01*
X194226342Y-95230107D01*
X194156068Y-95240211D01*
X194091488Y-95210717D01*
X194061733Y-95172696D01*
X194060291Y-95169865D01*
X194048528Y-95146780D01*
X193953220Y-95051472D01*
X193833126Y-94990281D01*
X193823337Y-94988731D01*
X193823335Y-94988730D01*
X193709793Y-94970747D01*
X193700000Y-94969196D01*
X193690207Y-94970747D01*
X193576665Y-94988730D01*
X193576663Y-94988731D01*
X193566874Y-94990281D01*
X193446780Y-95051472D01*
X193351472Y-95146780D01*
X193290281Y-95266874D01*
X193269196Y-95400000D01*
X193290281Y-95533126D01*
X193351472Y-95653220D01*
X193446780Y-95748528D01*
X193566874Y-95809719D01*
X193576663Y-95811269D01*
X193576665Y-95811270D01*
X193690207Y-95829253D01*
X193700000Y-95830804D01*
X193709793Y-95829253D01*
X193823335Y-95811270D01*
X193823337Y-95811269D01*
X193833126Y-95809719D01*
X193953220Y-95748528D01*
X194048528Y-95653220D01*
X194061733Y-95627304D01*
X194110482Y-95575689D01*
X194179397Y-95558623D01*
X194246598Y-95581524D01*
X194290750Y-95637122D01*
X194300000Y-95684507D01*
X194300000Y-98203197D01*
X194279998Y-98271318D01*
X194226342Y-98317811D01*
X194154289Y-98327646D01*
X194072160Y-98314638D01*
X194062367Y-98313087D01*
X194052574Y-98314638D01*
X193939032Y-98332621D01*
X193939030Y-98332622D01*
X193929241Y-98334172D01*
X193809147Y-98395363D01*
X193713839Y-98490671D01*
X193652648Y-98610765D01*
X193651098Y-98620554D01*
X193651097Y-98620556D01*
X193640384Y-98688196D01*
X193631563Y-98743891D01*
X193652648Y-98877017D01*
X193713839Y-98997111D01*
X193809147Y-99092419D01*
X193929241Y-99153610D01*
X193939030Y-99155160D01*
X193939032Y-99155161D01*
X194052574Y-99173144D01*
X194062367Y-99174695D01*
X194154289Y-99160136D01*
X194224700Y-99169236D01*
X194279014Y-99214958D01*
X194300000Y-99284585D01*
X194300000Y-100974000D01*
X194279998Y-101042121D01*
X194226342Y-101088614D01*
X194174000Y-101100000D01*
X189963487Y-101100000D01*
X189895366Y-101079998D01*
X189848873Y-101026342D01*
X189839038Y-100954290D01*
X189849253Y-100889794D01*
X189849253Y-100889793D01*
X189850804Y-100880000D01*
X189843012Y-100830804D01*
X189831270Y-100756665D01*
X189831269Y-100756663D01*
X189829719Y-100746874D01*
X189768528Y-100626780D01*
X189673220Y-100531472D01*
X189568796Y-100478266D01*
X189517182Y-100429518D01*
X189509197Y-100400000D01*
X190459196Y-100400000D01*
X190480281Y-100533126D01*
X190541472Y-100653220D01*
X190636780Y-100748528D01*
X190756874Y-100809719D01*
X190766663Y-100811269D01*
X190766665Y-100811270D01*
X190880207Y-100829253D01*
X190890000Y-100830804D01*
X190899793Y-100829253D01*
X191013335Y-100811270D01*
X191013337Y-100811269D01*
X191023126Y-100809719D01*
X191143220Y-100748528D01*
X191238528Y-100653220D01*
X191299719Y-100533126D01*
X191320804Y-100400000D01*
X191299719Y-100266874D01*
X191238528Y-100146780D01*
X191143220Y-100051472D01*
X191023126Y-99990281D01*
X191013337Y-99988731D01*
X191013335Y-99988730D01*
X190899793Y-99970747D01*
X190890000Y-99969196D01*
X190880207Y-99970747D01*
X190766665Y-99988730D01*
X190766663Y-99988731D01*
X190756874Y-99990281D01*
X190636780Y-100051472D01*
X190541472Y-100146780D01*
X190480281Y-100266874D01*
X190459196Y-100400000D01*
X189509197Y-100400000D01*
X189500000Y-100365999D01*
X189500000Y-98688196D01*
X189520002Y-98620075D01*
X189573658Y-98573582D01*
X189643932Y-98563478D01*
X189685791Y-98580469D01*
X189686780Y-98578528D01*
X189806874Y-98639719D01*
X189816663Y-98641269D01*
X189816665Y-98641270D01*
X189930207Y-98659253D01*
X189940000Y-98660804D01*
X189949793Y-98659253D01*
X190063335Y-98641270D01*
X190063337Y-98641269D01*
X190073126Y-98639719D01*
X190193220Y-98578528D01*
X190288528Y-98483220D01*
X190349719Y-98363126D01*
X190354551Y-98332621D01*
X190369253Y-98239793D01*
X190370804Y-98230000D01*
X190349719Y-98096874D01*
X190288528Y-97976780D01*
X190193220Y-97881472D01*
X190073126Y-97820281D01*
X190063337Y-97818731D01*
X190063335Y-97818730D01*
X189949793Y-97800747D01*
X189940000Y-97799196D01*
X189930207Y-97800747D01*
X189816665Y-97818730D01*
X189816663Y-97818731D01*
X189806874Y-97820281D01*
X189686780Y-97881472D01*
X189685489Y-97878939D01*
X189633197Y-97897598D01*
X189564045Y-97881520D01*
X189514563Y-97830607D01*
X189500000Y-97771804D01*
X189500000Y-97255000D01*
X190506596Y-97255000D01*
X190527681Y-97388126D01*
X190588872Y-97508220D01*
X190684180Y-97603528D01*
X190804274Y-97664719D01*
X190814063Y-97666269D01*
X190814065Y-97666270D01*
X190927607Y-97684253D01*
X190937400Y-97685804D01*
X190947193Y-97684253D01*
X191060735Y-97666270D01*
X191060737Y-97666269D01*
X191070526Y-97664719D01*
X191190620Y-97603528D01*
X191285928Y-97508220D01*
X191347119Y-97388126D01*
X191368204Y-97255000D01*
X191347119Y-97121874D01*
X191285928Y-97001780D01*
X191190620Y-96906472D01*
X191070526Y-96845281D01*
X191060737Y-96843731D01*
X191060735Y-96843730D01*
X190947193Y-96825747D01*
X190937400Y-96824196D01*
X190927607Y-96825747D01*
X190814065Y-96843730D01*
X190814063Y-96843731D01*
X190804274Y-96845281D01*
X190684180Y-96906472D01*
X190588872Y-97001780D01*
X190527681Y-97121874D01*
X190506596Y-97255000D01*
X189500000Y-97255000D01*
X189500000Y-94030000D01*
X190456596Y-94030000D01*
X190477681Y-94163126D01*
X190538872Y-94283220D01*
X190634180Y-94378528D01*
X190754274Y-94439719D01*
X190764063Y-94441269D01*
X190764065Y-94441270D01*
X190877607Y-94459253D01*
X190887400Y-94460804D01*
X190897193Y-94459253D01*
X191010735Y-94441270D01*
X191010737Y-94441269D01*
X191020526Y-94439719D01*
X191140620Y-94378528D01*
X191235928Y-94283220D01*
X191297119Y-94163126D01*
X191318204Y-94030000D01*
X191297119Y-93896874D01*
X191235928Y-93776780D01*
X191140620Y-93681472D01*
X191020526Y-93620281D01*
X191010737Y-93618731D01*
X191010735Y-93618730D01*
X190897193Y-93600747D01*
X190887400Y-93599196D01*
X190877607Y-93600747D01*
X190764065Y-93618730D01*
X190764063Y-93618731D01*
X190754274Y-93620281D01*
X190634180Y-93681472D01*
X190538872Y-93776780D01*
X190477681Y-93896874D01*
X190456596Y-94030000D01*
X189500000Y-94030000D01*
X189500000Y-92846655D01*
X189520002Y-92778534D01*
X189573658Y-92732041D01*
X189645710Y-92722206D01*
X189690206Y-92729253D01*
X189690207Y-92729253D01*
X189700000Y-92730804D01*
X189709793Y-92729253D01*
X189823335Y-92711270D01*
X189823337Y-92711269D01*
X189833126Y-92709719D01*
X189953220Y-92648528D01*
X190048528Y-92553220D01*
X190109719Y-92433126D01*
X190124502Y-92339793D01*
X190129253Y-92309793D01*
X190130804Y-92300000D01*
X190109719Y-92166874D01*
X190048528Y-92046780D01*
X189953220Y-91951472D01*
X189833126Y-91890281D01*
X189823337Y-91888731D01*
X189823335Y-91888730D01*
X189709793Y-91870747D01*
X189700000Y-91869196D01*
X189690207Y-91870747D01*
X189690206Y-91870747D01*
X189645710Y-91877794D01*
X189575299Y-91868694D01*
X189520985Y-91822971D01*
X189500000Y-91753345D01*
X189500000Y-90557053D01*
X191826249Y-90557053D01*
X191847334Y-90690179D01*
X191908525Y-90810273D01*
X192003833Y-90905581D01*
X192123927Y-90966772D01*
X192133716Y-90968322D01*
X192133718Y-90968323D01*
X192247260Y-90986306D01*
X192257053Y-90987857D01*
X192266846Y-90986306D01*
X192380388Y-90968323D01*
X192380390Y-90968322D01*
X192390179Y-90966772D01*
X192510273Y-90905581D01*
X192605581Y-90810273D01*
X192666772Y-90690179D01*
X192687857Y-90557053D01*
X192666772Y-90423927D01*
X192605581Y-90303833D01*
X192510273Y-90208525D01*
X192390179Y-90147334D01*
X192380390Y-90145784D01*
X192380388Y-90145783D01*
X192266846Y-90127800D01*
X192257053Y-90126249D01*
X192247260Y-90127800D01*
X192133718Y-90145783D01*
X192133716Y-90145784D01*
X192123927Y-90147334D01*
X192003833Y-90208525D01*
X191908525Y-90303833D01*
X191847334Y-90423927D01*
X191826249Y-90557053D01*
X189500000Y-90557053D01*
X189500000Y-88622052D01*
X190226249Y-88622052D01*
X190247334Y-88755178D01*
X190308525Y-88875272D01*
X190403833Y-88970580D01*
X190523927Y-89031771D01*
X190533716Y-89033321D01*
X190533718Y-89033322D01*
X190647260Y-89051305D01*
X190657053Y-89052856D01*
X190666846Y-89051305D01*
X190780388Y-89033322D01*
X190780390Y-89033321D01*
X190790179Y-89031771D01*
X190910273Y-88970580D01*
X191005581Y-88875272D01*
X191066772Y-88755178D01*
X191087857Y-88622052D01*
X191066772Y-88488926D01*
X191005581Y-88368832D01*
X190910273Y-88273524D01*
X190790179Y-88212333D01*
X190780390Y-88210783D01*
X190780388Y-88210782D01*
X190666846Y-88192799D01*
X190657053Y-88191248D01*
X190647260Y-88192799D01*
X190533718Y-88210782D01*
X190533716Y-88210783D01*
X190523927Y-88212333D01*
X190403833Y-88273524D01*
X190308525Y-88368832D01*
X190247334Y-88488926D01*
X190226249Y-88622052D01*
X189500000Y-88622052D01*
X189500000Y-87700000D01*
X192169196Y-87700000D01*
X192190281Y-87833126D01*
X192251472Y-87953220D01*
X192346780Y-88048528D01*
X192466874Y-88109719D01*
X192476663Y-88111269D01*
X192476665Y-88111270D01*
X192590207Y-88129253D01*
X192600000Y-88130804D01*
X192609793Y-88129253D01*
X192723335Y-88111270D01*
X192723337Y-88111269D01*
X192733126Y-88109719D01*
X192853220Y-88048528D01*
X192948528Y-87953220D01*
X193009719Y-87833126D01*
X193030804Y-87700000D01*
X193009719Y-87566874D01*
X192948528Y-87446780D01*
X192853220Y-87351472D01*
X192776276Y-87312267D01*
X192724661Y-87263519D01*
X192707595Y-87194604D01*
X192730496Y-87127402D01*
X192776276Y-87087733D01*
X192844388Y-87053028D01*
X192844387Y-87053028D01*
X192853220Y-87048528D01*
X192948528Y-86953220D01*
X193009719Y-86833126D01*
X193030804Y-86700000D01*
X193009719Y-86566874D01*
X192948528Y-86446780D01*
X192853220Y-86351472D01*
X192733126Y-86290281D01*
X192723337Y-86288731D01*
X192723335Y-86288730D01*
X192609793Y-86270747D01*
X192600000Y-86269196D01*
X192590207Y-86270747D01*
X192476665Y-86288730D01*
X192476663Y-86288731D01*
X192466874Y-86290281D01*
X192346780Y-86351472D01*
X192251472Y-86446780D01*
X192190281Y-86566874D01*
X192169196Y-86700000D01*
X192190281Y-86833126D01*
X192251472Y-86953220D01*
X192346780Y-87048528D01*
X192355613Y-87053028D01*
X192355612Y-87053028D01*
X192423724Y-87087733D01*
X192475339Y-87136481D01*
X192492405Y-87205396D01*
X192469504Y-87272598D01*
X192423724Y-87312267D01*
X192346780Y-87351472D01*
X192251472Y-87446780D01*
X192190281Y-87566874D01*
X192169196Y-87700000D01*
X189500000Y-87700000D01*
X189500000Y-85126000D01*
X189520002Y-85057879D01*
X189573658Y-85011386D01*
X189626000Y-85000000D01*
X194174000Y-85000000D01*
X194242121Y-85020002D01*
G37*
%TD.AperFunction*%
%TD*%
%TA.AperFunction,Conductor*%
%TO.N,VDDA*%
G36*
X177442121Y-85020002D02*
G01*
X177488614Y-85073658D01*
X177500000Y-85126000D01*
X177500000Y-98500523D01*
X177479998Y-98568644D01*
X177451048Y-98599297D01*
X177446780Y-98601472D01*
X177351472Y-98696780D01*
X177290281Y-98816874D01*
X177269196Y-98950000D01*
X177270747Y-98959793D01*
X177284146Y-99044388D01*
X177290281Y-99083126D01*
X177351472Y-99203220D01*
X177446780Y-99298528D01*
X177450146Y-99300243D01*
X177491416Y-99353765D01*
X177500000Y-99399477D01*
X177500000Y-101050000D01*
X177479998Y-101118121D01*
X177426342Y-101164614D01*
X177374000Y-101176000D01*
X173326000Y-101176000D01*
X173257879Y-101155998D01*
X173211386Y-101102342D01*
X173200000Y-101050000D01*
X173200000Y-100939923D01*
X173220002Y-100871802D01*
X173273658Y-100825309D01*
X173343932Y-100815205D01*
X173383201Y-100827655D01*
X173466874Y-100870289D01*
X173476663Y-100871839D01*
X173476665Y-100871840D01*
X173590207Y-100889823D01*
X173600000Y-100891374D01*
X173609793Y-100889823D01*
X173723335Y-100871840D01*
X173723337Y-100871839D01*
X173733126Y-100870289D01*
X173853220Y-100809098D01*
X173948528Y-100713790D01*
X174009719Y-100593696D01*
X174030804Y-100460570D01*
X174009719Y-100327444D01*
X173948528Y-100207350D01*
X173853220Y-100112042D01*
X173733126Y-100050851D01*
X173723337Y-100049301D01*
X173723335Y-100049300D01*
X173609793Y-100031317D01*
X173600000Y-100029766D01*
X173590207Y-100031317D01*
X173476665Y-100049300D01*
X173476663Y-100049301D01*
X173466874Y-100050851D01*
X173383202Y-100093484D01*
X173313427Y-100106588D01*
X173247642Y-100079888D01*
X173206735Y-100021861D01*
X173200000Y-99981217D01*
X173200000Y-98800000D01*
X175969196Y-98800000D01*
X175990281Y-98933126D01*
X176051472Y-99053220D01*
X176146780Y-99148528D01*
X176266874Y-99209719D01*
X176276663Y-99211269D01*
X176276665Y-99211270D01*
X176390207Y-99229253D01*
X176400000Y-99230804D01*
X176409793Y-99229253D01*
X176523335Y-99211270D01*
X176523337Y-99211269D01*
X176533126Y-99209719D01*
X176653220Y-99148528D01*
X176748528Y-99053220D01*
X176809719Y-98933126D01*
X176830804Y-98800000D01*
X176829253Y-98790207D01*
X176811270Y-98676665D01*
X176811269Y-98676663D01*
X176809719Y-98666874D01*
X176748528Y-98546780D01*
X176653220Y-98451472D01*
X176533126Y-98390281D01*
X176523337Y-98388731D01*
X176523335Y-98388730D01*
X176409793Y-98370747D01*
X176400000Y-98369196D01*
X176390207Y-98370747D01*
X176276665Y-98388730D01*
X176276663Y-98388731D01*
X176266874Y-98390281D01*
X176146780Y-98451472D01*
X176051472Y-98546780D01*
X175990281Y-98666874D01*
X175988731Y-98676663D01*
X175988730Y-98676665D01*
X175970747Y-98790207D01*
X175969196Y-98800000D01*
X173200000Y-98800000D01*
X173200000Y-97723892D01*
X173220002Y-97655771D01*
X173273658Y-97609278D01*
X173345710Y-97599443D01*
X173390206Y-97606490D01*
X173390207Y-97606490D01*
X173400000Y-97608041D01*
X173409793Y-97606490D01*
X173523335Y-97588507D01*
X173523337Y-97588506D01*
X173533126Y-97586956D01*
X173653220Y-97525765D01*
X173748528Y-97430457D01*
X173809719Y-97310363D01*
X173830804Y-97177237D01*
X173809719Y-97044111D01*
X173748528Y-96924017D01*
X173653220Y-96828709D01*
X173533126Y-96767518D01*
X173523337Y-96765968D01*
X173523335Y-96765967D01*
X173409793Y-96747984D01*
X173400000Y-96746433D01*
X173390207Y-96747984D01*
X173390206Y-96747984D01*
X173345710Y-96755031D01*
X173275299Y-96745931D01*
X173220985Y-96700208D01*
X173200000Y-96630582D01*
X173200000Y-95500000D01*
X175969196Y-95500000D01*
X175990281Y-95633126D01*
X176051472Y-95753220D01*
X176146780Y-95848528D01*
X176266874Y-95909719D01*
X176276663Y-95911269D01*
X176276665Y-95911270D01*
X176390207Y-95929253D01*
X176400000Y-95930804D01*
X176409793Y-95929253D01*
X176523335Y-95911270D01*
X176523337Y-95911269D01*
X176533126Y-95909719D01*
X176653220Y-95848528D01*
X176748528Y-95753220D01*
X176809719Y-95633126D01*
X176830804Y-95500000D01*
X176809719Y-95366874D01*
X176748528Y-95246780D01*
X176653220Y-95151472D01*
X176533126Y-95090281D01*
X176523337Y-95088731D01*
X176523335Y-95088730D01*
X176409793Y-95070747D01*
X176400000Y-95069196D01*
X176390207Y-95070747D01*
X176276665Y-95088730D01*
X176276663Y-95088731D01*
X176266874Y-95090281D01*
X176146780Y-95151472D01*
X176051472Y-95246780D01*
X175990281Y-95366874D01*
X175969196Y-95500000D01*
X173200000Y-95500000D01*
X173200000Y-94405938D01*
X173220002Y-94337817D01*
X173273658Y-94291324D01*
X173343932Y-94281220D01*
X173408512Y-94310714D01*
X173415095Y-94316843D01*
X173446780Y-94348528D01*
X173566874Y-94409719D01*
X173576663Y-94411269D01*
X173576665Y-94411270D01*
X173690207Y-94429253D01*
X173700000Y-94430804D01*
X173709793Y-94429253D01*
X173823335Y-94411270D01*
X173823337Y-94411269D01*
X173833126Y-94409719D01*
X173953220Y-94348528D01*
X174048528Y-94253220D01*
X174109719Y-94133126D01*
X174130804Y-94000000D01*
X174109719Y-93866874D01*
X174048528Y-93746780D01*
X173953220Y-93651472D01*
X173833126Y-93590281D01*
X173823337Y-93588731D01*
X173823335Y-93588730D01*
X173709793Y-93570747D01*
X173700000Y-93569196D01*
X173690207Y-93570747D01*
X173576665Y-93588730D01*
X173576663Y-93588731D01*
X173566874Y-93590281D01*
X173446780Y-93651472D01*
X173415095Y-93683157D01*
X173352783Y-93717183D01*
X173281968Y-93712118D01*
X173225132Y-93669571D01*
X173200321Y-93603051D01*
X173200000Y-93594062D01*
X173200000Y-92200000D01*
X175869196Y-92200000D01*
X175890281Y-92333126D01*
X175951472Y-92453220D01*
X176046780Y-92548528D01*
X176166874Y-92609719D01*
X176176663Y-92611269D01*
X176176665Y-92611270D01*
X176290207Y-92629253D01*
X176300000Y-92630804D01*
X176309793Y-92629253D01*
X176423335Y-92611270D01*
X176423337Y-92611269D01*
X176433126Y-92609719D01*
X176553220Y-92548528D01*
X176648528Y-92453220D01*
X176709719Y-92333126D01*
X176730804Y-92200000D01*
X176709719Y-92066874D01*
X176648528Y-91946780D01*
X176553220Y-91851472D01*
X176433126Y-91790281D01*
X176423337Y-91788731D01*
X176423335Y-91788730D01*
X176309793Y-91770747D01*
X176300000Y-91769196D01*
X176290207Y-91770747D01*
X176176665Y-91788730D01*
X176176663Y-91788731D01*
X176166874Y-91790281D01*
X176046780Y-91851472D01*
X175951472Y-91946780D01*
X175890281Y-92066874D01*
X175869196Y-92200000D01*
X173200000Y-92200000D01*
X173200000Y-90700000D01*
X175369196Y-90700000D01*
X175390281Y-90833126D01*
X175451472Y-90953220D01*
X175546780Y-91048528D01*
X175666874Y-91109719D01*
X175676663Y-91111269D01*
X175676665Y-91111270D01*
X175790207Y-91129253D01*
X175800000Y-91130804D01*
X175809793Y-91129253D01*
X175923335Y-91111270D01*
X175923337Y-91111269D01*
X175933126Y-91109719D01*
X176053220Y-91048528D01*
X176148528Y-90953220D01*
X176209719Y-90833126D01*
X176230804Y-90700000D01*
X176209719Y-90566874D01*
X176148528Y-90446780D01*
X176053220Y-90351472D01*
X175933126Y-90290281D01*
X175923337Y-90288731D01*
X175923335Y-90288730D01*
X175809793Y-90270747D01*
X175800000Y-90269196D01*
X175790207Y-90270747D01*
X175676665Y-90288730D01*
X175676663Y-90288731D01*
X175666874Y-90290281D01*
X175546780Y-90351472D01*
X175451472Y-90446780D01*
X175390281Y-90566874D01*
X175369196Y-90700000D01*
X173200000Y-90700000D01*
X173200000Y-88939999D01*
X173751596Y-88939999D01*
X173772681Y-89073125D01*
X173833872Y-89193219D01*
X173929180Y-89288527D01*
X174049274Y-89349718D01*
X174059063Y-89351268D01*
X174059065Y-89351269D01*
X174172607Y-89369252D01*
X174182400Y-89370803D01*
X174192193Y-89369252D01*
X174305735Y-89351269D01*
X174305737Y-89351268D01*
X174315526Y-89349718D01*
X174435620Y-89288527D01*
X174530928Y-89193219D01*
X174592119Y-89073125D01*
X174613204Y-88939999D01*
X174592119Y-88806873D01*
X174530928Y-88686779D01*
X174435620Y-88591471D01*
X174315526Y-88530280D01*
X174305737Y-88528730D01*
X174305735Y-88528729D01*
X174192193Y-88510746D01*
X174182400Y-88509195D01*
X174172607Y-88510746D01*
X174059065Y-88528729D01*
X174059063Y-88528730D01*
X174049274Y-88530280D01*
X173929180Y-88591471D01*
X173833872Y-88686779D01*
X173772681Y-88806873D01*
X173751596Y-88939999D01*
X173200000Y-88939999D01*
X173200000Y-85126000D01*
X173220002Y-85057879D01*
X173273658Y-85011386D01*
X173326000Y-85000000D01*
X177374000Y-85000000D01*
X177442121Y-85020002D01*
G37*
%TD.AperFunction*%
%TD*%
%TA.AperFunction,Conductor*%
%TO.N,/VSSA2*%
G36*
X196395405Y-101420002D02*
G01*
X196441898Y-101473658D01*
X196452002Y-101543932D01*
X196444280Y-101568293D01*
X196445247Y-101568607D01*
X196442181Y-101578041D01*
X196437681Y-101586874D01*
X196436131Y-101596663D01*
X196436130Y-101596665D01*
X196426875Y-101655102D01*
X196416596Y-101720000D01*
X196418147Y-101729793D01*
X196433343Y-101825735D01*
X196437681Y-101853126D01*
X196498872Y-101973220D01*
X196594180Y-102068528D01*
X196714274Y-102129719D01*
X196724063Y-102131269D01*
X196724065Y-102131270D01*
X196837607Y-102149253D01*
X196847400Y-102150804D01*
X196857193Y-102149253D01*
X196970735Y-102131270D01*
X196970737Y-102131269D01*
X196980526Y-102129719D01*
X197100620Y-102068528D01*
X197195928Y-101973220D01*
X197200429Y-101964387D01*
X197247750Y-101871515D01*
X197296499Y-101819900D01*
X197365414Y-101802834D01*
X197432615Y-101825735D01*
X197476565Y-101881078D01*
X197477681Y-101888126D01*
X197538872Y-102008220D01*
X197634180Y-102103528D01*
X197635898Y-102104404D01*
X197676542Y-102157115D01*
X197682616Y-102227851D01*
X197649482Y-102290642D01*
X197616330Y-102315091D01*
X197584180Y-102331472D01*
X197488872Y-102426780D01*
X197427681Y-102546874D01*
X197406596Y-102680000D01*
X197427681Y-102813126D01*
X197488872Y-102933220D01*
X197584180Y-103028528D01*
X197704274Y-103089719D01*
X197714063Y-103091269D01*
X197714065Y-103091270D01*
X197827607Y-103109253D01*
X197837400Y-103110804D01*
X197847193Y-103109253D01*
X197960735Y-103091270D01*
X197960737Y-103091269D01*
X197970526Y-103089719D01*
X198090620Y-103028528D01*
X198097635Y-103021513D01*
X198099936Y-103019841D01*
X198166803Y-102995981D01*
X198235955Y-103012059D01*
X198285437Y-103062971D01*
X198300000Y-103121775D01*
X198300000Y-104388225D01*
X198279998Y-104456346D01*
X198226342Y-104502839D01*
X198156068Y-104512943D01*
X198099936Y-104490159D01*
X198097635Y-104488487D01*
X198090620Y-104481472D01*
X197970526Y-104420281D01*
X197960737Y-104418731D01*
X197960735Y-104418730D01*
X197847193Y-104400747D01*
X197837400Y-104399196D01*
X197827607Y-104400747D01*
X197714065Y-104418730D01*
X197714063Y-104418731D01*
X197704274Y-104420281D01*
X197584180Y-104481472D01*
X197488872Y-104576780D01*
X197484372Y-104585612D01*
X197456929Y-104639472D01*
X197408181Y-104691087D01*
X197339266Y-104708153D01*
X197272064Y-104685252D01*
X197232396Y-104639473D01*
X197230430Y-104635615D01*
X197230428Y-104635612D01*
X197225928Y-104626780D01*
X197130620Y-104531472D01*
X197010526Y-104470281D01*
X197000737Y-104468731D01*
X197000735Y-104468730D01*
X196887193Y-104450747D01*
X196877400Y-104449196D01*
X196867607Y-104450747D01*
X196754065Y-104468730D01*
X196754063Y-104468731D01*
X196744274Y-104470281D01*
X196624180Y-104531472D01*
X196528872Y-104626780D01*
X196467681Y-104746874D01*
X196446596Y-104880000D01*
X196448147Y-104889793D01*
X196465895Y-105001847D01*
X196467681Y-105013126D01*
X196528872Y-105133220D01*
X196624180Y-105228528D01*
X196744274Y-105289719D01*
X196754063Y-105291269D01*
X196754065Y-105291270D01*
X196867607Y-105309253D01*
X196877400Y-105310804D01*
X196887193Y-105309253D01*
X197000735Y-105291270D01*
X197000737Y-105291269D01*
X197010526Y-105289719D01*
X197130620Y-105228528D01*
X197225928Y-105133220D01*
X197257872Y-105070527D01*
X197306619Y-105018913D01*
X197375534Y-105001847D01*
X197442736Y-105024748D01*
X197482404Y-105070527D01*
X197482405Y-105070528D01*
X197488872Y-105083220D01*
X197584180Y-105178528D01*
X197593013Y-105183029D01*
X197593015Y-105183030D01*
X197637058Y-105205471D01*
X197688674Y-105254219D01*
X197705740Y-105323134D01*
X197682840Y-105390335D01*
X197649592Y-105419146D01*
X197651040Y-105421139D01*
X197643012Y-105426972D01*
X197634180Y-105431472D01*
X197538872Y-105526780D01*
X197477681Y-105646874D01*
X197456596Y-105780000D01*
X197477681Y-105913126D01*
X197538872Y-106033220D01*
X197634180Y-106128528D01*
X197754274Y-106189719D01*
X197764063Y-106191269D01*
X197764065Y-106191270D01*
X197877607Y-106209253D01*
X197887400Y-106210804D01*
X197897193Y-106209253D01*
X198010735Y-106191270D01*
X198010737Y-106191269D01*
X198020526Y-106189719D01*
X198116798Y-106140666D01*
X198186573Y-106127562D01*
X198252358Y-106154262D01*
X198293265Y-106212289D01*
X198300000Y-106252933D01*
X198300000Y-107761662D01*
X198279998Y-107829783D01*
X198226342Y-107876276D01*
X198156068Y-107886380D01*
X198091488Y-107856886D01*
X198084905Y-107850757D01*
X198065620Y-107831472D01*
X197945526Y-107770281D01*
X197935737Y-107768731D01*
X197935735Y-107768730D01*
X197822193Y-107750747D01*
X197812400Y-107749196D01*
X197802607Y-107750747D01*
X197689065Y-107768730D01*
X197689063Y-107768731D01*
X197679274Y-107770281D01*
X197559180Y-107831472D01*
X197463872Y-107926780D01*
X197459371Y-107935613D01*
X197459370Y-107935615D01*
X197457404Y-107939473D01*
X197453774Y-107943316D01*
X197453539Y-107943640D01*
X197453497Y-107943610D01*
X197408656Y-107991087D01*
X197339741Y-108008153D01*
X197272540Y-107985252D01*
X197232871Y-107939472D01*
X197224240Y-107922533D01*
X197200927Y-107876779D01*
X197105619Y-107781471D01*
X196985525Y-107720280D01*
X196975736Y-107718730D01*
X196975734Y-107718729D01*
X196862192Y-107700746D01*
X196852399Y-107699195D01*
X196842606Y-107700746D01*
X196729064Y-107718729D01*
X196729062Y-107718730D01*
X196719273Y-107720280D01*
X196599179Y-107781471D01*
X196503871Y-107876779D01*
X196442680Y-107996873D01*
X196441130Y-108006662D01*
X196441129Y-108006664D01*
X196423146Y-108120206D01*
X196421595Y-108129999D01*
X196442680Y-108263125D01*
X196503871Y-108383219D01*
X196599179Y-108478527D01*
X196719273Y-108539718D01*
X196729062Y-108541268D01*
X196729064Y-108541269D01*
X196842606Y-108559252D01*
X196852399Y-108560803D01*
X196862192Y-108559252D01*
X196975734Y-108541269D01*
X196975736Y-108541268D01*
X196985525Y-108539718D01*
X197105619Y-108478527D01*
X197200927Y-108383219D01*
X197207394Y-108370527D01*
X197207395Y-108370526D01*
X197211025Y-108366683D01*
X197211260Y-108366359D01*
X197211302Y-108366389D01*
X197256143Y-108318912D01*
X197325058Y-108301846D01*
X197392259Y-108324747D01*
X197431928Y-108370527D01*
X197433895Y-108374387D01*
X197463872Y-108433220D01*
X197559180Y-108528528D01*
X197568013Y-108533028D01*
X197568012Y-108533028D01*
X197572222Y-108535173D01*
X197623838Y-108583921D01*
X197640905Y-108652835D01*
X197618005Y-108720037D01*
X197604116Y-108736536D01*
X197513872Y-108826780D01*
X197452681Y-108946874D01*
X197431596Y-109080000D01*
X197452681Y-109213126D01*
X197513872Y-109333220D01*
X197609180Y-109428528D01*
X197729274Y-109489719D01*
X197739063Y-109491269D01*
X197739065Y-109491270D01*
X197852607Y-109509253D01*
X197862400Y-109510804D01*
X197872193Y-109509253D01*
X197985735Y-109491270D01*
X197985737Y-109491269D01*
X197995526Y-109489719D01*
X198115620Y-109428528D01*
X198117293Y-109431811D01*
X198166817Y-109414145D01*
X198235967Y-109430231D01*
X198285443Y-109481149D01*
X198300000Y-109539940D01*
X198300000Y-113106570D01*
X198279998Y-113174691D01*
X198226342Y-113221184D01*
X198195013Y-113230805D01*
X197883298Y-113283528D01*
X197883294Y-113283529D01*
X197879817Y-113284117D01*
X197876428Y-113285089D01*
X197876427Y-113285089D01*
X197806229Y-113305218D01*
X197535804Y-113382761D01*
X197419627Y-113430646D01*
X197208176Y-113517799D01*
X197208168Y-113517803D01*
X197204931Y-113519137D01*
X196891321Y-113691545D01*
X196598884Y-113897837D01*
X196331265Y-114135440D01*
X196091799Y-114401395D01*
X196089758Y-114404245D01*
X196089753Y-114404252D01*
X195885514Y-114689530D01*
X195883471Y-114692384D01*
X195708877Y-115004782D01*
X195570194Y-115334696D01*
X195469151Y-115678011D01*
X195407006Y-116030451D01*
X195384535Y-116387621D01*
X195402017Y-116745070D01*
X195459235Y-117098343D01*
X195555475Y-117443037D01*
X195689538Y-117774854D01*
X195859753Y-118089659D01*
X195861763Y-118092551D01*
X195937895Y-118202090D01*
X195960348Y-118269443D01*
X195942823Y-118338242D01*
X195890884Y-118386645D01*
X195834430Y-118400000D01*
X194626000Y-118400000D01*
X194557879Y-118379998D01*
X194511386Y-118326342D01*
X194500000Y-118274000D01*
X194500000Y-113438419D01*
X194520002Y-113370298D01*
X194573658Y-113323805D01*
X194606287Y-113313971D01*
X194623330Y-113311271D01*
X194623333Y-113311270D01*
X194633126Y-113309719D01*
X194753220Y-113248528D01*
X194848528Y-113153220D01*
X194909719Y-113033126D01*
X194930804Y-112900000D01*
X194909719Y-112766874D01*
X194848528Y-112646780D01*
X194753220Y-112551472D01*
X194676276Y-112512267D01*
X194624661Y-112463519D01*
X194607595Y-112394604D01*
X194630496Y-112327402D01*
X194676276Y-112287733D01*
X194744388Y-112253028D01*
X194744387Y-112253028D01*
X194753220Y-112248528D01*
X194848528Y-112153220D01*
X194909719Y-112033126D01*
X194930804Y-111900000D01*
X194909719Y-111766874D01*
X194848528Y-111646780D01*
X194753220Y-111551472D01*
X194633126Y-111490281D01*
X194623333Y-111488730D01*
X194623330Y-111488729D01*
X194606287Y-111486029D01*
X194542135Y-111455616D01*
X194504609Y-111395347D01*
X194500000Y-111361581D01*
X194500000Y-110394068D01*
X194520002Y-110325947D01*
X194573658Y-110279454D01*
X194643932Y-110269350D01*
X194683203Y-110281801D01*
X194732302Y-110306818D01*
X194796874Y-110339719D01*
X194806663Y-110341269D01*
X194806665Y-110341270D01*
X194920207Y-110359253D01*
X194930000Y-110360804D01*
X194939793Y-110359253D01*
X195053335Y-110341270D01*
X195053337Y-110341269D01*
X195063126Y-110339719D01*
X195183220Y-110278528D01*
X195278528Y-110183220D01*
X195339719Y-110063126D01*
X195360804Y-109930000D01*
X195339719Y-109796874D01*
X195278528Y-109676780D01*
X195183220Y-109581472D01*
X195063126Y-109520281D01*
X195053337Y-109518731D01*
X195053335Y-109518730D01*
X194939793Y-109500747D01*
X194930000Y-109499196D01*
X194920207Y-109500747D01*
X194806665Y-109518730D01*
X194806663Y-109518731D01*
X194796874Y-109520281D01*
X194758291Y-109539940D01*
X194683203Y-109578199D01*
X194613426Y-109591303D01*
X194547641Y-109564603D01*
X194506735Y-109506575D01*
X194500000Y-109465932D01*
X194500000Y-107078196D01*
X194520002Y-107010075D01*
X194573658Y-106963582D01*
X194643932Y-106953478D01*
X194685791Y-106970469D01*
X194686780Y-106968528D01*
X194806874Y-107029719D01*
X194816663Y-107031269D01*
X194816665Y-107031270D01*
X194930207Y-107049253D01*
X194940000Y-107050804D01*
X194949793Y-107049253D01*
X195063335Y-107031270D01*
X195063337Y-107031269D01*
X195073126Y-107029719D01*
X195193220Y-106968528D01*
X195288528Y-106873220D01*
X195349719Y-106753126D01*
X195370804Y-106620000D01*
X195349719Y-106486874D01*
X195288528Y-106366780D01*
X195193220Y-106271472D01*
X195073126Y-106210281D01*
X195063337Y-106208731D01*
X195063335Y-106208730D01*
X194949793Y-106190747D01*
X194940000Y-106189196D01*
X194930207Y-106190747D01*
X194816665Y-106208730D01*
X194816663Y-106208731D01*
X194806874Y-106210281D01*
X194686780Y-106271472D01*
X194685489Y-106268939D01*
X194633197Y-106287598D01*
X194564045Y-106271520D01*
X194514563Y-106220607D01*
X194500000Y-106161804D01*
X194500000Y-103935964D01*
X194520002Y-103867843D01*
X194573658Y-103821350D01*
X194643932Y-103811246D01*
X194683203Y-103823697D01*
X194734274Y-103849719D01*
X194744063Y-103851269D01*
X194744065Y-103851270D01*
X194857607Y-103869253D01*
X194867400Y-103870804D01*
X194877193Y-103869253D01*
X194990735Y-103851270D01*
X194990737Y-103851269D01*
X195000526Y-103849719D01*
X195120620Y-103788528D01*
X195215928Y-103693220D01*
X195277119Y-103573126D01*
X195298204Y-103440000D01*
X195277119Y-103306874D01*
X195215928Y-103186780D01*
X195120620Y-103091472D01*
X195000526Y-103030281D01*
X194990737Y-103028731D01*
X194990735Y-103028730D01*
X194877193Y-103010747D01*
X194867400Y-103009196D01*
X194857607Y-103010747D01*
X194744065Y-103028730D01*
X194744063Y-103028731D01*
X194734274Y-103030281D01*
X194709887Y-103042707D01*
X194683203Y-103056303D01*
X194613426Y-103069407D01*
X194547641Y-103042707D01*
X194506735Y-102984679D01*
X194500000Y-102944036D01*
X194500000Y-101526000D01*
X194520002Y-101457879D01*
X194573658Y-101411386D01*
X194626000Y-101400000D01*
X196327284Y-101400000D01*
X196395405Y-101420002D01*
G37*
%TD.AperFunction*%
%TD*%
%TA.AperFunction,Conductor*%
%TO.N,/LINE2*%
G36*
X168642121Y-101420002D02*
G01*
X168688614Y-101473658D01*
X168700000Y-101526000D01*
X168700000Y-112974000D01*
X168679998Y-113042121D01*
X168626342Y-113088614D01*
X168574000Y-113100000D01*
X165026000Y-113100000D01*
X164957879Y-113079998D01*
X164911386Y-113026342D01*
X164900000Y-112974000D01*
X164900000Y-101526000D01*
X164920002Y-101457879D01*
X164973658Y-101411386D01*
X165026000Y-101400000D01*
X168574000Y-101400000D01*
X168642121Y-101420002D01*
G37*
%TD.AperFunction*%
%TD*%
%TA.AperFunction,Conductor*%
%TO.N,/VSSA2*%
G36*
X172842121Y-101420002D02*
G01*
X172888614Y-101473658D01*
X172900000Y-101526000D01*
X172900000Y-101930161D01*
X172879998Y-101998282D01*
X172826342Y-102044775D01*
X172756068Y-102054879D01*
X172691488Y-102025385D01*
X172684905Y-102019256D01*
X172653220Y-101987571D01*
X172533126Y-101926380D01*
X172523337Y-101924830D01*
X172523335Y-101924829D01*
X172409793Y-101906846D01*
X172400000Y-101905295D01*
X172390207Y-101906846D01*
X172276665Y-101924829D01*
X172276663Y-101924830D01*
X172266874Y-101926380D01*
X172146780Y-101987571D01*
X172051472Y-102082879D01*
X171990281Y-102202973D01*
X171969196Y-102336099D01*
X171990281Y-102469225D01*
X172051472Y-102589319D01*
X172146780Y-102684627D01*
X172266874Y-102745818D01*
X172276663Y-102747368D01*
X172276665Y-102747369D01*
X172390207Y-102765352D01*
X172400000Y-102766903D01*
X172409793Y-102765352D01*
X172523335Y-102747369D01*
X172523337Y-102747368D01*
X172533126Y-102745818D01*
X172653220Y-102684627D01*
X172684905Y-102652942D01*
X172747217Y-102618916D01*
X172818032Y-102623981D01*
X172874868Y-102666528D01*
X172899679Y-102733048D01*
X172900000Y-102742037D01*
X172900000Y-108287675D01*
X172879998Y-108355796D01*
X172826342Y-108402289D01*
X172756068Y-108412393D01*
X172716796Y-108399941D01*
X172699014Y-108390880D01*
X172699010Y-108390879D01*
X172690179Y-108386379D01*
X172680390Y-108384829D01*
X172680388Y-108384828D01*
X172566846Y-108366845D01*
X172557053Y-108365294D01*
X172547260Y-108366845D01*
X172433718Y-108384828D01*
X172433716Y-108384829D01*
X172423927Y-108386379D01*
X172303833Y-108447570D01*
X172208525Y-108542878D01*
X172147334Y-108662972D01*
X172126249Y-108796098D01*
X172147334Y-108929224D01*
X172208525Y-109049318D01*
X172303833Y-109144626D01*
X172423927Y-109205817D01*
X172433716Y-109207367D01*
X172433718Y-109207368D01*
X172547260Y-109225351D01*
X172557053Y-109226902D01*
X172566846Y-109225351D01*
X172680388Y-109207368D01*
X172680390Y-109207367D01*
X172690179Y-109205817D01*
X172699010Y-109201317D01*
X172699014Y-109201316D01*
X172716796Y-109192255D01*
X172786572Y-109179150D01*
X172852357Y-109205849D01*
X172893264Y-109263876D01*
X172900000Y-109304521D01*
X172900000Y-112560109D01*
X172879998Y-112628230D01*
X172826342Y-112674723D01*
X172815626Y-112678895D01*
X172806874Y-112680281D01*
X172686780Y-112741472D01*
X172591472Y-112836780D01*
X172530281Y-112956874D01*
X172509196Y-113090000D01*
X172530281Y-113223126D01*
X172591472Y-113343220D01*
X172686780Y-113438528D01*
X172695613Y-113443029D01*
X172695615Y-113443030D01*
X172739658Y-113465471D01*
X172791274Y-113514219D01*
X172808340Y-113583134D01*
X172785440Y-113650335D01*
X172752192Y-113679146D01*
X172753640Y-113681139D01*
X172745612Y-113686972D01*
X172736780Y-113691472D01*
X172641472Y-113786780D01*
X172580281Y-113906874D01*
X172559196Y-114040000D01*
X172580281Y-114173126D01*
X172641472Y-114293220D01*
X172736780Y-114388528D01*
X172745613Y-114393028D01*
X172745612Y-114393028D01*
X172831203Y-114436639D01*
X172882818Y-114485387D01*
X172900000Y-114548906D01*
X172900000Y-114581094D01*
X172879998Y-114649215D01*
X172831203Y-114693361D01*
X172736780Y-114741472D01*
X172641472Y-114836780D01*
X172580281Y-114956874D01*
X172559196Y-115090000D01*
X172580281Y-115223126D01*
X172641472Y-115343220D01*
X172736780Y-115438528D01*
X172745613Y-115443028D01*
X172745612Y-115443028D01*
X172831203Y-115486639D01*
X172882818Y-115535387D01*
X172900000Y-115598906D01*
X172900000Y-118074000D01*
X172879998Y-118142121D01*
X172826342Y-118188614D01*
X172774000Y-118200000D01*
X171470837Y-118200000D01*
X171402716Y-118179998D01*
X171356223Y-118126342D01*
X171346119Y-118056068D01*
X171360849Y-118012530D01*
X171469404Y-117818293D01*
X171471123Y-117815218D01*
X171609806Y-117485304D01*
X171710849Y-117141989D01*
X171772994Y-116789549D01*
X171795465Y-116432379D01*
X171777983Y-116074930D01*
X171720765Y-115721657D01*
X171624525Y-115376963D01*
X171490462Y-115045146D01*
X171320247Y-114730341D01*
X171116002Y-114436471D01*
X171085296Y-114401395D01*
X170882592Y-114169848D01*
X170880273Y-114167199D01*
X170615997Y-113925882D01*
X170326469Y-113715528D01*
X170296465Y-113698483D01*
X170176408Y-113630281D01*
X170015297Y-113538757D01*
X169781444Y-113438528D01*
X169689592Y-113399160D01*
X169689588Y-113399159D01*
X169686360Y-113397775D01*
X169476413Y-113334388D01*
X169347134Y-113295356D01*
X169347129Y-113295355D01*
X169343758Y-113294337D01*
X169003254Y-113231843D01*
X168939864Y-113199874D01*
X168903821Y-113138707D01*
X168900000Y-113107914D01*
X168900000Y-110734507D01*
X168920002Y-110666386D01*
X168973658Y-110619893D01*
X169043932Y-110609789D01*
X169108512Y-110639283D01*
X169138267Y-110677304D01*
X169151472Y-110703220D01*
X169246780Y-110798528D01*
X169366874Y-110859719D01*
X169376663Y-110861269D01*
X169376665Y-110861270D01*
X169490207Y-110879253D01*
X169500000Y-110880804D01*
X169509793Y-110879253D01*
X169623335Y-110861270D01*
X169623337Y-110861269D01*
X169633126Y-110859719D01*
X169753220Y-110798528D01*
X169848528Y-110703220D01*
X169880233Y-110640996D01*
X169928981Y-110589380D01*
X169997896Y-110572314D01*
X170065098Y-110595214D01*
X170104767Y-110640996D01*
X170136472Y-110703220D01*
X170231780Y-110798528D01*
X170351874Y-110859719D01*
X170361663Y-110861269D01*
X170361665Y-110861270D01*
X170475207Y-110879253D01*
X170485000Y-110880804D01*
X170494793Y-110879253D01*
X170608335Y-110861270D01*
X170608337Y-110861269D01*
X170618126Y-110859719D01*
X170738220Y-110798528D01*
X170833528Y-110703220D01*
X170894719Y-110583126D01*
X170896432Y-110572314D01*
X170914253Y-110459793D01*
X170915804Y-110450000D01*
X170914253Y-110440207D01*
X170896270Y-110326665D01*
X170896269Y-110326663D01*
X170894719Y-110316874D01*
X170833528Y-110196780D01*
X170738220Y-110101472D01*
X170618126Y-110040281D01*
X170608337Y-110038731D01*
X170608335Y-110038730D01*
X170494793Y-110020747D01*
X170485000Y-110019196D01*
X170475207Y-110020747D01*
X170361665Y-110038730D01*
X170361663Y-110038731D01*
X170351874Y-110040281D01*
X170231780Y-110101472D01*
X170136472Y-110196780D01*
X170131972Y-110205612D01*
X170131970Y-110205615D01*
X170104767Y-110259004D01*
X170056019Y-110310620D01*
X169987104Y-110327686D01*
X169919902Y-110304786D01*
X169880233Y-110259004D01*
X169853030Y-110205615D01*
X169853028Y-110205612D01*
X169848528Y-110196780D01*
X169753220Y-110101472D01*
X169725341Y-110087267D01*
X169673726Y-110038519D01*
X169656660Y-109969604D01*
X169679561Y-109902402D01*
X169725341Y-109862733D01*
X169744388Y-109853028D01*
X169744387Y-109853028D01*
X169753220Y-109848528D01*
X169848528Y-109753220D01*
X169909719Y-109633126D01*
X169930804Y-109500000D01*
X169909719Y-109366874D01*
X169848528Y-109246780D01*
X169753220Y-109151472D01*
X169633126Y-109090281D01*
X169623337Y-109088731D01*
X169623335Y-109088730D01*
X169509793Y-109070747D01*
X169500000Y-109069196D01*
X169490207Y-109070747D01*
X169376665Y-109088730D01*
X169376663Y-109088731D01*
X169366874Y-109090281D01*
X169246780Y-109151472D01*
X169151472Y-109246780D01*
X169143270Y-109262878D01*
X169138267Y-109272696D01*
X169089518Y-109324311D01*
X169020603Y-109341377D01*
X168953402Y-109318476D01*
X168909250Y-109262878D01*
X168900000Y-109215493D01*
X168900000Y-107484507D01*
X168920002Y-107416386D01*
X168973658Y-107369893D01*
X169043932Y-107359789D01*
X169108512Y-107389283D01*
X169138267Y-107427304D01*
X169151472Y-107453220D01*
X169246780Y-107548528D01*
X169366874Y-107609719D01*
X169376663Y-107611269D01*
X169376665Y-107611270D01*
X169490207Y-107629253D01*
X169500000Y-107630804D01*
X169509793Y-107629253D01*
X169623335Y-107611270D01*
X169623337Y-107611269D01*
X169633126Y-107609719D01*
X169753220Y-107548528D01*
X169848528Y-107453220D01*
X169853029Y-107444387D01*
X169853030Y-107444386D01*
X169877685Y-107395996D01*
X169926432Y-107344380D01*
X169995347Y-107327314D01*
X170062549Y-107350214D01*
X170102219Y-107395995D01*
X170136472Y-107463220D01*
X170231780Y-107558528D01*
X170351874Y-107619719D01*
X170361663Y-107621269D01*
X170361665Y-107621270D01*
X170475207Y-107639253D01*
X170485000Y-107640804D01*
X170494793Y-107639253D01*
X170608335Y-107621270D01*
X170608337Y-107621269D01*
X170618126Y-107619719D01*
X170738220Y-107558528D01*
X170833528Y-107463220D01*
X170894719Y-107343126D01*
X170897224Y-107327314D01*
X170914253Y-107219793D01*
X170915804Y-107210000D01*
X170894719Y-107076874D01*
X170833528Y-106956780D01*
X170738220Y-106861472D01*
X170618126Y-106800281D01*
X170608337Y-106798731D01*
X170608335Y-106798730D01*
X170494793Y-106780747D01*
X170485000Y-106779196D01*
X170475207Y-106780747D01*
X170361665Y-106798730D01*
X170361663Y-106798731D01*
X170351874Y-106800281D01*
X170231780Y-106861472D01*
X170136472Y-106956780D01*
X170131973Y-106965610D01*
X170131970Y-106965614D01*
X170107315Y-107014004D01*
X170058568Y-107065620D01*
X169989653Y-107082686D01*
X169922451Y-107059786D01*
X169882781Y-107014005D01*
X169877988Y-107004598D01*
X169848528Y-106946780D01*
X169753220Y-106851472D01*
X169744387Y-106846971D01*
X169744385Y-106846970D01*
X169707054Y-106827949D01*
X169655438Y-106779201D01*
X169638372Y-106710286D01*
X169661272Y-106643085D01*
X169675161Y-106626587D01*
X169748528Y-106553220D01*
X169809719Y-106433126D01*
X169830804Y-106300000D01*
X169809719Y-106166874D01*
X169748528Y-106046780D01*
X169653220Y-105951472D01*
X169533126Y-105890281D01*
X169523337Y-105888731D01*
X169523335Y-105888730D01*
X169409793Y-105870747D01*
X169400000Y-105869196D01*
X169390207Y-105870747D01*
X169276665Y-105888730D01*
X169276663Y-105888731D01*
X169266874Y-105890281D01*
X169146780Y-105951472D01*
X169115095Y-105983157D01*
X169052783Y-106017183D01*
X168981968Y-106012118D01*
X168925132Y-105969571D01*
X168900321Y-105903051D01*
X168900000Y-105894062D01*
X168900000Y-105350000D01*
X171719196Y-105350000D01*
X171740281Y-105483126D01*
X171801472Y-105603220D01*
X171896780Y-105698528D01*
X172016874Y-105759719D01*
X172026663Y-105761269D01*
X172026665Y-105761270D01*
X172140207Y-105779253D01*
X172150000Y-105780804D01*
X172159793Y-105779253D01*
X172273335Y-105761270D01*
X172273337Y-105761269D01*
X172283126Y-105759719D01*
X172403220Y-105698528D01*
X172498528Y-105603220D01*
X172559719Y-105483126D01*
X172580804Y-105350000D01*
X172559719Y-105216874D01*
X172498528Y-105096780D01*
X172403220Y-105001472D01*
X172283126Y-104940281D01*
X172273337Y-104938731D01*
X172273335Y-104938730D01*
X172159793Y-104920747D01*
X172150000Y-104919196D01*
X172140207Y-104920747D01*
X172026665Y-104938730D01*
X172026663Y-104938731D01*
X172016874Y-104940281D01*
X171896780Y-105001472D01*
X171801472Y-105096780D01*
X171740281Y-105216874D01*
X171719196Y-105350000D01*
X168900000Y-105350000D01*
X168900000Y-104284507D01*
X168920002Y-104216386D01*
X168973658Y-104169893D01*
X169043932Y-104159789D01*
X169108512Y-104189283D01*
X169138267Y-104227304D01*
X169151472Y-104253220D01*
X169246780Y-104348528D01*
X169366874Y-104409719D01*
X169376663Y-104411269D01*
X169376665Y-104411270D01*
X169490207Y-104429253D01*
X169500000Y-104430804D01*
X169509793Y-104429253D01*
X169623335Y-104411270D01*
X169623337Y-104411269D01*
X169633126Y-104409719D01*
X169753220Y-104348528D01*
X169848528Y-104253220D01*
X169887733Y-104176276D01*
X169936481Y-104124661D01*
X170005396Y-104107595D01*
X170072598Y-104130496D01*
X170112267Y-104176276D01*
X170151472Y-104253220D01*
X170246780Y-104348528D01*
X170366874Y-104409719D01*
X170376663Y-104411269D01*
X170376665Y-104411270D01*
X170490207Y-104429253D01*
X170500000Y-104430804D01*
X170509793Y-104429253D01*
X170623335Y-104411270D01*
X170623337Y-104411269D01*
X170633126Y-104409719D01*
X170753220Y-104348528D01*
X170848528Y-104253220D01*
X170909719Y-104133126D01*
X170930804Y-104000000D01*
X170909719Y-103866874D01*
X170848528Y-103746780D01*
X170753220Y-103651472D01*
X170633126Y-103590281D01*
X170623337Y-103588731D01*
X170623335Y-103588730D01*
X170509793Y-103570747D01*
X170500000Y-103569196D01*
X170490207Y-103570747D01*
X170376665Y-103588730D01*
X170376663Y-103588731D01*
X170366874Y-103590281D01*
X170246780Y-103651472D01*
X170151472Y-103746780D01*
X170146972Y-103755612D01*
X170112267Y-103823724D01*
X170063519Y-103875339D01*
X169994604Y-103892405D01*
X169927402Y-103869504D01*
X169887733Y-103823724D01*
X169853028Y-103755612D01*
X169848528Y-103746780D01*
X169753220Y-103651472D01*
X169633126Y-103590281D01*
X169633853Y-103588855D01*
X169584424Y-103555059D01*
X169556785Y-103489663D01*
X169568889Y-103419706D01*
X169616894Y-103367398D01*
X169624760Y-103363029D01*
X169644388Y-103353028D01*
X169644387Y-103353028D01*
X169653220Y-103348528D01*
X169748528Y-103253220D01*
X169809719Y-103133126D01*
X169830804Y-103000000D01*
X169809719Y-102866874D01*
X169748528Y-102746780D01*
X169653220Y-102651472D01*
X169533126Y-102590281D01*
X169523337Y-102588731D01*
X169523335Y-102588730D01*
X169409793Y-102570747D01*
X169400000Y-102569196D01*
X169390207Y-102570747D01*
X169276665Y-102588730D01*
X169276663Y-102588731D01*
X169266874Y-102590281D01*
X169146780Y-102651472D01*
X169115095Y-102683157D01*
X169052783Y-102717183D01*
X168981968Y-102712118D01*
X168925132Y-102669571D01*
X168900321Y-102603051D01*
X168900000Y-102594062D01*
X168900000Y-101526000D01*
X168920002Y-101457879D01*
X168973658Y-101411386D01*
X169026000Y-101400000D01*
X172774000Y-101400000D01*
X172842121Y-101420002D01*
G37*
%TD.AperFunction*%
%TD*%
%TA.AperFunction,Conductor*%
%TO.N,VSSA*%
G36*
X172842121Y-85020002D02*
G01*
X172888614Y-85073658D01*
X172900000Y-85126000D01*
X172900000Y-90411206D01*
X172879998Y-90479327D01*
X172826342Y-90525820D01*
X172756068Y-90535924D01*
X172716796Y-90523472D01*
X172714461Y-90522282D01*
X172714457Y-90522281D01*
X172705626Y-90517781D01*
X172695837Y-90516231D01*
X172695835Y-90516230D01*
X172582293Y-90498247D01*
X172572500Y-90496696D01*
X172562707Y-90498247D01*
X172449165Y-90516230D01*
X172449163Y-90516231D01*
X172439374Y-90517781D01*
X172319280Y-90578972D01*
X172223972Y-90674280D01*
X172221621Y-90671929D01*
X172179000Y-90704800D01*
X172108265Y-90710882D01*
X172045470Y-90677755D01*
X172021009Y-90644592D01*
X171991146Y-90585983D01*
X171963528Y-90531780D01*
X171868220Y-90436472D01*
X171859390Y-90431973D01*
X171859386Y-90431970D01*
X171798496Y-90400946D01*
X171746880Y-90352199D01*
X171729814Y-90283284D01*
X171752714Y-90216082D01*
X171798495Y-90176412D01*
X171809257Y-90170928D01*
X171853220Y-90148528D01*
X171948528Y-90053220D01*
X172009719Y-89933126D01*
X172030804Y-89800000D01*
X172009719Y-89666874D01*
X171948528Y-89546780D01*
X171853220Y-89451472D01*
X171733126Y-89390281D01*
X171723337Y-89388731D01*
X171723335Y-89388730D01*
X171609793Y-89370747D01*
X171600000Y-89369196D01*
X171590207Y-89370747D01*
X171476665Y-89388730D01*
X171476663Y-89388731D01*
X171466874Y-89390281D01*
X171346780Y-89451472D01*
X171251472Y-89546780D01*
X171190281Y-89666874D01*
X171169196Y-89800000D01*
X171190281Y-89933126D01*
X171251472Y-90053220D01*
X171346780Y-90148528D01*
X171355610Y-90153027D01*
X171355614Y-90153030D01*
X171416504Y-90184054D01*
X171468120Y-90232801D01*
X171485186Y-90301716D01*
X171462286Y-90368918D01*
X171416504Y-90408588D01*
X171361780Y-90436472D01*
X171266472Y-90531780D01*
X171205281Y-90651874D01*
X171203731Y-90661663D01*
X171203730Y-90661665D01*
X171201732Y-90674280D01*
X171184196Y-90785000D01*
X171205281Y-90918126D01*
X171266472Y-91038220D01*
X171361780Y-91133528D01*
X171481874Y-91194719D01*
X171491663Y-91196269D01*
X171491665Y-91196270D01*
X171605207Y-91214253D01*
X171615000Y-91215804D01*
X171624793Y-91214253D01*
X171738335Y-91196270D01*
X171738337Y-91196269D01*
X171748126Y-91194719D01*
X171868220Y-91133528D01*
X171963528Y-91038220D01*
X171965879Y-91040571D01*
X172008500Y-91007700D01*
X172079235Y-91001618D01*
X172142030Y-91034745D01*
X172166491Y-91067908D01*
X172223972Y-91180720D01*
X172319280Y-91276028D01*
X172439374Y-91337219D01*
X172449163Y-91338769D01*
X172449165Y-91338770D01*
X172562707Y-91356753D01*
X172572500Y-91358304D01*
X172582293Y-91356753D01*
X172695835Y-91338770D01*
X172695837Y-91338769D01*
X172705626Y-91337219D01*
X172714457Y-91332719D01*
X172714461Y-91332718D01*
X172716796Y-91331528D01*
X172719939Y-91330938D01*
X172723893Y-91329653D01*
X172724059Y-91330164D01*
X172786573Y-91318423D01*
X172852358Y-91345123D01*
X172893265Y-91403150D01*
X172900000Y-91443794D01*
X172900000Y-98646828D01*
X172879998Y-98714949D01*
X172826342Y-98761442D01*
X172756068Y-98771546D01*
X172691488Y-98742052D01*
X172684905Y-98735923D01*
X172653220Y-98704238D01*
X172533126Y-98643047D01*
X172523337Y-98641497D01*
X172523335Y-98641496D01*
X172409793Y-98623513D01*
X172400000Y-98621962D01*
X172390207Y-98623513D01*
X172276665Y-98641496D01*
X172276663Y-98641497D01*
X172266874Y-98643047D01*
X172146780Y-98704238D01*
X172051472Y-98799546D01*
X171990281Y-98919640D01*
X171969196Y-99052766D01*
X171990281Y-99185892D01*
X172051472Y-99305986D01*
X172146780Y-99401294D01*
X172266874Y-99462485D01*
X172276663Y-99464035D01*
X172276665Y-99464036D01*
X172390207Y-99482019D01*
X172400000Y-99483570D01*
X172409793Y-99482019D01*
X172523335Y-99464036D01*
X172523337Y-99464035D01*
X172533126Y-99462485D01*
X172653220Y-99401294D01*
X172684905Y-99369609D01*
X172747217Y-99335583D01*
X172818032Y-99340648D01*
X172874868Y-99383195D01*
X172899679Y-99449715D01*
X172900000Y-99458704D01*
X172900000Y-101074000D01*
X172879998Y-101142121D01*
X172826342Y-101188614D01*
X172774000Y-101200000D01*
X170928666Y-101200000D01*
X170860545Y-101179998D01*
X170814052Y-101126342D01*
X170803948Y-101056068D01*
X170826675Y-101000075D01*
X170833528Y-100993222D01*
X170894719Y-100873128D01*
X170896897Y-100859381D01*
X170914253Y-100749795D01*
X170915804Y-100740002D01*
X170894719Y-100606876D01*
X170833528Y-100486782D01*
X170738220Y-100391474D01*
X170618126Y-100330283D01*
X170608337Y-100328733D01*
X170608335Y-100328732D01*
X170494793Y-100310749D01*
X170485000Y-100309198D01*
X170475207Y-100310749D01*
X170361665Y-100328732D01*
X170361663Y-100328733D01*
X170351874Y-100330283D01*
X170231780Y-100391474D01*
X170136472Y-100486782D01*
X170131972Y-100495614D01*
X170131970Y-100495617D01*
X170114958Y-100529005D01*
X170066210Y-100580621D01*
X169997295Y-100597687D01*
X169930094Y-100574787D01*
X169890424Y-100529006D01*
X169890424Y-100529005D01*
X169848528Y-100446780D01*
X169753220Y-100351472D01*
X169744387Y-100346971D01*
X169744385Y-100346970D01*
X169707054Y-100327949D01*
X169655438Y-100279201D01*
X169638372Y-100210286D01*
X169661272Y-100143085D01*
X169675161Y-100126587D01*
X169748528Y-100053220D01*
X169809719Y-99933126D01*
X169830804Y-99800000D01*
X169809719Y-99666874D01*
X169748528Y-99546780D01*
X169653220Y-99451472D01*
X169533126Y-99390281D01*
X169523337Y-99388731D01*
X169523335Y-99388730D01*
X169409793Y-99370747D01*
X169400000Y-99369196D01*
X169390207Y-99370747D01*
X169276665Y-99388730D01*
X169276663Y-99388731D01*
X169266874Y-99390281D01*
X169146780Y-99451472D01*
X169115095Y-99483157D01*
X169052783Y-99517183D01*
X168981968Y-99512118D01*
X168925132Y-99469571D01*
X168900321Y-99403051D01*
X168900000Y-99394062D01*
X168900000Y-97884507D01*
X168920002Y-97816386D01*
X168973658Y-97769893D01*
X169043932Y-97759789D01*
X169108512Y-97789283D01*
X169138267Y-97827304D01*
X169151472Y-97853220D01*
X169246780Y-97948528D01*
X169366874Y-98009719D01*
X169376663Y-98011269D01*
X169376665Y-98011270D01*
X169490207Y-98029253D01*
X169500000Y-98030804D01*
X169509793Y-98029253D01*
X169623335Y-98011270D01*
X169623337Y-98011269D01*
X169633126Y-98009719D01*
X169753220Y-97948528D01*
X169848528Y-97853220D01*
X169887733Y-97776276D01*
X169936481Y-97724661D01*
X170005396Y-97707595D01*
X170072598Y-97730496D01*
X170112267Y-97776276D01*
X170151472Y-97853220D01*
X170246780Y-97948528D01*
X170366874Y-98009719D01*
X170376663Y-98011269D01*
X170376665Y-98011270D01*
X170490207Y-98029253D01*
X170500000Y-98030804D01*
X170509793Y-98029253D01*
X170623335Y-98011270D01*
X170623337Y-98011269D01*
X170633126Y-98009719D01*
X170753220Y-97948528D01*
X170848528Y-97853220D01*
X170909719Y-97733126D01*
X170930804Y-97600000D01*
X170909719Y-97466874D01*
X170848528Y-97346780D01*
X170753220Y-97251472D01*
X170633126Y-97190281D01*
X170623337Y-97188731D01*
X170623335Y-97188730D01*
X170509793Y-97170747D01*
X170500000Y-97169196D01*
X170490207Y-97170747D01*
X170376665Y-97188730D01*
X170376663Y-97188731D01*
X170366874Y-97190281D01*
X170246780Y-97251472D01*
X170151472Y-97346780D01*
X170146972Y-97355612D01*
X170112267Y-97423724D01*
X170063519Y-97475339D01*
X169994604Y-97492405D01*
X169927402Y-97469504D01*
X169887733Y-97423724D01*
X169853028Y-97355612D01*
X169848528Y-97346780D01*
X169753220Y-97251472D01*
X169633126Y-97190281D01*
X169623337Y-97188731D01*
X169623335Y-97188730D01*
X169509793Y-97170747D01*
X169500000Y-97169196D01*
X169490207Y-97170747D01*
X169486044Y-97170747D01*
X169466698Y-97165067D01*
X169449454Y-97176149D01*
X169433667Y-97179702D01*
X169376665Y-97188730D01*
X169376663Y-97188731D01*
X169366874Y-97190281D01*
X169246780Y-97251472D01*
X169151472Y-97346780D01*
X169143270Y-97362878D01*
X169138267Y-97372696D01*
X169089518Y-97424311D01*
X169020603Y-97441377D01*
X168953402Y-97418476D01*
X168909250Y-97362878D01*
X168900000Y-97315493D01*
X168900000Y-96905938D01*
X168920002Y-96837817D01*
X168973658Y-96791324D01*
X169043932Y-96781220D01*
X169108512Y-96810714D01*
X169115095Y-96816843D01*
X169146780Y-96848528D01*
X169266874Y-96909719D01*
X169276663Y-96911269D01*
X169276665Y-96911270D01*
X169356100Y-96923851D01*
X169400000Y-96930804D01*
X169409793Y-96929253D01*
X169413956Y-96929253D01*
X169433302Y-96934933D01*
X169450546Y-96923851D01*
X169466333Y-96920298D01*
X169523335Y-96911270D01*
X169523337Y-96911269D01*
X169533126Y-96909719D01*
X169653220Y-96848528D01*
X169748528Y-96753220D01*
X169809719Y-96633126D01*
X169830804Y-96500000D01*
X169809719Y-96366874D01*
X169748528Y-96246780D01*
X169653220Y-96151472D01*
X169533126Y-96090281D01*
X169523337Y-96088731D01*
X169523335Y-96088730D01*
X169409793Y-96070747D01*
X169400000Y-96069196D01*
X169390207Y-96070747D01*
X169276665Y-96088730D01*
X169276663Y-96088731D01*
X169266874Y-96090281D01*
X169146780Y-96151472D01*
X169115095Y-96183157D01*
X169052783Y-96217183D01*
X168981968Y-96212118D01*
X168925132Y-96169571D01*
X168900321Y-96103051D01*
X168900000Y-96094062D01*
X168900000Y-95600000D01*
X171769196Y-95600000D01*
X171790281Y-95733126D01*
X171851472Y-95853220D01*
X171946780Y-95948528D01*
X172066874Y-96009719D01*
X172076663Y-96011269D01*
X172076665Y-96011270D01*
X172190207Y-96029253D01*
X172200000Y-96030804D01*
X172209793Y-96029253D01*
X172323335Y-96011270D01*
X172323337Y-96011269D01*
X172333126Y-96009719D01*
X172453220Y-95948528D01*
X172548528Y-95853220D01*
X172609719Y-95733126D01*
X172630804Y-95600000D01*
X172609719Y-95466874D01*
X172548528Y-95346780D01*
X172453220Y-95251472D01*
X172333126Y-95190281D01*
X172323337Y-95188731D01*
X172323335Y-95188730D01*
X172209793Y-95170747D01*
X172200000Y-95169196D01*
X172190207Y-95170747D01*
X172076665Y-95188730D01*
X172076663Y-95188731D01*
X172066874Y-95190281D01*
X171946780Y-95251472D01*
X171851472Y-95346780D01*
X171790281Y-95466874D01*
X171769196Y-95600000D01*
X168900000Y-95600000D01*
X168900000Y-94484507D01*
X168920002Y-94416386D01*
X168973658Y-94369893D01*
X169043932Y-94359789D01*
X169108512Y-94389283D01*
X169138267Y-94427304D01*
X169151472Y-94453220D01*
X169246780Y-94548528D01*
X169366874Y-94609719D01*
X169376663Y-94611269D01*
X169376665Y-94611270D01*
X169490207Y-94629253D01*
X169500000Y-94630804D01*
X169509793Y-94629253D01*
X169623335Y-94611270D01*
X169623337Y-94611269D01*
X169633126Y-94609719D01*
X169753220Y-94548528D01*
X169848528Y-94453220D01*
X169896649Y-94358777D01*
X169945397Y-94307162D01*
X170014312Y-94290096D01*
X170081514Y-94312997D01*
X170121183Y-94358777D01*
X170151472Y-94418222D01*
X170246780Y-94513530D01*
X170366874Y-94574721D01*
X170376663Y-94576271D01*
X170376665Y-94576272D01*
X170490207Y-94594255D01*
X170500000Y-94595806D01*
X170509793Y-94594255D01*
X170623335Y-94576272D01*
X170623337Y-94576271D01*
X170633126Y-94574721D01*
X170753220Y-94513530D01*
X170848528Y-94418222D01*
X170909719Y-94298128D01*
X170930804Y-94165002D01*
X170915262Y-94066874D01*
X170911270Y-94041667D01*
X170911269Y-94041665D01*
X170909719Y-94031876D01*
X170848528Y-93911782D01*
X170753220Y-93816474D01*
X170633126Y-93755283D01*
X170623337Y-93753733D01*
X170623335Y-93753732D01*
X170509793Y-93735749D01*
X170500000Y-93734198D01*
X170490207Y-93735749D01*
X170376665Y-93753732D01*
X170376663Y-93753733D01*
X170366874Y-93755283D01*
X170246780Y-93816474D01*
X170151472Y-93911782D01*
X170146972Y-93920614D01*
X170103351Y-94006225D01*
X170054603Y-94057840D01*
X169985688Y-94074906D01*
X169918486Y-94052005D01*
X169878817Y-94006225D01*
X169856730Y-93962878D01*
X169848528Y-93946780D01*
X169753220Y-93851472D01*
X169676276Y-93812267D01*
X169624661Y-93763519D01*
X169607595Y-93694604D01*
X169630496Y-93627402D01*
X169676276Y-93587733D01*
X169744388Y-93553028D01*
X169744387Y-93553028D01*
X169753220Y-93548528D01*
X169848528Y-93453220D01*
X169909719Y-93333126D01*
X169930804Y-93200000D01*
X169909719Y-93066874D01*
X169848528Y-92946780D01*
X169753220Y-92851472D01*
X169633126Y-92790281D01*
X169623337Y-92788731D01*
X169623335Y-92788730D01*
X169509793Y-92770747D01*
X169500000Y-92769196D01*
X169490207Y-92770747D01*
X169376665Y-92788730D01*
X169376663Y-92788731D01*
X169366874Y-92790281D01*
X169246780Y-92851472D01*
X169151472Y-92946780D01*
X169143270Y-92962878D01*
X169138267Y-92972696D01*
X169089518Y-93024311D01*
X169020603Y-93041377D01*
X168953402Y-93018476D01*
X168909250Y-92962878D01*
X168900000Y-92915493D01*
X168900000Y-92300000D01*
X171569196Y-92300000D01*
X171590281Y-92433126D01*
X171651472Y-92553220D01*
X171746780Y-92648528D01*
X171866874Y-92709719D01*
X171876663Y-92711269D01*
X171876665Y-92711270D01*
X171990207Y-92729253D01*
X172000000Y-92730804D01*
X172009793Y-92729253D01*
X172123335Y-92711270D01*
X172123337Y-92711269D01*
X172133126Y-92709719D01*
X172253220Y-92648528D01*
X172348528Y-92553220D01*
X172409719Y-92433126D01*
X172430804Y-92300000D01*
X172409719Y-92166874D01*
X172348528Y-92046780D01*
X172253220Y-91951472D01*
X172133126Y-91890281D01*
X172123337Y-91888731D01*
X172123335Y-91888730D01*
X172009793Y-91870747D01*
X172000000Y-91869196D01*
X171990207Y-91870747D01*
X171876665Y-91888730D01*
X171876663Y-91888731D01*
X171866874Y-91890281D01*
X171746780Y-91951472D01*
X171651472Y-92046780D01*
X171590281Y-92166874D01*
X171569196Y-92300000D01*
X168900000Y-92300000D01*
X168900000Y-89710047D01*
X168920002Y-89641926D01*
X168973658Y-89595433D01*
X169004987Y-89585812D01*
X169296702Y-89536472D01*
X169296706Y-89536471D01*
X169300183Y-89535883D01*
X169335825Y-89525663D01*
X169570109Y-89458483D01*
X169644196Y-89437239D01*
X169809281Y-89369196D01*
X169971824Y-89302201D01*
X169971832Y-89302197D01*
X169975069Y-89300863D01*
X170288679Y-89128455D01*
X170581116Y-88922163D01*
X170848735Y-88684560D01*
X171088201Y-88418605D01*
X171090242Y-88415755D01*
X171090247Y-88415748D01*
X171294486Y-88130470D01*
X171294488Y-88130467D01*
X171296529Y-88127616D01*
X171471123Y-87815218D01*
X171609806Y-87485304D01*
X171710849Y-87141989D01*
X171772994Y-86789549D01*
X171795465Y-86432379D01*
X171777983Y-86074930D01*
X171720765Y-85721657D01*
X171624525Y-85376963D01*
X171607448Y-85334696D01*
X171542200Y-85173200D01*
X171535227Y-85102547D01*
X171567559Y-85039340D01*
X171628931Y-85003647D01*
X171659025Y-85000000D01*
X172774000Y-85000000D01*
X172842121Y-85020002D01*
G37*
%TD.AperFunction*%
%TD*%
%TA.AperFunction,Conductor*%
%TO.N,/VBias*%
G36*
X185382121Y-84740002D02*
G01*
X185428614Y-84793658D01*
X185440000Y-84846000D01*
X185440000Y-89217643D01*
X185426267Y-89274846D01*
X185374281Y-89376874D01*
X185353196Y-89510000D01*
X185374281Y-89643126D01*
X185378782Y-89651959D01*
X185426267Y-89745154D01*
X185440000Y-89802357D01*
X185440000Y-94843094D01*
X185419998Y-94911215D01*
X185371203Y-94955361D01*
X185276780Y-95003472D01*
X185181472Y-95098780D01*
X185120281Y-95218874D01*
X185099196Y-95352000D01*
X185120281Y-95485126D01*
X185181472Y-95605220D01*
X185276780Y-95700528D01*
X185285613Y-95705028D01*
X185285612Y-95705028D01*
X185371203Y-95748639D01*
X185422818Y-95797387D01*
X185440000Y-95860906D01*
X185440000Y-97884000D01*
X185419998Y-97952121D01*
X185366342Y-97998614D01*
X185314000Y-98010000D01*
X182206000Y-98010000D01*
X182137879Y-97989998D01*
X182091386Y-97936342D01*
X182080000Y-97884000D01*
X182080000Y-92400000D01*
X182569196Y-92400000D01*
X182590281Y-92533126D01*
X182651472Y-92653220D01*
X182746780Y-92748528D01*
X182866874Y-92809719D01*
X182876663Y-92811269D01*
X182876665Y-92811270D01*
X182990207Y-92829253D01*
X183000000Y-92830804D01*
X183009793Y-92829253D01*
X183123335Y-92811270D01*
X183123337Y-92811269D01*
X183133126Y-92809719D01*
X183253220Y-92748528D01*
X183348528Y-92653220D01*
X183409719Y-92533126D01*
X183430804Y-92400000D01*
X183409719Y-92266874D01*
X183348528Y-92146780D01*
X183253220Y-92051472D01*
X183133126Y-91990281D01*
X183123337Y-91988731D01*
X183123335Y-91988730D01*
X183009793Y-91970747D01*
X183000000Y-91969196D01*
X182990207Y-91970747D01*
X182876665Y-91988730D01*
X182876663Y-91988731D01*
X182866874Y-91990281D01*
X182746780Y-92051472D01*
X182651472Y-92146780D01*
X182590281Y-92266874D01*
X182569196Y-92400000D01*
X182080000Y-92400000D01*
X182080000Y-84846000D01*
X182100002Y-84777879D01*
X182153658Y-84731386D01*
X182206000Y-84720000D01*
X185314000Y-84720000D01*
X185382121Y-84740002D01*
G37*
%TD.AperFunction*%
%TD*%
%TA.AperFunction,Conductor*%
%TO.N,/VDDA2*%
G36*
X193316168Y-101420002D02*
G01*
X193362661Y-101473658D01*
X193372765Y-101543932D01*
X193360315Y-101583201D01*
X193317681Y-101666874D01*
X193296596Y-101800000D01*
X193317681Y-101933126D01*
X193378872Y-102053220D01*
X193474180Y-102148528D01*
X193594274Y-102209719D01*
X193604063Y-102211269D01*
X193604065Y-102211270D01*
X193717607Y-102229253D01*
X193727400Y-102230804D01*
X193737193Y-102229253D01*
X193850735Y-102211270D01*
X193850737Y-102211269D01*
X193860526Y-102209719D01*
X193980620Y-102148528D01*
X194048905Y-102080243D01*
X194111217Y-102046217D01*
X194182032Y-102051282D01*
X194238868Y-102093829D01*
X194263679Y-102160349D01*
X194264000Y-102169338D01*
X194264000Y-104732222D01*
X194243998Y-104800343D01*
X194190342Y-104846836D01*
X194120068Y-104856940D01*
X194055488Y-104827446D01*
X194025733Y-104789425D01*
X193983028Y-104705612D01*
X193978528Y-104696780D01*
X193883220Y-104601472D01*
X193763126Y-104540281D01*
X193753337Y-104538731D01*
X193753335Y-104538730D01*
X193639793Y-104520747D01*
X193630000Y-104519196D01*
X193620207Y-104520747D01*
X193506665Y-104538730D01*
X193506663Y-104538731D01*
X193496874Y-104540281D01*
X193376780Y-104601472D01*
X193281472Y-104696780D01*
X193220281Y-104816874D01*
X193218731Y-104826663D01*
X193218730Y-104826665D01*
X193213935Y-104856940D01*
X193199196Y-104950000D01*
X193200747Y-104959793D01*
X193217378Y-105064795D01*
X193220281Y-105083126D01*
X193281472Y-105203220D01*
X193376780Y-105298528D01*
X193496874Y-105359719D01*
X193506663Y-105361269D01*
X193506665Y-105361270D01*
X193620207Y-105379253D01*
X193630000Y-105380804D01*
X193639793Y-105379253D01*
X193753335Y-105361270D01*
X193753337Y-105361269D01*
X193763126Y-105359719D01*
X193883220Y-105298528D01*
X193978528Y-105203220D01*
X194025733Y-105110575D01*
X194074481Y-105058960D01*
X194143396Y-105041894D01*
X194210598Y-105064795D01*
X194254750Y-105120392D01*
X194264000Y-105167778D01*
X194264000Y-107807970D01*
X194243998Y-107876091D01*
X194190342Y-107922584D01*
X194120068Y-107932688D01*
X194080797Y-107920237D01*
X194022116Y-107890338D01*
X193963126Y-107860281D01*
X193953337Y-107858731D01*
X193953335Y-107858730D01*
X193839793Y-107840747D01*
X193830000Y-107839196D01*
X193820207Y-107840747D01*
X193706665Y-107858730D01*
X193706663Y-107858731D01*
X193696874Y-107860281D01*
X193576780Y-107921472D01*
X193481472Y-108016780D01*
X193420281Y-108136874D01*
X193399196Y-108270000D01*
X193420281Y-108403126D01*
X193481472Y-108523220D01*
X193576780Y-108618528D01*
X193696874Y-108679719D01*
X193706663Y-108681269D01*
X193706665Y-108681270D01*
X193820207Y-108699253D01*
X193830000Y-108700804D01*
X193839793Y-108699253D01*
X193953335Y-108681270D01*
X193953337Y-108681269D01*
X193963126Y-108679719D01*
X194054113Y-108633359D01*
X194080797Y-108619763D01*
X194150574Y-108606659D01*
X194216359Y-108633359D01*
X194257265Y-108691387D01*
X194264000Y-108732030D01*
X194264000Y-111482062D01*
X194243998Y-111550183D01*
X194227095Y-111571157D01*
X194151472Y-111646780D01*
X194146971Y-111655613D01*
X194146970Y-111655615D01*
X194128644Y-111691582D01*
X194079896Y-111743198D01*
X194010981Y-111760264D01*
X193943780Y-111737364D01*
X193904111Y-111691585D01*
X193899030Y-111681613D01*
X193899029Y-111681611D01*
X193894529Y-111672780D01*
X193799221Y-111577472D01*
X193679127Y-111516281D01*
X193669338Y-111514731D01*
X193669336Y-111514730D01*
X193555794Y-111496747D01*
X193546001Y-111495196D01*
X193536208Y-111496747D01*
X193422666Y-111514730D01*
X193422664Y-111514731D01*
X193412875Y-111516281D01*
X193292781Y-111577472D01*
X193197473Y-111672780D01*
X193136282Y-111792874D01*
X193115197Y-111926000D01*
X193136282Y-112059126D01*
X193197473Y-112179220D01*
X193292781Y-112274528D01*
X193339260Y-112298210D01*
X193344211Y-112300733D01*
X193395826Y-112349481D01*
X193412892Y-112418396D01*
X193389991Y-112485598D01*
X193344211Y-112525267D01*
X193292781Y-112551472D01*
X193197473Y-112646780D01*
X193136282Y-112766874D01*
X193115197Y-112900000D01*
X193136282Y-113033126D01*
X193197473Y-113153220D01*
X193292781Y-113248528D01*
X193412875Y-113309719D01*
X193422666Y-113311270D01*
X193422667Y-113311270D01*
X193470489Y-113318844D01*
X193534642Y-113349256D01*
X193539873Y-113354198D01*
X193901890Y-113716215D01*
X193909317Y-113724319D01*
X193933546Y-113753194D01*
X193943095Y-113758707D01*
X193966186Y-113772039D01*
X193975457Y-113777945D01*
X194006317Y-113799554D01*
X194016968Y-113802408D01*
X194020141Y-113803888D01*
X194023413Y-113805079D01*
X194032956Y-113810588D01*
X194070077Y-113817134D01*
X194080784Y-113819508D01*
X194117194Y-113829263D01*
X194128171Y-113828303D01*
X194139158Y-113829264D01*
X194139022Y-113830817D01*
X194196618Y-113842390D01*
X194247613Y-113891787D01*
X194264000Y-113953924D01*
X194264000Y-118250000D01*
X194243998Y-118318121D01*
X194190342Y-118364614D01*
X194138000Y-118376000D01*
X189590000Y-118376000D01*
X189521879Y-118355998D01*
X189475386Y-118302342D01*
X189464000Y-118250000D01*
X189464000Y-113776000D01*
X191300197Y-113776000D01*
X191301748Y-113785793D01*
X191307089Y-113819512D01*
X191321282Y-113909126D01*
X191382473Y-114029220D01*
X191477781Y-114124528D01*
X191597875Y-114185719D01*
X191607664Y-114187269D01*
X191607666Y-114187270D01*
X191721208Y-114205253D01*
X191731001Y-114206804D01*
X191740794Y-114205253D01*
X191854336Y-114187270D01*
X191854338Y-114187269D01*
X191864127Y-114185719D01*
X191984221Y-114124528D01*
X192079529Y-114029220D01*
X192140720Y-113909126D01*
X192154914Y-113819512D01*
X192160254Y-113785793D01*
X192161805Y-113776000D01*
X192140720Y-113642874D01*
X192079529Y-113522780D01*
X191984221Y-113427472D01*
X191864127Y-113366281D01*
X191854338Y-113364731D01*
X191854336Y-113364730D01*
X191740794Y-113346747D01*
X191731001Y-113345196D01*
X191721208Y-113346747D01*
X191607666Y-113364730D01*
X191607664Y-113364731D01*
X191597875Y-113366281D01*
X191477781Y-113427472D01*
X191382473Y-113522780D01*
X191321282Y-113642874D01*
X191300197Y-113776000D01*
X189464000Y-113776000D01*
X189464000Y-112176000D01*
X190200197Y-112176000D01*
X190201748Y-112185793D01*
X190218436Y-112291155D01*
X190221282Y-112309126D01*
X190282473Y-112429220D01*
X190377781Y-112524528D01*
X190497875Y-112585719D01*
X190507664Y-112587269D01*
X190507666Y-112587270D01*
X190621208Y-112605253D01*
X190631001Y-112606804D01*
X190640794Y-112605253D01*
X190754336Y-112587270D01*
X190754338Y-112587269D01*
X190764127Y-112585719D01*
X190884221Y-112524528D01*
X190979529Y-112429220D01*
X191040720Y-112309126D01*
X191043567Y-112291155D01*
X191060254Y-112185793D01*
X191061805Y-112176000D01*
X191060254Y-112166207D01*
X191042271Y-112052665D01*
X191042270Y-112052663D01*
X191040720Y-112042874D01*
X190979529Y-111922780D01*
X190884221Y-111827472D01*
X190764127Y-111766281D01*
X190754338Y-111764731D01*
X190754336Y-111764730D01*
X190640794Y-111746747D01*
X190631001Y-111745196D01*
X190621208Y-111746747D01*
X190507666Y-111764730D01*
X190507664Y-111764731D01*
X190497875Y-111766281D01*
X190377781Y-111827472D01*
X190282473Y-111922780D01*
X190221282Y-112042874D01*
X190219732Y-112052663D01*
X190219731Y-112052665D01*
X190201748Y-112166207D01*
X190200197Y-112176000D01*
X189464000Y-112176000D01*
X189464000Y-110080000D01*
X190429196Y-110080000D01*
X190450281Y-110213126D01*
X190511472Y-110333220D01*
X190606780Y-110428528D01*
X190726874Y-110489719D01*
X190736663Y-110491269D01*
X190736665Y-110491270D01*
X190850207Y-110509253D01*
X190860000Y-110510804D01*
X190869793Y-110509253D01*
X190983335Y-110491270D01*
X190983337Y-110491269D01*
X190993126Y-110489719D01*
X191113220Y-110428528D01*
X191208528Y-110333220D01*
X191269719Y-110213126D01*
X191290804Y-110080000D01*
X191269719Y-109946874D01*
X191208528Y-109826780D01*
X191113220Y-109731472D01*
X190993126Y-109670281D01*
X190983337Y-109668731D01*
X190983335Y-109668730D01*
X190869793Y-109650747D01*
X190860000Y-109649196D01*
X190850207Y-109650747D01*
X190736665Y-109668730D01*
X190736663Y-109668731D01*
X190726874Y-109670281D01*
X190606780Y-109731472D01*
X190511472Y-109826780D01*
X190450281Y-109946874D01*
X190429196Y-110080000D01*
X189464000Y-110080000D01*
X189464000Y-106770000D01*
X190509196Y-106770000D01*
X190530281Y-106903126D01*
X190591472Y-107023220D01*
X190686780Y-107118528D01*
X190806874Y-107179719D01*
X190816663Y-107181269D01*
X190816665Y-107181270D01*
X190930207Y-107199253D01*
X190940000Y-107200804D01*
X190949793Y-107199253D01*
X191063335Y-107181270D01*
X191063337Y-107181269D01*
X191073126Y-107179719D01*
X191193220Y-107118528D01*
X191288528Y-107023220D01*
X191349719Y-106903126D01*
X191370804Y-106770000D01*
X191349719Y-106636874D01*
X191288528Y-106516780D01*
X191193220Y-106421472D01*
X191073126Y-106360281D01*
X191063337Y-106358731D01*
X191063335Y-106358730D01*
X190949793Y-106340747D01*
X190940000Y-106339196D01*
X190930207Y-106340747D01*
X190816665Y-106358730D01*
X190816663Y-106358731D01*
X190806874Y-106360281D01*
X190686780Y-106421472D01*
X190591472Y-106516780D01*
X190530281Y-106636874D01*
X190509196Y-106770000D01*
X189464000Y-106770000D01*
X189464000Y-106321841D01*
X189484002Y-106253720D01*
X189537658Y-106207227D01*
X189607932Y-106197123D01*
X189615009Y-106198769D01*
X189616874Y-106199719D01*
X189750000Y-106220804D01*
X189759793Y-106219253D01*
X189873335Y-106201270D01*
X189873337Y-106201269D01*
X189883126Y-106199719D01*
X190003220Y-106138528D01*
X190098528Y-106043220D01*
X190159719Y-105923126D01*
X190180804Y-105790000D01*
X190159719Y-105656874D01*
X190098528Y-105536780D01*
X190003220Y-105441472D01*
X189883126Y-105380281D01*
X189873337Y-105378731D01*
X189873335Y-105378730D01*
X189759793Y-105360747D01*
X189750000Y-105359196D01*
X189616874Y-105380281D01*
X189616568Y-105378347D01*
X189557962Y-105380018D01*
X189497166Y-105343352D01*
X189465844Y-105279639D01*
X189464000Y-105258159D01*
X189464000Y-103630000D01*
X190466596Y-103630000D01*
X190487681Y-103763126D01*
X190548872Y-103883220D01*
X190644180Y-103978528D01*
X190764274Y-104039719D01*
X190774063Y-104041269D01*
X190774065Y-104041270D01*
X190887607Y-104059253D01*
X190897400Y-104060804D01*
X190907193Y-104059253D01*
X191020735Y-104041270D01*
X191020737Y-104041269D01*
X191030526Y-104039719D01*
X191150620Y-103978528D01*
X191245928Y-103883220D01*
X191307119Y-103763126D01*
X191328204Y-103630000D01*
X191307119Y-103496874D01*
X191245928Y-103376780D01*
X191150620Y-103281472D01*
X191030526Y-103220281D01*
X191020737Y-103218731D01*
X191020735Y-103218730D01*
X190907193Y-103200747D01*
X190897400Y-103199196D01*
X190887607Y-103200747D01*
X190774065Y-103218730D01*
X190774063Y-103218731D01*
X190764274Y-103220281D01*
X190644180Y-103281472D01*
X190548872Y-103376780D01*
X190487681Y-103496874D01*
X190466596Y-103630000D01*
X189464000Y-103630000D01*
X189464000Y-102731517D01*
X189484002Y-102663396D01*
X189537658Y-102616903D01*
X189607932Y-102606799D01*
X189672512Y-102636293D01*
X189691935Y-102657454D01*
X189696969Y-102664383D01*
X189701472Y-102673220D01*
X189796780Y-102768528D01*
X189916874Y-102829719D01*
X189926663Y-102831269D01*
X189926665Y-102831270D01*
X190040207Y-102849253D01*
X190050000Y-102850804D01*
X190059793Y-102849253D01*
X190173335Y-102831270D01*
X190173337Y-102831269D01*
X190183126Y-102829719D01*
X190303220Y-102768528D01*
X190398528Y-102673220D01*
X190459719Y-102553126D01*
X190480804Y-102420000D01*
X190459719Y-102286874D01*
X190398528Y-102166780D01*
X190303220Y-102071472D01*
X190183126Y-102010281D01*
X190173337Y-102008731D01*
X190173335Y-102008730D01*
X190059793Y-101990747D01*
X190050000Y-101989196D01*
X190040207Y-101990747D01*
X189926665Y-102008730D01*
X189926663Y-102008731D01*
X189916874Y-102010281D01*
X189796780Y-102071472D01*
X189701472Y-102166780D01*
X189696969Y-102175617D01*
X189691935Y-102182546D01*
X189635711Y-102225899D01*
X189564975Y-102231973D01*
X189502184Y-102198840D01*
X189467274Y-102137019D01*
X189464000Y-102108483D01*
X189464000Y-101526000D01*
X189484002Y-101457879D01*
X189537658Y-101411386D01*
X189590000Y-101400000D01*
X193248047Y-101400000D01*
X193316168Y-101420002D01*
G37*
%TD.AperFunction*%
%TD*%
%TA.AperFunction,Conductor*%
%TO.N,/VBias2*%
G36*
X185382121Y-103020002D02*
G01*
X185428614Y-103073658D01*
X185440000Y-103126000D01*
X185440000Y-104495094D01*
X185419998Y-104563215D01*
X185371203Y-104607361D01*
X185276780Y-104655472D01*
X185181472Y-104750780D01*
X185120281Y-104870874D01*
X185099196Y-105004000D01*
X185120281Y-105137126D01*
X185181472Y-105257220D01*
X185276780Y-105352528D01*
X185285613Y-105357028D01*
X185285612Y-105357028D01*
X185371203Y-105400639D01*
X185422818Y-105449387D01*
X185440000Y-105512906D01*
X185440000Y-121464000D01*
X185419998Y-121532121D01*
X185366342Y-121578614D01*
X185314000Y-121590000D01*
X182206000Y-121590000D01*
X182137879Y-121569998D01*
X182091386Y-121516342D01*
X182080000Y-121464000D01*
X182080000Y-112741586D01*
X182100002Y-112673465D01*
X182153658Y-112626972D01*
X182186290Y-112617137D01*
X182223334Y-112611270D01*
X182223335Y-112611270D01*
X182233126Y-112609719D01*
X182353220Y-112548528D01*
X182448528Y-112453220D01*
X182509719Y-112333126D01*
X182530804Y-112200000D01*
X182509719Y-112066874D01*
X182448528Y-111946780D01*
X182353220Y-111851472D01*
X182233126Y-111790281D01*
X182223335Y-111788730D01*
X182223334Y-111788730D01*
X182186290Y-111782863D01*
X182122137Y-111752451D01*
X182084609Y-111692183D01*
X182080000Y-111658414D01*
X182080000Y-103126000D01*
X182100002Y-103057879D01*
X182153658Y-103011386D01*
X182206000Y-103000000D01*
X185314000Y-103000000D01*
X185382121Y-103020002D01*
G37*
%TD.AperFunction*%
%TD*%
%TA.AperFunction,Conductor*%
%TO.N,/VDDA2*%
G36*
X176067913Y-101428002D02*
G01*
X176114406Y-101481658D01*
X176124510Y-101551932D01*
X176095016Y-101616512D01*
X176063607Y-101641093D01*
X176063640Y-101641139D01*
X176062357Y-101642071D01*
X176056997Y-101646266D01*
X176055613Y-101646971D01*
X176055611Y-101646972D01*
X176046780Y-101651472D01*
X175951472Y-101746780D01*
X175890281Y-101866874D01*
X175869196Y-102000000D01*
X175890281Y-102133126D01*
X175951472Y-102253220D01*
X176046780Y-102348528D01*
X176166874Y-102409719D01*
X176176663Y-102411269D01*
X176176665Y-102411270D01*
X176290207Y-102429253D01*
X176300000Y-102430804D01*
X176309793Y-102429253D01*
X176423335Y-102411270D01*
X176423337Y-102411269D01*
X176433126Y-102409719D01*
X176553220Y-102348528D01*
X176648528Y-102253220D01*
X176709719Y-102133126D01*
X176730804Y-102000000D01*
X176709719Y-101866874D01*
X176648528Y-101746780D01*
X176553220Y-101651472D01*
X176544389Y-101646972D01*
X176544387Y-101646971D01*
X176543003Y-101646266D01*
X176541625Y-101644964D01*
X176536360Y-101641139D01*
X176536854Y-101640459D01*
X176491389Y-101597517D01*
X176474324Y-101528602D01*
X176497226Y-101461401D01*
X176552824Y-101417249D01*
X176600208Y-101408000D01*
X177404000Y-101408000D01*
X177472121Y-101428002D01*
X177518614Y-101481658D01*
X177530000Y-101534000D01*
X177530000Y-102671868D01*
X177528449Y-102691578D01*
X177519196Y-102750000D01*
X177520747Y-102759793D01*
X177528449Y-102808421D01*
X177530000Y-102828132D01*
X177530000Y-105381856D01*
X177509998Y-105449977D01*
X177461204Y-105494122D01*
X177455615Y-105496970D01*
X177455613Y-105496971D01*
X177446780Y-105501472D01*
X177351472Y-105596780D01*
X177290281Y-105716874D01*
X177288731Y-105726663D01*
X177288730Y-105726665D01*
X177270747Y-105840207D01*
X177269196Y-105850000D01*
X177290281Y-105983126D01*
X177351472Y-106103220D01*
X177446780Y-106198528D01*
X177455613Y-106203029D01*
X177455615Y-106203030D01*
X177461204Y-106205878D01*
X177512818Y-106254626D01*
X177530000Y-106318144D01*
X177530000Y-113524062D01*
X177509998Y-113592183D01*
X177456342Y-113638676D01*
X177386068Y-113648780D01*
X177321488Y-113619286D01*
X177314905Y-113613157D01*
X177293220Y-113591472D01*
X177173126Y-113530281D01*
X177163337Y-113528731D01*
X177163335Y-113528730D01*
X177049793Y-113510747D01*
X177040000Y-113509196D01*
X177030207Y-113510747D01*
X176916665Y-113528730D01*
X176916663Y-113528731D01*
X176906874Y-113530281D01*
X176786780Y-113591472D01*
X176691472Y-113686780D01*
X176630281Y-113806874D01*
X176609196Y-113940000D01*
X176630281Y-114073126D01*
X176691472Y-114193220D01*
X176786780Y-114288528D01*
X176906874Y-114349719D01*
X176916663Y-114351269D01*
X176916665Y-114351270D01*
X177030207Y-114369253D01*
X177040000Y-114370804D01*
X177049793Y-114369253D01*
X177163335Y-114351270D01*
X177163337Y-114351269D01*
X177173126Y-114349719D01*
X177293220Y-114288528D01*
X177314905Y-114266843D01*
X177377217Y-114232817D01*
X177448032Y-114237882D01*
X177504868Y-114280429D01*
X177529679Y-114346949D01*
X177530000Y-114355938D01*
X177530000Y-118158000D01*
X177509998Y-118226121D01*
X177456342Y-118272614D01*
X177404000Y-118284000D01*
X173356000Y-118284000D01*
X173287879Y-118263998D01*
X173241386Y-118210342D01*
X173230000Y-118158000D01*
X173230000Y-115503938D01*
X173250002Y-115435817D01*
X173266905Y-115414843D01*
X173338528Y-115343220D01*
X173357733Y-115305528D01*
X173406481Y-115253913D01*
X173475396Y-115236847D01*
X173542598Y-115259748D01*
X173582267Y-115305528D01*
X173601472Y-115343220D01*
X173696780Y-115438528D01*
X173816874Y-115499719D01*
X173826663Y-115501269D01*
X173826665Y-115501270D01*
X173940207Y-115519253D01*
X173950000Y-115520804D01*
X173959793Y-115519253D01*
X174073335Y-115501270D01*
X174073337Y-115501269D01*
X174083126Y-115499719D01*
X174203220Y-115438528D01*
X174298528Y-115343220D01*
X174359719Y-115223126D01*
X174380804Y-115090000D01*
X174359719Y-114956874D01*
X174298528Y-114836780D01*
X174203220Y-114741472D01*
X174083126Y-114680281D01*
X174073337Y-114678731D01*
X174073335Y-114678730D01*
X173959793Y-114660747D01*
X173950000Y-114659196D01*
X173940207Y-114660747D01*
X173826665Y-114678730D01*
X173826663Y-114678731D01*
X173816874Y-114680281D01*
X173696780Y-114741472D01*
X173601472Y-114836780D01*
X173596972Y-114845612D01*
X173582267Y-114874472D01*
X173533519Y-114926087D01*
X173464604Y-114943153D01*
X173397402Y-114920252D01*
X173357733Y-114874472D01*
X173343028Y-114845612D01*
X173338528Y-114836780D01*
X173266905Y-114765157D01*
X173232879Y-114702845D01*
X173230000Y-114676062D01*
X173230000Y-114453938D01*
X173250002Y-114385817D01*
X173266905Y-114364843D01*
X173338528Y-114293220D01*
X173399719Y-114173126D01*
X173420804Y-114040000D01*
X173399719Y-113906874D01*
X173338528Y-113786780D01*
X173266905Y-113715157D01*
X173232879Y-113652845D01*
X173230000Y-113626062D01*
X173230000Y-113453938D01*
X173250002Y-113385817D01*
X173266905Y-113364843D01*
X173288528Y-113343220D01*
X173344763Y-113232853D01*
X173393511Y-113181238D01*
X173462426Y-113164172D01*
X173529628Y-113187073D01*
X173569296Y-113232852D01*
X173608972Y-113310720D01*
X173704280Y-113406028D01*
X173824374Y-113467219D01*
X173834163Y-113468769D01*
X173834165Y-113468770D01*
X173947707Y-113486753D01*
X173957500Y-113488304D01*
X173967293Y-113486753D01*
X174080835Y-113468770D01*
X174080837Y-113468769D01*
X174090626Y-113467219D01*
X174210720Y-113406028D01*
X174306028Y-113310720D01*
X174367219Y-113190626D01*
X174388304Y-113057500D01*
X174386753Y-113047707D01*
X174368770Y-112934165D01*
X174368769Y-112934163D01*
X174367219Y-112924374D01*
X174306028Y-112804280D01*
X174210720Y-112708972D01*
X174090626Y-112647781D01*
X174080835Y-112646230D01*
X174080834Y-112646230D01*
X174033012Y-112638656D01*
X173968859Y-112608244D01*
X173963628Y-112603302D01*
X173706424Y-112346098D01*
X175541249Y-112346098D01*
X175562334Y-112479224D01*
X175623525Y-112599318D01*
X175718833Y-112694626D01*
X175838927Y-112755817D01*
X175848716Y-112757367D01*
X175848718Y-112757368D01*
X175962260Y-112775351D01*
X175972053Y-112776902D01*
X175981846Y-112775351D01*
X176095388Y-112757368D01*
X176095390Y-112757367D01*
X176105179Y-112755817D01*
X176225273Y-112694626D01*
X176320581Y-112599318D01*
X176381772Y-112479224D01*
X176402857Y-112346098D01*
X176401306Y-112336305D01*
X176383323Y-112222763D01*
X176383322Y-112222761D01*
X176381772Y-112212972D01*
X176320581Y-112092878D01*
X176225273Y-111997570D01*
X176105179Y-111936379D01*
X176095390Y-111934829D01*
X176095388Y-111934828D01*
X175981846Y-111916845D01*
X175972053Y-111915294D01*
X175962260Y-111916845D01*
X175848718Y-111934828D01*
X175848716Y-111934829D01*
X175838927Y-111936379D01*
X175718833Y-111997570D01*
X175623525Y-112092878D01*
X175562334Y-112212972D01*
X175560784Y-112222761D01*
X175560783Y-112222763D01*
X175542800Y-112336305D01*
X175541249Y-112346098D01*
X173706424Y-112346098D01*
X173684600Y-112324274D01*
X173677173Y-112316170D01*
X173660030Y-112295740D01*
X173660031Y-112295740D01*
X173652944Y-112287295D01*
X173643395Y-112281782D01*
X173620304Y-112268450D01*
X173611033Y-112262544D01*
X173589204Y-112247259D01*
X173580173Y-112240935D01*
X173569523Y-112238081D01*
X173566355Y-112236604D01*
X173563079Y-112235412D01*
X173553534Y-112229901D01*
X173519790Y-112223951D01*
X173516431Y-112223359D01*
X173505704Y-112220981D01*
X173469296Y-112211225D01*
X173458311Y-112212186D01*
X173458309Y-112212186D01*
X173431761Y-112214509D01*
X173420779Y-112214989D01*
X173356000Y-112214989D01*
X173287879Y-112194987D01*
X173241386Y-112141331D01*
X173230000Y-112088989D01*
X173230000Y-110759155D01*
X173250002Y-110691034D01*
X173303658Y-110644541D01*
X173349346Y-110634602D01*
X173350000Y-110634706D01*
X173359793Y-110633155D01*
X173473335Y-110615172D01*
X173473337Y-110615171D01*
X173483126Y-110613621D01*
X173603220Y-110552430D01*
X173698528Y-110457122D01*
X173759719Y-110337028D01*
X173780804Y-110203902D01*
X173759719Y-110070776D01*
X173698528Y-109950682D01*
X173603220Y-109855374D01*
X173483126Y-109794183D01*
X173473337Y-109792633D01*
X173473335Y-109792632D01*
X173359793Y-109774649D01*
X173350000Y-109773098D01*
X173350032Y-109772897D01*
X173287879Y-109754647D01*
X173241386Y-109700991D01*
X173230000Y-109648649D01*
X173230000Y-108500000D01*
X175869196Y-108500000D01*
X175890281Y-108633126D01*
X175951472Y-108753220D01*
X176046780Y-108848528D01*
X176166874Y-108909719D01*
X176176663Y-108911269D01*
X176176665Y-108911270D01*
X176290207Y-108929253D01*
X176300000Y-108930804D01*
X176309793Y-108929253D01*
X176423335Y-108911270D01*
X176423337Y-108911269D01*
X176433126Y-108909719D01*
X176553220Y-108848528D01*
X176648528Y-108753220D01*
X176709719Y-108633126D01*
X176730804Y-108500000D01*
X176709719Y-108366874D01*
X176648528Y-108246780D01*
X176553220Y-108151472D01*
X176433126Y-108090281D01*
X176423337Y-108088731D01*
X176423335Y-108088730D01*
X176309793Y-108070747D01*
X176300000Y-108069196D01*
X176290207Y-108070747D01*
X176176665Y-108088730D01*
X176176663Y-108088731D01*
X176166874Y-108090281D01*
X176046780Y-108151472D01*
X175951472Y-108246780D01*
X175890281Y-108366874D01*
X175869196Y-108500000D01*
X173230000Y-108500000D01*
X173230000Y-107519155D01*
X173250002Y-107451034D01*
X173303658Y-107404541D01*
X173349346Y-107394602D01*
X173350000Y-107394706D01*
X173359793Y-107393155D01*
X173473335Y-107375172D01*
X173473337Y-107375171D01*
X173483126Y-107373621D01*
X173603220Y-107312430D01*
X173698528Y-107217122D01*
X173759719Y-107097028D01*
X173780804Y-106963902D01*
X173759719Y-106830776D01*
X173698528Y-106710682D01*
X173603220Y-106615374D01*
X173483126Y-106554183D01*
X173473337Y-106552633D01*
X173473335Y-106552632D01*
X173359793Y-106534649D01*
X173350000Y-106533098D01*
X173350032Y-106532897D01*
X173287879Y-106514647D01*
X173241386Y-106460991D01*
X173230000Y-106408649D01*
X173230000Y-105300000D01*
X175969196Y-105300000D01*
X175970747Y-105309793D01*
X175988075Y-105419196D01*
X175990281Y-105433126D01*
X176051472Y-105553220D01*
X176146780Y-105648528D01*
X176266874Y-105709719D01*
X176276663Y-105711269D01*
X176276665Y-105711270D01*
X176390207Y-105729253D01*
X176400000Y-105730804D01*
X176409793Y-105729253D01*
X176523335Y-105711270D01*
X176523337Y-105711269D01*
X176533126Y-105709719D01*
X176653220Y-105648528D01*
X176748528Y-105553220D01*
X176809719Y-105433126D01*
X176811926Y-105419196D01*
X176829253Y-105309793D01*
X176830804Y-105300000D01*
X176809719Y-105166874D01*
X176748528Y-105046780D01*
X176653220Y-104951472D01*
X176533126Y-104890281D01*
X176523337Y-104888731D01*
X176523335Y-104888730D01*
X176409793Y-104870747D01*
X176400000Y-104869196D01*
X176390207Y-104870747D01*
X176276665Y-104888730D01*
X176276663Y-104888731D01*
X176266874Y-104890281D01*
X176146780Y-104951472D01*
X176051472Y-105046780D01*
X175990281Y-105166874D01*
X175969196Y-105300000D01*
X173230000Y-105300000D01*
X173230000Y-104335568D01*
X173250002Y-104267447D01*
X173303658Y-104220954D01*
X173375710Y-104211119D01*
X173490206Y-104229253D01*
X173490207Y-104229253D01*
X173500000Y-104230804D01*
X173509793Y-104229253D01*
X173623335Y-104211270D01*
X173623337Y-104211269D01*
X173633126Y-104209719D01*
X173753220Y-104148528D01*
X173848528Y-104053220D01*
X173909719Y-103933126D01*
X173930804Y-103800000D01*
X173909719Y-103666874D01*
X173848528Y-103546780D01*
X173753220Y-103451472D01*
X173633126Y-103390281D01*
X173623337Y-103388731D01*
X173623335Y-103388730D01*
X173509793Y-103370747D01*
X173500000Y-103369196D01*
X173490207Y-103370747D01*
X173490206Y-103370747D01*
X173375710Y-103388881D01*
X173305299Y-103379781D01*
X173250985Y-103334059D01*
X173230000Y-103264432D01*
X173230000Y-101534000D01*
X173250002Y-101465879D01*
X173303658Y-101419386D01*
X173356000Y-101408000D01*
X175999792Y-101408000D01*
X176067913Y-101428002D01*
G37*
%TD.AperFunction*%
%TD*%
%TA.AperFunction,Conductor*%
%TO.N,/LINE2*%
G36*
X202442121Y-101420002D02*
G01*
X202488614Y-101473658D01*
X202500000Y-101526000D01*
X202500000Y-112274000D01*
X202479998Y-112342121D01*
X202426342Y-112388614D01*
X202374000Y-112400000D01*
X198726000Y-112400000D01*
X198657879Y-112379998D01*
X198611386Y-112326342D01*
X198600000Y-112274000D01*
X198600000Y-101526000D01*
X198620002Y-101457879D01*
X198673658Y-101411386D01*
X198726000Y-101400000D01*
X202374000Y-101400000D01*
X202442121Y-101420002D01*
G37*
%TD.AperFunction*%
%TD*%
%TA.AperFunction,Conductor*%
%TO.N,LINE*%
G36*
X168642121Y-89795002D02*
G01*
X168688614Y-89848658D01*
X168700000Y-89901000D01*
X168700000Y-101049000D01*
X168679998Y-101117121D01*
X168626342Y-101163614D01*
X168574000Y-101175000D01*
X165026000Y-101175000D01*
X164957879Y-101154998D01*
X164911386Y-101101342D01*
X164900000Y-101049000D01*
X164900000Y-89901000D01*
X164920002Y-89832879D01*
X164973658Y-89786386D01*
X165026000Y-89775000D01*
X168574000Y-89775000D01*
X168642121Y-89795002D01*
G37*
%TD.AperFunction*%
%TD*%
M02*
