M48
; DRILL file {KiCad (6.0.1)} date Tue Feb 22 23:19:08 2022
; FORMAT={-:-/ absolute / inch / decimal}
; #@! TF.CreationDate,2022-02-22T23:19:08-05:00
; #@! TF.GenerationSoftware,Kicad,Pcbnew,(6.0.1)
; #@! TF.FileFunction,Plated,1,4,PTH
FMAT,2
INCH
; #@! TA.AperFunction,Plated,PTH,ViaDrill
T1C0.0079
; #@! TA.AperFunction,Plated,PTH,ViaDrill
T2C0.0118
; #@! TA.AperFunction,Plated,PTH,ComponentDrill
T3C0.0394
; #@! TA.AperFunction,Plated,PTH,ComponentDrill
T4C0.0472
; #@! TA.AperFunction,Plated,PTH,ComponentDrill
T5C0.0669
%
G90
G05
T1
X6.4449Y-3.3898
X6.5866Y-3.5827
X6.5866Y-3.7087
X6.5866Y-3.8425
X6.5866Y-3.9646
X6.5866Y-4.0945
X6.5866Y-4.2205
X6.5866Y-4.3465
X6.6654Y-4.9606
X6.6693Y-3.7992
X6.6693Y-3.9291
X6.6693Y-4.0551
X6.6693Y-4.185
X6.6732Y-3.6693
X6.6732Y-3.7087
X6.6732Y-3.8425
X6.6732Y-3.9646
X6.6732Y-4.0945
X6.6732Y-4.2205
X6.6732Y-4.311
X6.6732Y-4.3484
X6.7087Y-3.7992
X6.7087Y-3.9291
X6.7087Y-4.0551
X6.7087Y-4.185
X6.7087Y-4.311
X6.712Y-3.9661
X6.712Y-4.2209
X6.712Y-4.3484
X6.7126Y-3.6693
X6.7126Y-3.7073
X6.7126Y-3.8425
X6.7126Y-4.0945
X6.7559Y-3.5354
X6.7565Y-3.5742
X6.7717Y-3.6339
X6.7776Y-4.1476
X6.7795Y-3.7638
X6.7854Y-3.537
X6.7874Y-3.8997
X6.7874Y-4.029
X6.7936Y-4.2833
X6.7942Y-3.5798
X6.8087Y-4.4524
X6.8106Y-4.4898
X6.8106Y-4.5311
X6.8248Y-4.2112
X6.8248Y-4.3387
X6.8268Y-3.8259
X6.8307Y-4.0866
X6.8346Y-3.9551
X6.8386Y-3.7008
X6.8484Y-4.5311
X6.8487Y-4.4511
X6.8543Y-5.0315
X6.8576Y-3.5016
X6.8583Y-4.6614
X6.8996Y-3.6319
X6.9016Y-4.2717
X6.9055Y-3.7598
X6.9055Y-3.8898
X6.9055Y-4.0197
X6.9055Y-4.1457
X6.9213Y-3.5709
X6.928Y-4.4231
X6.9331Y-3.4764
X6.9409Y-3.6299
X6.9409Y-4.0157
X6.9409Y-4.2717
X6.9449Y-3.7598
X6.9449Y-3.8898
X6.9449Y-4.1457
X6.9646Y-4.4075
X6.9701Y-4.4858
X6.9961Y-3.8957
X6.9961Y-4.1673
X7.0059Y-4.0453
X7.0236Y-3.6772
X7.0236Y-3.7835
X7.0256Y-4.2657
X7.0427Y-3.5016
X7.061Y-3.9173
X7.063Y-3.6063
X7.063Y-3.7126
X7.063Y-3.8268
X7.063Y-4.0157
X7.063Y-4.1417
X7.063Y-4.3091
X7.0764Y-4.413
X7.0984Y-3.5236
X7.1496Y-4.3799
X7.1693Y-4.4173
X7.189Y-3.3917
X7.2047Y-3.6378
X7.2087Y-4.0157
X7.2146Y-4.2972
X7.2205Y-5.0787
X7.2244Y-4.7559
X7.2441Y-3.1654
X7.3043Y-3.754
X7.3043Y-3.994
X7.3043Y-4.134
X7.3143Y-3.524
X7.3359Y-4.4833
X7.3359Y-4.5739
X7.3831Y-4.4833
X7.3957Y-4.3201
X7.3965Y-3.7559
X7.3969Y-4.1437
X7.3972Y-4.25
X7.3976Y-3.8583
X7.3984Y-3.6433
X7.3992Y-4.0421
X7.4028Y-3.9437
X7.4078Y-3.5652
X7.437Y-3.7559
X7.4575Y-3.9717
X7.4685Y-3.6339
X7.4705Y-4.165
X7.4724Y-3.5652
X7.478Y-3.8673
X7.4823Y-4.0323
X7.4973Y-4.4833
X7.5039Y-2.9547
X7.5039Y-3.063
X7.5052Y-4.4164
X7.5062Y-3.4891
X7.5142Y-4.3339
X7.5153Y-3.702
X7.5154Y-3.9528
X7.5156Y-4.0799
X7.5172Y-3.8289
X7.5173Y-4.2035
X7.5485Y-4.4794
X7.5529Y-3.9524
X7.553Y-4.3319
X7.5546Y-3.702
X7.5548Y-3.828
X7.5548Y-4.2039
X7.5557Y-4.0782
X7.5692Y-3.5652
X7.5827Y-3.2283
X7.5827Y-3.4134
X7.5827Y-3.4528
X7.6199Y-4.4065
X7.6199Y-4.4449
X7.6232Y-4.1319
X7.626Y-3.7559
X7.6271Y-4.0079
X7.6294Y-3.635
X7.6311Y-4.2626
X7.6328Y-3.5245
X7.6403Y-3.8876
X7.6575Y-4.4055
X7.6575Y-4.4449
X7.6719Y-4.0724
X7.6727Y-3.6915
X7.6744Y-4.328
X7.6747Y-3.948
X7.6748Y-4.1976
X7.6755Y-3.5259
X7.6767Y-3.824
X7.7481Y-3.6244
X7.7495Y-4.1665
X7.7499Y-4.0047
X7.7501Y-4.2571
X7.7511Y-3.7524
X7.7511Y-3.8776
X7.7511Y-4.1291
X7.7515Y-3.6626
X7.7515Y-3.7925
X7.7515Y-3.9136
X7.7525Y-4.0415
X7.7525Y-4.2945
X7.7869Y-3.7531
X7.7874Y-3.6232
X7.7879Y-4.2591
X7.7889Y-3.9146
X7.7889Y-4.0425
X7.7889Y-4.1272
X7.7899Y-3.8791
X7.7899Y-4.2945
X7.7908Y-3.6654
X7.7908Y-3.7925
X7.7908Y-4.0061
X7.7908Y-4.1646
X7.8071Y-4.9291
X7.8543Y-3.2283
X7.8663Y-4.2579
X7.8698Y-4.0039
X7.8701Y-3.752
X7.8701Y-3.874
X7.8701Y-4.126
X7.874Y-3.622
X7.8819Y-4.4016
T2
X6.8386Y-3.0433
X7.5157Y-5.1811
X7.6417Y-5.1811
X7.6732Y-3.3622
T3
X7.1447Y-2.9183
X7.1447Y-3.0183
X7.1701Y-5.1795
X7.1701Y-5.2795
X7.2447Y-2.9183
X7.2447Y-3.0183
X7.2701Y-5.1795
X7.2701Y-5.2795
X7.3447Y-2.9183
X7.3447Y-3.0183
X7.3701Y-5.1795
X7.3701Y-5.2795
T4
X5.8193Y-2.9319
X5.8193Y-3.3821
X5.8193Y-3.8324
X5.8193Y-4.2826
X5.8193Y-4.7328
X5.8193Y-5.1831
X6.2815Y-5.1831
X6.3283Y-2.9319
X8.1142Y-2.9299
X8.1142Y-5.1811
X8.6748Y-2.9319
X8.6748Y-3.3817
X8.6748Y-3.8316
X8.6752Y-4.2814
X8.676Y-4.7313
X8.676Y-5.1811
T5
X5.7193Y-2.8319
X5.7193Y-3.0319
X5.7193Y-3.2821
X5.7193Y-3.4821
X5.7193Y-3.7324
X5.7193Y-3.9324
X5.7193Y-4.1826
X5.7193Y-4.3826
X5.7193Y-4.6328
X5.7193Y-4.8328
X5.7193Y-5.0831
X5.7193Y-5.2831
X5.9193Y-2.8319
X5.9193Y-3.0319
X5.9193Y-3.2821
X5.9193Y-3.4821
X5.9193Y-3.7324
X5.9193Y-3.9324
X5.9193Y-4.1826
X5.9193Y-4.3826
X5.9193Y-4.6328
X5.9193Y-4.8328
X5.9193Y-5.0831
X5.9193Y-5.2831
X6.1815Y-5.0831
X6.1815Y-5.2831
X6.2283Y-2.8319
X6.2283Y-3.0319
X6.3815Y-5.0831
X6.3815Y-5.2831
X6.4283Y-2.8319
X6.4283Y-3.0319
X8.0142Y-2.8299
X8.0142Y-3.0299
X8.0142Y-5.0811
X8.0142Y-5.2811
X8.2142Y-2.8299
X8.2142Y-3.0299
X8.2142Y-5.0811
X8.2142Y-5.2811
X8.5748Y-2.8319
X8.5748Y-3.0319
X8.5748Y-3.2817
X8.5748Y-3.4817
X8.5748Y-3.7316
X8.5748Y-3.9316
X8.5752Y-4.1814
X8.5752Y-4.3814
X8.576Y-4.6313
X8.576Y-4.8313
X8.576Y-5.0811
X8.576Y-5.2811
X8.7748Y-2.8319
X8.7748Y-3.0319
X8.7748Y-3.2817
X8.7748Y-3.4817
X8.7748Y-3.7316
X8.7748Y-3.9316
X8.7752Y-4.1814
X8.7752Y-4.3814
X8.776Y-4.6313
X8.776Y-4.8313
X8.776Y-5.0811
X8.776Y-5.2811
T0
M30
