%TF.GenerationSoftware,KiCad,Pcbnew,(6.0.1)*%
%TF.CreationDate,2022-02-22T23:19:08-05:00*%
%TF.ProjectId,sipm-linear-s14160,7369706d-2d6c-4696-9e65-61722d733134,rev?*%
%TF.SameCoordinates,Original*%
%TF.FileFunction,Legend,Bot*%
%TF.FilePolarity,Positive*%
%FSLAX46Y46*%
G04 Gerber Fmt 4.6, Leading zero omitted, Abs format (unit mm)*
G04 Created by KiCad (PCBNEW (6.0.1)) date 2022-02-22 23:19:08*
%MOMM*%
%LPD*%
G01*
G04 APERTURE LIST*
%ADD10C,0.110000*%
%ADD11C,0.300000*%
%ADD12C,0.100000*%
%ADD13C,0.120000*%
G04 APERTURE END LIST*
D10*
X189283904Y-122086761D02*
X189141047Y-122134380D01*
X188902952Y-122134380D01*
X188807714Y-122086761D01*
X188760095Y-122039142D01*
X188712476Y-121943904D01*
X188712476Y-121848666D01*
X188760095Y-121753428D01*
X188807714Y-121705809D01*
X188902952Y-121658190D01*
X189093428Y-121610571D01*
X189188666Y-121562952D01*
X189236285Y-121515333D01*
X189283904Y-121420095D01*
X189283904Y-121324857D01*
X189236285Y-121229619D01*
X189188666Y-121182000D01*
X189093428Y-121134380D01*
X188855333Y-121134380D01*
X188712476Y-121182000D01*
X188283904Y-122134380D02*
X188283904Y-121134380D01*
X187807714Y-122134380D02*
X187807714Y-121134380D01*
X187426761Y-121134380D01*
X187331523Y-121182000D01*
X187283904Y-121229619D01*
X187236285Y-121324857D01*
X187236285Y-121467714D01*
X187283904Y-121562952D01*
X187331523Y-121610571D01*
X187426761Y-121658190D01*
X187807714Y-121658190D01*
X186807714Y-122134380D02*
X186807714Y-121134380D01*
X186474380Y-121848666D01*
X186141047Y-121134380D01*
X186141047Y-122134380D01*
X184426761Y-122134380D02*
X184902952Y-122134380D01*
X184902952Y-121134380D01*
X184093428Y-122134380D02*
X184093428Y-121467714D01*
X184093428Y-121134380D02*
X184141047Y-121182000D01*
X184093428Y-121229619D01*
X184045809Y-121182000D01*
X184093428Y-121134380D01*
X184093428Y-121229619D01*
X183617238Y-121467714D02*
X183617238Y-122134380D01*
X183617238Y-121562952D02*
X183569619Y-121515333D01*
X183474380Y-121467714D01*
X183331523Y-121467714D01*
X183236285Y-121515333D01*
X183188666Y-121610571D01*
X183188666Y-122134380D01*
X182331523Y-122086761D02*
X182426761Y-122134380D01*
X182617238Y-122134380D01*
X182712476Y-122086761D01*
X182760095Y-121991523D01*
X182760095Y-121610571D01*
X182712476Y-121515333D01*
X182617238Y-121467714D01*
X182426761Y-121467714D01*
X182331523Y-121515333D01*
X182283904Y-121610571D01*
X182283904Y-121705809D01*
X182760095Y-121801047D01*
X181426761Y-122134380D02*
X181426761Y-121610571D01*
X181474380Y-121515333D01*
X181569619Y-121467714D01*
X181760095Y-121467714D01*
X181855333Y-121515333D01*
X181426761Y-122086761D02*
X181522000Y-122134380D01*
X181760095Y-122134380D01*
X181855333Y-122086761D01*
X181902952Y-121991523D01*
X181902952Y-121896285D01*
X181855333Y-121801047D01*
X181760095Y-121753428D01*
X181522000Y-121753428D01*
X181426761Y-121705809D01*
X180950571Y-122134380D02*
X180950571Y-121467714D01*
X180950571Y-121658190D02*
X180902952Y-121562952D01*
X180855333Y-121515333D01*
X180760095Y-121467714D01*
X180664857Y-121467714D01*
X193093428Y-123696761D02*
X192950571Y-123744380D01*
X192712476Y-123744380D01*
X192617238Y-123696761D01*
X192569619Y-123649142D01*
X192522000Y-123553904D01*
X192522000Y-123458666D01*
X192569619Y-123363428D01*
X192617238Y-123315809D01*
X192712476Y-123268190D01*
X192902952Y-123220571D01*
X192998190Y-123172952D01*
X193045809Y-123125333D01*
X193093428Y-123030095D01*
X193093428Y-122934857D01*
X193045809Y-122839619D01*
X192998190Y-122792000D01*
X192902952Y-122744380D01*
X192664857Y-122744380D01*
X192522000Y-122792000D01*
X191569619Y-123744380D02*
X192141047Y-123744380D01*
X191855333Y-123744380D02*
X191855333Y-122744380D01*
X191950571Y-122887238D01*
X192045809Y-122982476D01*
X192141047Y-123030095D01*
X190712476Y-123077714D02*
X190712476Y-123744380D01*
X190950571Y-122696761D02*
X191188666Y-123411047D01*
X190569619Y-123411047D01*
X189760095Y-123077714D02*
X189760095Y-123744380D01*
X189998190Y-122696761D02*
X190236285Y-123411047D01*
X189617238Y-123411047D01*
X189283904Y-122839619D02*
X189236285Y-122792000D01*
X189141047Y-122744380D01*
X188902952Y-122744380D01*
X188807714Y-122792000D01*
X188760095Y-122839619D01*
X188712476Y-122934857D01*
X188712476Y-123030095D01*
X188760095Y-123172952D01*
X189331523Y-123744380D01*
X188712476Y-123744380D01*
X188093428Y-122744380D02*
X187998190Y-122744380D01*
X187902952Y-122792000D01*
X187855333Y-122839619D01*
X187807714Y-122934857D01*
X187760095Y-123125333D01*
X187760095Y-123363428D01*
X187807714Y-123553904D01*
X187855333Y-123649142D01*
X187902952Y-123696761D01*
X187998190Y-123744380D01*
X188093428Y-123744380D01*
X188188666Y-123696761D01*
X188236285Y-123649142D01*
X188283904Y-123553904D01*
X188331523Y-123363428D01*
X188331523Y-123125333D01*
X188283904Y-122934857D01*
X188236285Y-122839619D01*
X188188666Y-122792000D01*
X188093428Y-122744380D01*
X185998190Y-123649142D02*
X186045809Y-123696761D01*
X186188666Y-123744380D01*
X186283904Y-123744380D01*
X186426761Y-123696761D01*
X186522000Y-123601523D01*
X186569619Y-123506285D01*
X186617238Y-123315809D01*
X186617238Y-123172952D01*
X186569619Y-122982476D01*
X186522000Y-122887238D01*
X186426761Y-122792000D01*
X186283904Y-122744380D01*
X186188666Y-122744380D01*
X186045809Y-122792000D01*
X185998190Y-122839619D01*
X185141047Y-123077714D02*
X185141047Y-123744380D01*
X185569619Y-123077714D02*
X185569619Y-123601523D01*
X185522000Y-123696761D01*
X185426761Y-123744380D01*
X185283904Y-123744380D01*
X185188666Y-123696761D01*
X185141047Y-123649142D01*
X184712476Y-123696761D02*
X184617238Y-123744380D01*
X184426761Y-123744380D01*
X184331523Y-123696761D01*
X184283904Y-123601523D01*
X184283904Y-123553904D01*
X184331523Y-123458666D01*
X184426761Y-123411047D01*
X184569619Y-123411047D01*
X184664857Y-123363428D01*
X184712476Y-123268190D01*
X184712476Y-123220571D01*
X184664857Y-123125333D01*
X184569619Y-123077714D01*
X184426761Y-123077714D01*
X184331523Y-123125333D01*
X183998190Y-123077714D02*
X183617238Y-123077714D01*
X183855333Y-122744380D02*
X183855333Y-123601523D01*
X183807714Y-123696761D01*
X183712476Y-123744380D01*
X183617238Y-123744380D01*
X183141047Y-123744380D02*
X183236285Y-123696761D01*
X183283904Y-123649142D01*
X183331523Y-123553904D01*
X183331523Y-123268190D01*
X183283904Y-123172952D01*
X183236285Y-123125333D01*
X183141047Y-123077714D01*
X182998190Y-123077714D01*
X182902952Y-123125333D01*
X182855333Y-123172952D01*
X182807714Y-123268190D01*
X182807714Y-123553904D01*
X182855333Y-123649142D01*
X182902952Y-123696761D01*
X182998190Y-123744380D01*
X183141047Y-123744380D01*
X182379142Y-123744380D02*
X182379142Y-123077714D01*
X182379142Y-123172952D02*
X182331523Y-123125333D01*
X182236285Y-123077714D01*
X182093428Y-123077714D01*
X181998190Y-123125333D01*
X181950571Y-123220571D01*
X181950571Y-123744380D01*
X181950571Y-123220571D02*
X181902952Y-123125333D01*
X181807714Y-123077714D01*
X181664857Y-123077714D01*
X181569619Y-123125333D01*
X181522000Y-123220571D01*
X181522000Y-123744380D01*
X180331523Y-123458666D02*
X179855333Y-123458666D01*
X180426761Y-123744380D02*
X180093428Y-122744380D01*
X179760095Y-123744380D01*
X179426761Y-123744380D02*
X179426761Y-123077714D01*
X179426761Y-123268190D02*
X179379142Y-123172952D01*
X179331523Y-123125333D01*
X179236285Y-123077714D01*
X179141047Y-123077714D01*
X178807714Y-123744380D02*
X178807714Y-123077714D01*
X178807714Y-123268190D02*
X178760095Y-123172952D01*
X178712476Y-123125333D01*
X178617238Y-123077714D01*
X178522000Y-123077714D01*
X177760095Y-123744380D02*
X177760095Y-123220571D01*
X177807714Y-123125333D01*
X177902952Y-123077714D01*
X178093428Y-123077714D01*
X178188666Y-123125333D01*
X177760095Y-123696761D02*
X177855333Y-123744380D01*
X178093428Y-123744380D01*
X178188666Y-123696761D01*
X178236285Y-123601523D01*
X178236285Y-123506285D01*
X178188666Y-123411047D01*
X178093428Y-123363428D01*
X177855333Y-123363428D01*
X177760095Y-123315809D01*
X177379142Y-123077714D02*
X177141047Y-123744380D01*
X176902952Y-123077714D02*
X177141047Y-123744380D01*
X177236285Y-123982476D01*
X177283904Y-124030095D01*
X177379142Y-124077714D01*
X186545809Y-124354380D02*
X186212476Y-125354380D01*
X185879142Y-124354380D01*
X185022000Y-125354380D02*
X185593428Y-125354380D01*
X185307714Y-125354380D02*
X185307714Y-124354380D01*
X185402952Y-124497238D01*
X185498190Y-124592476D01*
X185593428Y-124640095D01*
X184593428Y-125259142D02*
X184545809Y-125306761D01*
X184593428Y-125354380D01*
X184641047Y-125306761D01*
X184593428Y-125259142D01*
X184593428Y-125354380D01*
X183926761Y-124354380D02*
X183831523Y-124354380D01*
X183736285Y-124402000D01*
X183688666Y-124449619D01*
X183641047Y-124544857D01*
X183593428Y-124735333D01*
X183593428Y-124973428D01*
X183641047Y-125163904D01*
X183688666Y-125259142D01*
X183736285Y-125306761D01*
X183831523Y-125354380D01*
X183926761Y-125354380D01*
X184022000Y-125306761D01*
X184069619Y-125259142D01*
X184117238Y-125163904D01*
X184164857Y-124973428D01*
X184164857Y-124735333D01*
X184117238Y-124544857D01*
X184069619Y-124449619D01*
X184022000Y-124402000D01*
X183926761Y-124354380D01*
D11*
X168450000Y-132535714D02*
X168521428Y-132607142D01*
X168735714Y-132678571D01*
X168878571Y-132678571D01*
X169092857Y-132607142D01*
X169235714Y-132464285D01*
X169307142Y-132321428D01*
X169378571Y-132035714D01*
X169378571Y-131821428D01*
X169307142Y-131535714D01*
X169235714Y-131392857D01*
X169092857Y-131250000D01*
X168878571Y-131178571D01*
X168735714Y-131178571D01*
X168521428Y-131250000D01*
X168450000Y-131321428D01*
X167807142Y-132678571D02*
X167807142Y-131178571D01*
X167807142Y-131892857D02*
X166950000Y-131892857D01*
X166950000Y-132678571D02*
X166950000Y-131178571D01*
X165450000Y-132678571D02*
X166307142Y-132678571D01*
X165878571Y-132678571D02*
X165878571Y-131178571D01*
X166021428Y-131392857D01*
X166164285Y-131535714D01*
X166307142Y-131607142D01*
X164878571Y-131321428D02*
X164807142Y-131250000D01*
X164664285Y-131178571D01*
X164307142Y-131178571D01*
X164164285Y-131250000D01*
X164092857Y-131321428D01*
X164021428Y-131464285D01*
X164021428Y-131607142D01*
X164092857Y-131821428D01*
X164950000Y-132678571D01*
X164021428Y-132678571D01*
X142335714Y-75435714D02*
X142407142Y-75507142D01*
X142621428Y-75578571D01*
X142764285Y-75578571D01*
X142978571Y-75507142D01*
X143121428Y-75364285D01*
X143192857Y-75221428D01*
X143264285Y-74935714D01*
X143264285Y-74721428D01*
X143192857Y-74435714D01*
X143121428Y-74292857D01*
X142978571Y-74150000D01*
X142764285Y-74078571D01*
X142621428Y-74078571D01*
X142407142Y-74150000D01*
X142335714Y-74221428D01*
X141692857Y-75578571D02*
X141692857Y-74078571D01*
X141692857Y-74792857D02*
X140835714Y-74792857D01*
X140835714Y-75578571D02*
X140835714Y-74078571D01*
X140192857Y-74221428D02*
X140121428Y-74150000D01*
X139978571Y-74078571D01*
X139621428Y-74078571D01*
X139478571Y-74150000D01*
X139407142Y-74221428D01*
X139335714Y-74364285D01*
X139335714Y-74507142D01*
X139407142Y-74721428D01*
X140264285Y-75578571D01*
X139335714Y-75578571D01*
X228235714Y-109535714D02*
X228307142Y-109607142D01*
X228521428Y-109678571D01*
X228664285Y-109678571D01*
X228878571Y-109607142D01*
X229021428Y-109464285D01*
X229092857Y-109321428D01*
X229164285Y-109035714D01*
X229164285Y-108821428D01*
X229092857Y-108535714D01*
X229021428Y-108392857D01*
X228878571Y-108250000D01*
X228664285Y-108178571D01*
X228521428Y-108178571D01*
X228307142Y-108250000D01*
X228235714Y-108321428D01*
X227592857Y-109678571D02*
X227592857Y-108178571D01*
X227592857Y-108892857D02*
X226735714Y-108892857D01*
X226735714Y-109678571D02*
X226735714Y-108178571D01*
X226164285Y-108178571D02*
X225164285Y-108178571D01*
X225807142Y-109678571D01*
X142535714Y-120935714D02*
X142607142Y-121007142D01*
X142821428Y-121078571D01*
X142964285Y-121078571D01*
X143178571Y-121007142D01*
X143321428Y-120864285D01*
X143392857Y-120721428D01*
X143464285Y-120435714D01*
X143464285Y-120221428D01*
X143392857Y-119935714D01*
X143321428Y-119792857D01*
X143178571Y-119650000D01*
X142964285Y-119578571D01*
X142821428Y-119578571D01*
X142607142Y-119650000D01*
X142535714Y-119721428D01*
X141892857Y-121078571D02*
X141892857Y-119578571D01*
X141892857Y-120292857D02*
X141035714Y-120292857D01*
X141035714Y-121078571D02*
X141035714Y-119578571D01*
X140107142Y-120221428D02*
X140250000Y-120150000D01*
X140321428Y-120078571D01*
X140392857Y-119935714D01*
X140392857Y-119864285D01*
X140321428Y-119721428D01*
X140250000Y-119650000D01*
X140107142Y-119578571D01*
X139821428Y-119578571D01*
X139678571Y-119650000D01*
X139607142Y-119721428D01*
X139535714Y-119864285D01*
X139535714Y-119935714D01*
X139607142Y-120078571D01*
X139678571Y-120150000D01*
X139821428Y-120221428D01*
X140107142Y-120221428D01*
X140250000Y-120292857D01*
X140321428Y-120364285D01*
X140392857Y-120507142D01*
X140392857Y-120792857D01*
X140321428Y-120935714D01*
X140250000Y-121007142D01*
X140107142Y-121078571D01*
X139821428Y-121078571D01*
X139678571Y-121007142D01*
X139607142Y-120935714D01*
X139535714Y-120792857D01*
X139535714Y-120507142D01*
X139607142Y-120364285D01*
X139678571Y-120292857D01*
X139821428Y-120221428D01*
X228750000Y-132035714D02*
X228821428Y-132107142D01*
X229035714Y-132178571D01*
X229178571Y-132178571D01*
X229392857Y-132107142D01*
X229535714Y-131964285D01*
X229607142Y-131821428D01*
X229678571Y-131535714D01*
X229678571Y-131321428D01*
X229607142Y-131035714D01*
X229535714Y-130892857D01*
X229392857Y-130750000D01*
X229178571Y-130678571D01*
X229035714Y-130678571D01*
X228821428Y-130750000D01*
X228750000Y-130821428D01*
X228107142Y-132178571D02*
X228107142Y-130678571D01*
X228107142Y-131392857D02*
X227250000Y-131392857D01*
X227250000Y-132178571D02*
X227250000Y-130678571D01*
X225750000Y-132178571D02*
X226607142Y-132178571D01*
X226178571Y-132178571D02*
X226178571Y-130678571D01*
X226321428Y-130892857D01*
X226464285Y-131035714D01*
X226607142Y-131107142D01*
X224321428Y-132178571D02*
X225178571Y-132178571D01*
X224750000Y-132178571D02*
X224750000Y-130678571D01*
X224892857Y-130892857D01*
X225035714Y-131035714D01*
X225178571Y-131107142D01*
X143350000Y-132335714D02*
X143421428Y-132407142D01*
X143635714Y-132478571D01*
X143778571Y-132478571D01*
X143992857Y-132407142D01*
X144135714Y-132264285D01*
X144207142Y-132121428D01*
X144278571Y-131835714D01*
X144278571Y-131621428D01*
X144207142Y-131335714D01*
X144135714Y-131192857D01*
X143992857Y-131050000D01*
X143778571Y-130978571D01*
X143635714Y-130978571D01*
X143421428Y-131050000D01*
X143350000Y-131121428D01*
X142707142Y-132478571D02*
X142707142Y-130978571D01*
X142707142Y-131692857D02*
X141850000Y-131692857D01*
X141850000Y-132478571D02*
X141850000Y-130978571D01*
X140350000Y-132478571D02*
X141207142Y-132478571D01*
X140778571Y-132478571D02*
X140778571Y-130978571D01*
X140921428Y-131192857D01*
X141064285Y-131335714D01*
X141207142Y-131407142D01*
X139421428Y-130978571D02*
X139278571Y-130978571D01*
X139135714Y-131050000D01*
X139064285Y-131121428D01*
X138992857Y-131264285D01*
X138921428Y-131550000D01*
X138921428Y-131907142D01*
X138992857Y-132192857D01*
X139064285Y-132335714D01*
X139135714Y-132407142D01*
X139278571Y-132478571D01*
X139421428Y-132478571D01*
X139564285Y-132407142D01*
X139635714Y-132335714D01*
X139707142Y-132192857D01*
X139778571Y-131907142D01*
X139778571Y-131550000D01*
X139707142Y-131264285D01*
X139635714Y-131121428D01*
X139564285Y-131050000D01*
X139421428Y-130978571D01*
X200650000Y-132135714D02*
X200721428Y-132207142D01*
X200935714Y-132278571D01*
X201078571Y-132278571D01*
X201292857Y-132207142D01*
X201435714Y-132064285D01*
X201507142Y-131921428D01*
X201578571Y-131635714D01*
X201578571Y-131421428D01*
X201507142Y-131135714D01*
X201435714Y-130992857D01*
X201292857Y-130850000D01*
X201078571Y-130778571D01*
X200935714Y-130778571D01*
X200721428Y-130850000D01*
X200650000Y-130921428D01*
X200007142Y-132278571D02*
X200007142Y-130778571D01*
X200007142Y-131492857D02*
X199150000Y-131492857D01*
X199150000Y-132278571D02*
X199150000Y-130778571D01*
X197650000Y-132278571D02*
X198507142Y-132278571D01*
X198078571Y-132278571D02*
X198078571Y-130778571D01*
X198221428Y-130992857D01*
X198364285Y-131135714D01*
X198507142Y-131207142D01*
X197150000Y-130778571D02*
X196221428Y-130778571D01*
X196721428Y-131350000D01*
X196507142Y-131350000D01*
X196364285Y-131421428D01*
X196292857Y-131492857D01*
X196221428Y-131635714D01*
X196221428Y-131992857D01*
X196292857Y-132135714D01*
X196364285Y-132207142D01*
X196507142Y-132278571D01*
X196935714Y-132278571D01*
X197078571Y-132207142D01*
X197150000Y-132135714D01*
X228235714Y-120835714D02*
X228307142Y-120907142D01*
X228521428Y-120978571D01*
X228664285Y-120978571D01*
X228878571Y-120907142D01*
X229021428Y-120764285D01*
X229092857Y-120621428D01*
X229164285Y-120335714D01*
X229164285Y-120121428D01*
X229092857Y-119835714D01*
X229021428Y-119692857D01*
X228878571Y-119550000D01*
X228664285Y-119478571D01*
X228521428Y-119478571D01*
X228307142Y-119550000D01*
X228235714Y-119621428D01*
X227592857Y-120978571D02*
X227592857Y-119478571D01*
X227592857Y-120192857D02*
X226735714Y-120192857D01*
X226735714Y-120978571D02*
X226735714Y-119478571D01*
X225950000Y-120978571D02*
X225664285Y-120978571D01*
X225521428Y-120907142D01*
X225450000Y-120835714D01*
X225307142Y-120621428D01*
X225235714Y-120335714D01*
X225235714Y-119764285D01*
X225307142Y-119621428D01*
X225378571Y-119550000D01*
X225521428Y-119478571D01*
X225807142Y-119478571D01*
X225950000Y-119550000D01*
X226021428Y-119621428D01*
X226092857Y-119764285D01*
X226092857Y-120121428D01*
X226021428Y-120264285D01*
X225950000Y-120335714D01*
X225807142Y-120407142D01*
X225521428Y-120407142D01*
X225378571Y-120335714D01*
X225307142Y-120264285D01*
X225235714Y-120121428D01*
X206935714Y-81035714D02*
X207007142Y-81107142D01*
X207221428Y-81178571D01*
X207364285Y-81178571D01*
X207578571Y-81107142D01*
X207721428Y-80964285D01*
X207792857Y-80821428D01*
X207864285Y-80535714D01*
X207864285Y-80321428D01*
X207792857Y-80035714D01*
X207721428Y-79892857D01*
X207578571Y-79750000D01*
X207364285Y-79678571D01*
X207221428Y-79678571D01*
X207007142Y-79750000D01*
X206935714Y-79821428D01*
X206292857Y-81178571D02*
X206292857Y-79678571D01*
X206292857Y-80392857D02*
X205435714Y-80392857D01*
X205435714Y-81178571D02*
X205435714Y-79678571D01*
X203935714Y-81178571D02*
X204792857Y-81178571D01*
X204364285Y-81178571D02*
X204364285Y-79678571D01*
X204507142Y-79892857D01*
X204650000Y-80035714D01*
X204792857Y-80107142D01*
X228035714Y-86835714D02*
X228107142Y-86907142D01*
X228321428Y-86978571D01*
X228464285Y-86978571D01*
X228678571Y-86907142D01*
X228821428Y-86764285D01*
X228892857Y-86621428D01*
X228964285Y-86335714D01*
X228964285Y-86121428D01*
X228892857Y-85835714D01*
X228821428Y-85692857D01*
X228678571Y-85550000D01*
X228464285Y-85478571D01*
X228321428Y-85478571D01*
X228107142Y-85550000D01*
X228035714Y-85621428D01*
X227392857Y-86978571D02*
X227392857Y-85478571D01*
X227392857Y-86192857D02*
X226535714Y-86192857D01*
X226535714Y-86978571D02*
X226535714Y-85478571D01*
X225107142Y-85478571D02*
X225821428Y-85478571D01*
X225892857Y-86192857D01*
X225821428Y-86121428D01*
X225678571Y-86050000D01*
X225321428Y-86050000D01*
X225178571Y-86121428D01*
X225107142Y-86192857D01*
X225035714Y-86335714D01*
X225035714Y-86692857D01*
X225107142Y-86835714D01*
X225178571Y-86907142D01*
X225321428Y-86978571D01*
X225678571Y-86978571D01*
X225821428Y-86907142D01*
X225892857Y-86835714D01*
X228035714Y-75235714D02*
X228107142Y-75307142D01*
X228321428Y-75378571D01*
X228464285Y-75378571D01*
X228678571Y-75307142D01*
X228821428Y-75164285D01*
X228892857Y-75021428D01*
X228964285Y-74735714D01*
X228964285Y-74521428D01*
X228892857Y-74235714D01*
X228821428Y-74092857D01*
X228678571Y-73950000D01*
X228464285Y-73878571D01*
X228321428Y-73878571D01*
X228107142Y-73950000D01*
X228035714Y-74021428D01*
X227392857Y-75378571D02*
X227392857Y-73878571D01*
X227392857Y-74592857D02*
X226535714Y-74592857D01*
X226535714Y-75378571D02*
X226535714Y-73878571D01*
X225964285Y-73878571D02*
X225035714Y-73878571D01*
X225535714Y-74450000D01*
X225321428Y-74450000D01*
X225178571Y-74521428D01*
X225107142Y-74592857D01*
X225035714Y-74735714D01*
X225035714Y-75092857D01*
X225107142Y-75235714D01*
X225178571Y-75307142D01*
X225321428Y-75378571D01*
X225750000Y-75378571D01*
X225892857Y-75307142D01*
X225964285Y-75235714D01*
X142435714Y-97935714D02*
X142507142Y-98007142D01*
X142721428Y-98078571D01*
X142864285Y-98078571D01*
X143078571Y-98007142D01*
X143221428Y-97864285D01*
X143292857Y-97721428D01*
X143364285Y-97435714D01*
X143364285Y-97221428D01*
X143292857Y-96935714D01*
X143221428Y-96792857D01*
X143078571Y-96650000D01*
X142864285Y-96578571D01*
X142721428Y-96578571D01*
X142507142Y-96650000D01*
X142435714Y-96721428D01*
X141792857Y-98078571D02*
X141792857Y-96578571D01*
X141792857Y-97292857D02*
X140935714Y-97292857D01*
X140935714Y-98078571D02*
X140935714Y-96578571D01*
X139578571Y-97078571D02*
X139578571Y-98078571D01*
X139935714Y-96507142D02*
X140292857Y-97578571D01*
X139364285Y-97578571D01*
X142233361Y-109321296D02*
X142304789Y-109392724D01*
X142519075Y-109464153D01*
X142661932Y-109464153D01*
X142876218Y-109392724D01*
X143019075Y-109249867D01*
X143090504Y-109107010D01*
X143161932Y-108821296D01*
X143161932Y-108607010D01*
X143090504Y-108321296D01*
X143019075Y-108178439D01*
X142876218Y-108035582D01*
X142661932Y-107964153D01*
X142519075Y-107964153D01*
X142304789Y-108035582D01*
X142233361Y-108107010D01*
X141590504Y-109464153D02*
X141590504Y-107964153D01*
X141590504Y-108678439D02*
X140733361Y-108678439D01*
X140733361Y-109464153D02*
X140733361Y-107964153D01*
X139376218Y-107964153D02*
X139661932Y-107964153D01*
X139804789Y-108035582D01*
X139876218Y-108107010D01*
X140019075Y-108321296D01*
X140090504Y-108607010D01*
X140090504Y-109178439D01*
X140019075Y-109321296D01*
X139947647Y-109392724D01*
X139804789Y-109464153D01*
X139519075Y-109464153D01*
X139376218Y-109392724D01*
X139304789Y-109321296D01*
X139233361Y-109178439D01*
X139233361Y-108821296D01*
X139304789Y-108678439D01*
X139376218Y-108607010D01*
X139519075Y-108535582D01*
X139804789Y-108535582D01*
X139947647Y-108607010D01*
X140019075Y-108678439D01*
X140090504Y-108821296D01*
X161735714Y-80735714D02*
X161807142Y-80807142D01*
X162021428Y-80878571D01*
X162164285Y-80878571D01*
X162378571Y-80807142D01*
X162521428Y-80664285D01*
X162592857Y-80521428D01*
X162664285Y-80235714D01*
X162664285Y-80021428D01*
X162592857Y-79735714D01*
X162521428Y-79592857D01*
X162378571Y-79450000D01*
X162164285Y-79378571D01*
X162021428Y-79378571D01*
X161807142Y-79450000D01*
X161735714Y-79521428D01*
X161092857Y-80878571D02*
X161092857Y-79378571D01*
X161092857Y-80092857D02*
X160235714Y-80092857D01*
X160235714Y-80878571D02*
X160235714Y-79378571D01*
X159235714Y-79378571D02*
X159092857Y-79378571D01*
X158950000Y-79450000D01*
X158878571Y-79521428D01*
X158807142Y-79664285D01*
X158735714Y-79950000D01*
X158735714Y-80307142D01*
X158807142Y-80592857D01*
X158878571Y-80735714D01*
X158950000Y-80807142D01*
X159092857Y-80878571D01*
X159235714Y-80878571D01*
X159378571Y-80807142D01*
X159450000Y-80735714D01*
X159521428Y-80592857D01*
X159592857Y-80307142D01*
X159592857Y-79950000D01*
X159521428Y-79664285D01*
X159450000Y-79521428D01*
X159378571Y-79450000D01*
X159235714Y-79378571D01*
X228235714Y-98135714D02*
X228307142Y-98207142D01*
X228521428Y-98278571D01*
X228664285Y-98278571D01*
X228878571Y-98207142D01*
X229021428Y-98064285D01*
X229092857Y-97921428D01*
X229164285Y-97635714D01*
X229164285Y-97421428D01*
X229092857Y-97135714D01*
X229021428Y-96992857D01*
X228878571Y-96850000D01*
X228664285Y-96778571D01*
X228521428Y-96778571D01*
X228307142Y-96850000D01*
X228235714Y-96921428D01*
X227592857Y-98278571D02*
X227592857Y-96778571D01*
X227592857Y-97492857D02*
X226735714Y-97492857D01*
X226735714Y-98278571D02*
X226735714Y-96778571D01*
X225307142Y-96778571D02*
X226021428Y-96778571D01*
X226092857Y-97492857D01*
X226021428Y-97421428D01*
X225878571Y-97350000D01*
X225521428Y-97350000D01*
X225378571Y-97421428D01*
X225307142Y-97492857D01*
X225235714Y-97635714D01*
X225235714Y-97992857D01*
X225307142Y-98135714D01*
X225378571Y-98207142D01*
X225521428Y-98278571D01*
X225878571Y-98278571D01*
X226021428Y-98207142D01*
X226092857Y-98135714D01*
X142335714Y-86635714D02*
X142407142Y-86707142D01*
X142621428Y-86778571D01*
X142764285Y-86778571D01*
X142978571Y-86707142D01*
X143121428Y-86564285D01*
X143192857Y-86421428D01*
X143264285Y-86135714D01*
X143264285Y-85921428D01*
X143192857Y-85635714D01*
X143121428Y-85492857D01*
X142978571Y-85350000D01*
X142764285Y-85278571D01*
X142621428Y-85278571D01*
X142407142Y-85350000D01*
X142335714Y-85421428D01*
X141692857Y-86778571D02*
X141692857Y-85278571D01*
X141692857Y-85992857D02*
X140835714Y-85992857D01*
X140835714Y-86778571D02*
X140835714Y-85278571D01*
X139478571Y-85778571D02*
X139478571Y-86778571D01*
X139835714Y-85207142D02*
X140192857Y-86278571D01*
X139264285Y-86278571D01*
D12*
%TO.C,L13*%
X187026666Y-107980000D02*
X187026666Y-107646666D01*
X186326666Y-107646666D01*
X187026666Y-108580000D02*
X187026666Y-108180000D01*
X187026666Y-108380000D02*
X186326666Y-108380000D01*
X186426666Y-108313333D01*
X186493333Y-108246666D01*
X186526666Y-108180000D01*
X186326666Y-108813333D02*
X186326666Y-109246666D01*
X186593333Y-109013333D01*
X186593333Y-109113333D01*
X186626666Y-109180000D01*
X186660000Y-109213333D01*
X186726666Y-109246666D01*
X186893333Y-109246666D01*
X186960000Y-109213333D01*
X186993333Y-109180000D01*
X187026666Y-109113333D01*
X187026666Y-108913333D01*
X186993333Y-108846666D01*
X186960000Y-108813333D01*
%TO.C,R1*%
X181696666Y-87133333D02*
X181363333Y-86900000D01*
X181696666Y-86733333D02*
X180996666Y-86733333D01*
X180996666Y-87000000D01*
X181030000Y-87066666D01*
X181063333Y-87100000D01*
X181130000Y-87133333D01*
X181230000Y-87133333D01*
X181296666Y-87100000D01*
X181330000Y-87066666D01*
X181363333Y-87000000D01*
X181363333Y-86733333D01*
X181696666Y-87800000D02*
X181696666Y-87400000D01*
X181696666Y-87600000D02*
X180996666Y-87600000D01*
X181096666Y-87533333D01*
X181163333Y-87466666D01*
X181196666Y-87400000D01*
%TO.C,R38*%
X199887400Y-99941666D02*
X200120733Y-99608333D01*
X200287400Y-99941666D02*
X200287400Y-99241666D01*
X200020733Y-99241666D01*
X199954066Y-99275000D01*
X199920733Y-99308333D01*
X199887400Y-99375000D01*
X199887400Y-99475000D01*
X199920733Y-99541666D01*
X199954066Y-99575000D01*
X200020733Y-99608333D01*
X200287400Y-99608333D01*
X199654066Y-99241666D02*
X199220733Y-99241666D01*
X199454066Y-99508333D01*
X199354066Y-99508333D01*
X199287400Y-99541666D01*
X199254066Y-99575000D01*
X199220733Y-99641666D01*
X199220733Y-99808333D01*
X199254066Y-99875000D01*
X199287400Y-99908333D01*
X199354066Y-99941666D01*
X199554066Y-99941666D01*
X199620733Y-99908333D01*
X199654066Y-99875000D01*
X198820733Y-99541666D02*
X198887400Y-99508333D01*
X198920733Y-99475000D01*
X198954066Y-99408333D01*
X198954066Y-99375000D01*
X198920733Y-99308333D01*
X198887400Y-99275000D01*
X198820733Y-99241666D01*
X198687400Y-99241666D01*
X198620733Y-99275000D01*
X198587400Y-99308333D01*
X198554066Y-99375000D01*
X198554066Y-99408333D01*
X198587400Y-99475000D01*
X198620733Y-99508333D01*
X198687400Y-99541666D01*
X198820733Y-99541666D01*
X198887400Y-99575000D01*
X198920733Y-99608333D01*
X198954066Y-99675000D01*
X198954066Y-99808333D01*
X198920733Y-99875000D01*
X198887400Y-99908333D01*
X198820733Y-99941666D01*
X198687400Y-99941666D01*
X198620733Y-99908333D01*
X198587400Y-99875000D01*
X198554066Y-99808333D01*
X198554066Y-99675000D01*
X198587400Y-99608333D01*
X198620733Y-99575000D01*
X198687400Y-99541666D01*
%TO.C,R7*%
X199604066Y-93516666D02*
X199837400Y-93183333D01*
X200004066Y-93516666D02*
X200004066Y-92816666D01*
X199737400Y-92816666D01*
X199670733Y-92850000D01*
X199637400Y-92883333D01*
X199604066Y-92950000D01*
X199604066Y-93050000D01*
X199637400Y-93116666D01*
X199670733Y-93150000D01*
X199737400Y-93183333D01*
X200004066Y-93183333D01*
X199370733Y-92816666D02*
X198904066Y-92816666D01*
X199204066Y-93516666D01*
%TO.C,R81*%
X168250000Y-108686666D02*
X168483333Y-108353333D01*
X168650000Y-108686666D02*
X168650000Y-107986666D01*
X168383333Y-107986666D01*
X168316666Y-108020000D01*
X168283333Y-108053333D01*
X168250000Y-108120000D01*
X168250000Y-108220000D01*
X168283333Y-108286666D01*
X168316666Y-108320000D01*
X168383333Y-108353333D01*
X168650000Y-108353333D01*
X167850000Y-108286666D02*
X167916666Y-108253333D01*
X167950000Y-108220000D01*
X167983333Y-108153333D01*
X167983333Y-108120000D01*
X167950000Y-108053333D01*
X167916666Y-108020000D01*
X167850000Y-107986666D01*
X167716666Y-107986666D01*
X167650000Y-108020000D01*
X167616666Y-108053333D01*
X167583333Y-108120000D01*
X167583333Y-108153333D01*
X167616666Y-108220000D01*
X167650000Y-108253333D01*
X167716666Y-108286666D01*
X167850000Y-108286666D01*
X167916666Y-108320000D01*
X167950000Y-108353333D01*
X167983333Y-108420000D01*
X167983333Y-108553333D01*
X167950000Y-108620000D01*
X167916666Y-108653333D01*
X167850000Y-108686666D01*
X167716666Y-108686666D01*
X167650000Y-108653333D01*
X167616666Y-108620000D01*
X167583333Y-108553333D01*
X167583333Y-108420000D01*
X167616666Y-108353333D01*
X167650000Y-108320000D01*
X167716666Y-108286666D01*
X166916666Y-108686666D02*
X167316666Y-108686666D01*
X167116666Y-108686666D02*
X167116666Y-107986666D01*
X167183333Y-108086666D01*
X167250000Y-108153333D01*
X167316666Y-108186666D01*
%TO.C,R25*%
X168250000Y-99086666D02*
X168483333Y-98753333D01*
X168650000Y-99086666D02*
X168650000Y-98386666D01*
X168383333Y-98386666D01*
X168316666Y-98420000D01*
X168283333Y-98453333D01*
X168250000Y-98520000D01*
X168250000Y-98620000D01*
X168283333Y-98686666D01*
X168316666Y-98720000D01*
X168383333Y-98753333D01*
X168650000Y-98753333D01*
X167983333Y-98453333D02*
X167950000Y-98420000D01*
X167883333Y-98386666D01*
X167716666Y-98386666D01*
X167650000Y-98420000D01*
X167616666Y-98453333D01*
X167583333Y-98520000D01*
X167583333Y-98586666D01*
X167616666Y-98686666D01*
X168016666Y-99086666D01*
X167583333Y-99086666D01*
X166950000Y-98386666D02*
X167283333Y-98386666D01*
X167316666Y-98720000D01*
X167283333Y-98686666D01*
X167216666Y-98653333D01*
X167050000Y-98653333D01*
X166983333Y-98686666D01*
X166950000Y-98720000D01*
X166916666Y-98786666D01*
X166916666Y-98953333D01*
X166950000Y-99020000D01*
X166983333Y-99053333D01*
X167050000Y-99086666D01*
X167216666Y-99086666D01*
X167283333Y-99053333D01*
X167316666Y-99020000D01*
%TO.C,R49*%
X168250000Y-105486666D02*
X168483333Y-105153333D01*
X168650000Y-105486666D02*
X168650000Y-104786666D01*
X168383333Y-104786666D01*
X168316666Y-104820000D01*
X168283333Y-104853333D01*
X168250000Y-104920000D01*
X168250000Y-105020000D01*
X168283333Y-105086666D01*
X168316666Y-105120000D01*
X168383333Y-105153333D01*
X168650000Y-105153333D01*
X167650000Y-105020000D02*
X167650000Y-105486666D01*
X167816666Y-104753333D02*
X167983333Y-105253333D01*
X167550000Y-105253333D01*
X167250000Y-105486666D02*
X167116666Y-105486666D01*
X167050000Y-105453333D01*
X167016666Y-105420000D01*
X166950000Y-105320000D01*
X166916666Y-105186666D01*
X166916666Y-104920000D01*
X166950000Y-104853333D01*
X166983333Y-104820000D01*
X167050000Y-104786666D01*
X167183333Y-104786666D01*
X167250000Y-104820000D01*
X167283333Y-104853333D01*
X167316666Y-104920000D01*
X167316666Y-105086666D01*
X167283333Y-105153333D01*
X167250000Y-105186666D01*
X167183333Y-105220000D01*
X167050000Y-105220000D01*
X166983333Y-105186666D01*
X166950000Y-105153333D01*
X166916666Y-105086666D01*
%TO.C,R70*%
X190535457Y-89842252D02*
X190134763Y-89912963D01*
X190252614Y-89559410D02*
X189757639Y-90054384D01*
X189946201Y-90242946D01*
X190016912Y-90266516D01*
X190064052Y-90266516D01*
X190134763Y-90242946D01*
X190205473Y-90172235D01*
X190229044Y-90101525D01*
X190229044Y-90054384D01*
X190205473Y-89983674D01*
X190016912Y-89795112D01*
X190205473Y-90502219D02*
X190535457Y-90832202D01*
X190818299Y-90125095D01*
X190818299Y-91115045D02*
X190865440Y-91162185D01*
X190936150Y-91185755D01*
X190983291Y-91185755D01*
X191054002Y-91162185D01*
X191171853Y-91091474D01*
X191289704Y-90973623D01*
X191360415Y-90855772D01*
X191383985Y-90785061D01*
X191383985Y-90737921D01*
X191360415Y-90667210D01*
X191313274Y-90620070D01*
X191242563Y-90596500D01*
X191195423Y-90596500D01*
X191124712Y-90620070D01*
X191006861Y-90690780D01*
X190889010Y-90808632D01*
X190818299Y-90926483D01*
X190794729Y-90997193D01*
X190794729Y-91044334D01*
X190818299Y-91115045D01*
%TO.C,R94*%
X199770000Y-109636666D02*
X200003333Y-109303333D01*
X200170000Y-109636666D02*
X200170000Y-108936666D01*
X199903333Y-108936666D01*
X199836666Y-108970000D01*
X199803333Y-109003333D01*
X199770000Y-109070000D01*
X199770000Y-109170000D01*
X199803333Y-109236666D01*
X199836666Y-109270000D01*
X199903333Y-109303333D01*
X200170000Y-109303333D01*
X199436666Y-109636666D02*
X199303333Y-109636666D01*
X199236666Y-109603333D01*
X199203333Y-109570000D01*
X199136666Y-109470000D01*
X199103333Y-109336666D01*
X199103333Y-109070000D01*
X199136666Y-109003333D01*
X199170000Y-108970000D01*
X199236666Y-108936666D01*
X199370000Y-108936666D01*
X199436666Y-108970000D01*
X199470000Y-109003333D01*
X199503333Y-109070000D01*
X199503333Y-109236666D01*
X199470000Y-109303333D01*
X199436666Y-109336666D01*
X199370000Y-109370000D01*
X199236666Y-109370000D01*
X199170000Y-109336666D01*
X199136666Y-109303333D01*
X199103333Y-109236666D01*
X198503333Y-109170000D02*
X198503333Y-109636666D01*
X198670000Y-108903333D02*
X198836666Y-109403333D01*
X198403333Y-109403333D01*
%TO.C,L15*%
X185477667Y-113926000D02*
X185477667Y-113592666D01*
X184777667Y-113592666D01*
X185477667Y-114526000D02*
X185477667Y-114126000D01*
X185477667Y-114326000D02*
X184777667Y-114326000D01*
X184877667Y-114259333D01*
X184944334Y-114192666D01*
X184977667Y-114126000D01*
X184777667Y-115159333D02*
X184777667Y-114826000D01*
X185111001Y-114792666D01*
X185077667Y-114826000D01*
X185044334Y-114892666D01*
X185044334Y-115059333D01*
X185077667Y-115126000D01*
X185111001Y-115159333D01*
X185177667Y-115192666D01*
X185344334Y-115192666D01*
X185411001Y-115159333D01*
X185444334Y-115126000D01*
X185477667Y-115059333D01*
X185477667Y-114892666D01*
X185444334Y-114826000D01*
X185411001Y-114792666D01*
%TO.C,R52*%
X170350000Y-105466668D02*
X170583333Y-105133335D01*
X170750000Y-105466668D02*
X170750000Y-104766668D01*
X170483333Y-104766668D01*
X170416666Y-104800002D01*
X170383333Y-104833335D01*
X170350000Y-104900002D01*
X170350000Y-105000002D01*
X170383333Y-105066668D01*
X170416666Y-105100002D01*
X170483333Y-105133335D01*
X170750000Y-105133335D01*
X169716666Y-104766668D02*
X170050000Y-104766668D01*
X170083333Y-105100002D01*
X170050000Y-105066668D01*
X169983333Y-105033335D01*
X169816666Y-105033335D01*
X169750000Y-105066668D01*
X169716666Y-105100002D01*
X169683333Y-105166668D01*
X169683333Y-105333335D01*
X169716666Y-105400002D01*
X169750000Y-105433335D01*
X169816666Y-105466668D01*
X169983333Y-105466668D01*
X170050000Y-105433335D01*
X170083333Y-105400002D01*
X169416666Y-104833335D02*
X169383333Y-104800002D01*
X169316666Y-104766668D01*
X169150000Y-104766668D01*
X169083333Y-104800002D01*
X169050000Y-104833335D01*
X169016666Y-104900002D01*
X169016666Y-104966668D01*
X169050000Y-105066668D01*
X169450000Y-105466668D01*
X169016666Y-105466668D01*
%TO.C,L3*%
X188516666Y-99486666D02*
X188850000Y-99486666D01*
X188850000Y-98786666D01*
X188350000Y-98786666D02*
X187916666Y-98786666D01*
X188150000Y-99053333D01*
X188050000Y-99053333D01*
X187983333Y-99086666D01*
X187950000Y-99120000D01*
X187916666Y-99186666D01*
X187916666Y-99353333D01*
X187950000Y-99420000D01*
X187983333Y-99453333D01*
X188050000Y-99486666D01*
X188250000Y-99486666D01*
X188316666Y-99453333D01*
X188350000Y-99420000D01*
%TO.C,R59*%
X184736666Y-107400000D02*
X184403333Y-107166666D01*
X184736666Y-107000000D02*
X184036666Y-107000000D01*
X184036666Y-107266666D01*
X184070000Y-107333333D01*
X184103333Y-107366666D01*
X184170000Y-107400000D01*
X184270000Y-107400000D01*
X184336666Y-107366666D01*
X184370000Y-107333333D01*
X184403333Y-107266666D01*
X184403333Y-107000000D01*
X184036666Y-108033333D02*
X184036666Y-107700000D01*
X184370000Y-107666666D01*
X184336666Y-107700000D01*
X184303333Y-107766666D01*
X184303333Y-107933333D01*
X184336666Y-108000000D01*
X184370000Y-108033333D01*
X184436666Y-108066666D01*
X184603333Y-108066666D01*
X184670000Y-108033333D01*
X184703333Y-108000000D01*
X184736666Y-107933333D01*
X184736666Y-107766666D01*
X184703333Y-107700000D01*
X184670000Y-107666666D01*
X184736666Y-108400000D02*
X184736666Y-108533333D01*
X184703333Y-108600000D01*
X184670000Y-108633333D01*
X184570000Y-108700000D01*
X184436666Y-108733333D01*
X184170000Y-108733333D01*
X184103333Y-108700000D01*
X184070000Y-108666666D01*
X184036666Y-108600000D01*
X184036666Y-108466666D01*
X184070000Y-108400000D01*
X184103333Y-108366666D01*
X184170000Y-108333333D01*
X184336666Y-108333333D01*
X184403333Y-108366666D01*
X184436666Y-108400000D01*
X184470000Y-108466666D01*
X184470000Y-108600000D01*
X184436666Y-108666666D01*
X184403333Y-108700000D01*
X184336666Y-108733333D01*
%TO.C,R83*%
X197830000Y-104026666D02*
X198063333Y-103693333D01*
X198230000Y-104026666D02*
X198230000Y-103326666D01*
X197963333Y-103326666D01*
X197896666Y-103360000D01*
X197863333Y-103393333D01*
X197830000Y-103460000D01*
X197830000Y-103560000D01*
X197863333Y-103626666D01*
X197896666Y-103660000D01*
X197963333Y-103693333D01*
X198230000Y-103693333D01*
X197430000Y-103626666D02*
X197496666Y-103593333D01*
X197530000Y-103560000D01*
X197563333Y-103493333D01*
X197563333Y-103460000D01*
X197530000Y-103393333D01*
X197496666Y-103360000D01*
X197430000Y-103326666D01*
X197296666Y-103326666D01*
X197230000Y-103360000D01*
X197196666Y-103393333D01*
X197163333Y-103460000D01*
X197163333Y-103493333D01*
X197196666Y-103560000D01*
X197230000Y-103593333D01*
X197296666Y-103626666D01*
X197430000Y-103626666D01*
X197496666Y-103660000D01*
X197530000Y-103693333D01*
X197563333Y-103760000D01*
X197563333Y-103893333D01*
X197530000Y-103960000D01*
X197496666Y-103993333D01*
X197430000Y-104026666D01*
X197296666Y-104026666D01*
X197230000Y-103993333D01*
X197196666Y-103960000D01*
X197163333Y-103893333D01*
X197163333Y-103760000D01*
X197196666Y-103693333D01*
X197230000Y-103660000D01*
X197296666Y-103626666D01*
X196930000Y-103326666D02*
X196496666Y-103326666D01*
X196730000Y-103593333D01*
X196630000Y-103593333D01*
X196563333Y-103626666D01*
X196530000Y-103660000D01*
X196496666Y-103726666D01*
X196496666Y-103893333D01*
X196530000Y-103960000D01*
X196563333Y-103993333D01*
X196630000Y-104026666D01*
X196830000Y-104026666D01*
X196896666Y-103993333D01*
X196930000Y-103960000D01*
%TO.C,R42*%
X173690087Y-98287622D02*
X173289393Y-98358333D01*
X173407244Y-98004780D02*
X172912269Y-98499754D01*
X173100831Y-98688316D01*
X173171542Y-98711886D01*
X173218682Y-98711886D01*
X173289393Y-98688316D01*
X173360103Y-98617605D01*
X173383674Y-98546895D01*
X173383674Y-98499754D01*
X173360103Y-98429044D01*
X173171542Y-98240482D01*
X173784368Y-99041870D02*
X174114351Y-98711886D01*
X173477955Y-99112580D02*
X173713657Y-98641176D01*
X174020070Y-98947589D01*
X173902219Y-99395423D02*
X173902219Y-99442563D01*
X173925789Y-99513274D01*
X174043640Y-99631125D01*
X174114351Y-99654695D01*
X174161491Y-99654695D01*
X174232202Y-99631125D01*
X174279342Y-99583985D01*
X174326483Y-99489704D01*
X174326483Y-98924018D01*
X174632896Y-99230431D01*
%TO.C,R27*%
X197812400Y-94476666D02*
X198045733Y-94143333D01*
X198212400Y-94476666D02*
X198212400Y-93776666D01*
X197945733Y-93776666D01*
X197879066Y-93810000D01*
X197845733Y-93843333D01*
X197812400Y-93910000D01*
X197812400Y-94010000D01*
X197845733Y-94076666D01*
X197879066Y-94110000D01*
X197945733Y-94143333D01*
X198212400Y-94143333D01*
X197545733Y-93843333D02*
X197512400Y-93810000D01*
X197445733Y-93776666D01*
X197279066Y-93776666D01*
X197212400Y-93810000D01*
X197179066Y-93843333D01*
X197145733Y-93910000D01*
X197145733Y-93976666D01*
X197179066Y-94076666D01*
X197579066Y-94476666D01*
X197145733Y-94476666D01*
X196912400Y-93776666D02*
X196445733Y-93776666D01*
X196745733Y-94476666D01*
%TO.C,R15*%
X194086666Y-84750000D02*
X193753333Y-84516666D01*
X194086666Y-84350000D02*
X193386666Y-84350000D01*
X193386666Y-84616666D01*
X193420000Y-84683333D01*
X193453333Y-84716666D01*
X193520000Y-84750000D01*
X193620000Y-84750000D01*
X193686666Y-84716666D01*
X193720000Y-84683333D01*
X193753333Y-84616666D01*
X193753333Y-84350000D01*
X194086666Y-85416666D02*
X194086666Y-85016666D01*
X194086666Y-85216666D02*
X193386666Y-85216666D01*
X193486666Y-85150000D01*
X193553333Y-85083333D01*
X193586666Y-85016666D01*
X193386666Y-86050000D02*
X193386666Y-85716666D01*
X193720000Y-85683333D01*
X193686666Y-85716666D01*
X193653333Y-85783333D01*
X193653333Y-85950000D01*
X193686666Y-86016666D01*
X193720000Y-86050000D01*
X193786666Y-86083333D01*
X193953333Y-86083333D01*
X194020000Y-86050000D01*
X194053333Y-86016666D01*
X194086666Y-85950000D01*
X194086666Y-85783333D01*
X194053333Y-85716666D01*
X194020000Y-85683333D01*
%TO.C,R85*%
X193465804Y-106065199D02*
X193065110Y-106135910D01*
X193182961Y-105782357D02*
X192687986Y-106277331D01*
X192876548Y-106465893D01*
X192947259Y-106489463D01*
X192994399Y-106489463D01*
X193065110Y-106465893D01*
X193135820Y-106395182D01*
X193159391Y-106324472D01*
X193159391Y-106277331D01*
X193135820Y-106206621D01*
X192947259Y-106018059D01*
X193465804Y-106630885D02*
X193395093Y-106607314D01*
X193347952Y-106607315D01*
X193277242Y-106630885D01*
X193253672Y-106654455D01*
X193230101Y-106725166D01*
X193230101Y-106772306D01*
X193253672Y-106843017D01*
X193347952Y-106937298D01*
X193418663Y-106960868D01*
X193465804Y-106960868D01*
X193536514Y-106937298D01*
X193560085Y-106913727D01*
X193583655Y-106843017D01*
X193583655Y-106795876D01*
X193560085Y-106725166D01*
X193465804Y-106630885D01*
X193442233Y-106560174D01*
X193442233Y-106513034D01*
X193465804Y-106442323D01*
X193560085Y-106348042D01*
X193630795Y-106324472D01*
X193677936Y-106324472D01*
X193748646Y-106348042D01*
X193842927Y-106442323D01*
X193866497Y-106513034D01*
X193866497Y-106560174D01*
X193842927Y-106630885D01*
X193748646Y-106725166D01*
X193677936Y-106748736D01*
X193630795Y-106748736D01*
X193560085Y-106725166D01*
X193890068Y-107479413D02*
X193654365Y-107243711D01*
X193866497Y-106984438D01*
X193866497Y-107031579D01*
X193890068Y-107102289D01*
X194007919Y-107220140D01*
X194078629Y-107243711D01*
X194125770Y-107243711D01*
X194196481Y-107220140D01*
X194314332Y-107102289D01*
X194337902Y-107031579D01*
X194337902Y-106984438D01*
X194314332Y-106913727D01*
X194196481Y-106795876D01*
X194125770Y-106772306D01*
X194078629Y-106772306D01*
%TO.C,R10*%
X193565804Y-93315199D02*
X193165110Y-93385910D01*
X193282961Y-93032357D02*
X192787986Y-93527331D01*
X192976548Y-93715893D01*
X193047259Y-93739463D01*
X193094399Y-93739463D01*
X193165110Y-93715893D01*
X193235820Y-93645182D01*
X193259391Y-93574472D01*
X193259391Y-93527331D01*
X193235820Y-93456621D01*
X193047259Y-93268059D01*
X194037208Y-93786604D02*
X193754365Y-93503761D01*
X193895787Y-93645182D02*
X193400812Y-94140157D01*
X193424382Y-94022306D01*
X193424382Y-93928025D01*
X193400812Y-93857314D01*
X193848646Y-94587992D02*
X193895787Y-94635132D01*
X193966497Y-94658702D01*
X194013638Y-94658702D01*
X194084349Y-94635132D01*
X194202200Y-94564421D01*
X194320051Y-94446570D01*
X194390762Y-94328719D01*
X194414332Y-94258008D01*
X194414332Y-94210868D01*
X194390762Y-94140157D01*
X194343621Y-94093017D01*
X194272910Y-94069447D01*
X194225770Y-94069447D01*
X194155059Y-94093017D01*
X194037208Y-94163727D01*
X193919357Y-94281579D01*
X193848646Y-94399430D01*
X193825076Y-94470140D01*
X193825076Y-94517281D01*
X193848646Y-94587992D01*
%TO.C,L12*%
X180886666Y-90650000D02*
X180886666Y-90316666D01*
X180186666Y-90316666D01*
X180886666Y-91250000D02*
X180886666Y-90850000D01*
X180886666Y-91050000D02*
X180186666Y-91050000D01*
X180286666Y-90983333D01*
X180353333Y-90916666D01*
X180386666Y-90850000D01*
X180253333Y-91516666D02*
X180220000Y-91550000D01*
X180186666Y-91616666D01*
X180186666Y-91783333D01*
X180220000Y-91850000D01*
X180253333Y-91883333D01*
X180320000Y-91916666D01*
X180386666Y-91916666D01*
X180486666Y-91883333D01*
X180886666Y-91483333D01*
X180886666Y-91916666D01*
%TO.C,C1*%
X186216666Y-93750000D02*
X186250000Y-93783333D01*
X186350000Y-93816666D01*
X186416666Y-93816666D01*
X186516666Y-93783333D01*
X186583333Y-93716666D01*
X186616666Y-93650000D01*
X186650000Y-93516666D01*
X186650000Y-93416666D01*
X186616666Y-93283333D01*
X186583333Y-93216666D01*
X186516666Y-93150000D01*
X186416666Y-93116666D01*
X186350000Y-93116666D01*
X186250000Y-93150000D01*
X186216666Y-93183333D01*
X185550000Y-93816666D02*
X185950000Y-93816666D01*
X185750000Y-93816666D02*
X185750000Y-93116666D01*
X185816666Y-93216666D01*
X185883333Y-93283333D01*
X185950000Y-93316666D01*
%TO.C,L8*%
X179016666Y-101146666D02*
X179350000Y-101146666D01*
X179350000Y-100446666D01*
X178683333Y-100746666D02*
X178750000Y-100713333D01*
X178783333Y-100680000D01*
X178816666Y-100613333D01*
X178816666Y-100580000D01*
X178783333Y-100513333D01*
X178750000Y-100480000D01*
X178683333Y-100446666D01*
X178550000Y-100446666D01*
X178483333Y-100480000D01*
X178450000Y-100513333D01*
X178416666Y-100580000D01*
X178416666Y-100613333D01*
X178450000Y-100680000D01*
X178483333Y-100713333D01*
X178550000Y-100746666D01*
X178683333Y-100746666D01*
X178750000Y-100780000D01*
X178783333Y-100813333D01*
X178816666Y-100880000D01*
X178816666Y-101013333D01*
X178783333Y-101080000D01*
X178750000Y-101113333D01*
X178683333Y-101146666D01*
X178550000Y-101146666D01*
X178483333Y-101113333D01*
X178450000Y-101080000D01*
X178416666Y-101013333D01*
X178416666Y-100880000D01*
X178450000Y-100813333D01*
X178483333Y-100780000D01*
X178550000Y-100746666D01*
%TO.C,C40*%
X181650000Y-98983334D02*
X181683333Y-99016667D01*
X181783333Y-99050000D01*
X181850000Y-99050000D01*
X181950000Y-99016667D01*
X182016666Y-98950000D01*
X182050000Y-98883334D01*
X182083333Y-98750000D01*
X182083333Y-98650000D01*
X182050000Y-98516667D01*
X182016666Y-98450000D01*
X181950000Y-98383334D01*
X181850000Y-98350000D01*
X181783333Y-98350000D01*
X181683333Y-98383334D01*
X181650000Y-98416667D01*
X181050000Y-98583334D02*
X181050000Y-99050000D01*
X181216666Y-98316667D02*
X181383333Y-98816667D01*
X180950000Y-98816667D01*
X180550000Y-98350000D02*
X180483333Y-98350000D01*
X180416666Y-98383334D01*
X180383333Y-98416667D01*
X180350000Y-98483334D01*
X180316666Y-98616667D01*
X180316666Y-98783334D01*
X180350000Y-98916667D01*
X180383333Y-98983334D01*
X180416666Y-99016667D01*
X180483333Y-99050000D01*
X180550000Y-99050000D01*
X180616666Y-99016667D01*
X180650000Y-98983334D01*
X180683333Y-98916667D01*
X180716666Y-98783334D01*
X180716666Y-98616667D01*
X180683333Y-98483334D01*
X180650000Y-98416667D01*
X180616666Y-98383334D01*
X180550000Y-98350000D01*
%TO.C,L9*%
X188486666Y-106746666D02*
X188820000Y-106746666D01*
X188820000Y-106046666D01*
X188220000Y-106746666D02*
X188086666Y-106746666D01*
X188020000Y-106713333D01*
X187986666Y-106680000D01*
X187920000Y-106580000D01*
X187886666Y-106446666D01*
X187886666Y-106180000D01*
X187920000Y-106113333D01*
X187953333Y-106080000D01*
X188020000Y-106046666D01*
X188153333Y-106046666D01*
X188220000Y-106080000D01*
X188253333Y-106113333D01*
X188286666Y-106180000D01*
X188286666Y-106346666D01*
X188253333Y-106413333D01*
X188220000Y-106446666D01*
X188153333Y-106480000D01*
X188020000Y-106480000D01*
X187953333Y-106446666D01*
X187920000Y-106413333D01*
X187886666Y-106346666D01*
%TO.C,R6*%
X167916666Y-95686666D02*
X168150000Y-95353333D01*
X168316666Y-95686666D02*
X168316666Y-94986666D01*
X168050000Y-94986666D01*
X167983333Y-95020000D01*
X167950000Y-95053333D01*
X167916666Y-95120000D01*
X167916666Y-95220000D01*
X167950000Y-95286666D01*
X167983333Y-95320000D01*
X168050000Y-95353333D01*
X168316666Y-95353333D01*
X167316666Y-94986666D02*
X167450000Y-94986666D01*
X167516666Y-95020000D01*
X167550000Y-95053333D01*
X167616666Y-95153333D01*
X167650000Y-95286666D01*
X167650000Y-95553333D01*
X167616666Y-95620000D01*
X167583333Y-95653333D01*
X167516666Y-95686666D01*
X167383333Y-95686666D01*
X167316666Y-95653333D01*
X167283333Y-95620000D01*
X167250000Y-95553333D01*
X167250000Y-95386666D01*
X167283333Y-95320000D01*
X167316666Y-95286666D01*
X167383333Y-95253333D01*
X167516666Y-95253333D01*
X167583333Y-95286666D01*
X167616666Y-95320000D01*
X167650000Y-95386666D01*
%TO.C,R41*%
X193465804Y-99715199D02*
X193065110Y-99785910D01*
X193182961Y-99432357D02*
X192687986Y-99927331D01*
X192876548Y-100115893D01*
X192947259Y-100139463D01*
X192994399Y-100139463D01*
X193065110Y-100115893D01*
X193135820Y-100045182D01*
X193159391Y-99974472D01*
X193159391Y-99927331D01*
X193135820Y-99856621D01*
X192947259Y-99668059D01*
X193560085Y-100469447D02*
X193890068Y-100139463D01*
X193253672Y-100540157D02*
X193489374Y-100068753D01*
X193795787Y-100375166D01*
X194408613Y-100658008D02*
X194125770Y-100375166D01*
X194267191Y-100516587D02*
X193772217Y-101011562D01*
X193795787Y-100893711D01*
X193795787Y-100799430D01*
X193772217Y-100728719D01*
%TO.C,R30*%
X173849598Y-95299668D02*
X173444266Y-95335187D01*
X173592483Y-94993250D02*
X173056252Y-95443202D01*
X173227662Y-95647480D01*
X173296049Y-95677124D01*
X173343010Y-95681232D01*
X173415506Y-95663914D01*
X173492110Y-95599636D01*
X173521754Y-95531248D01*
X173525862Y-95484287D01*
X173508545Y-95411791D01*
X173337135Y-95207513D01*
X173463350Y-95928363D02*
X173741892Y-96260316D01*
X173796187Y-95910162D01*
X173860465Y-95986766D01*
X173928853Y-96016410D01*
X173975814Y-96020518D01*
X174048310Y-96003201D01*
X174175984Y-95896069D01*
X174205627Y-95827682D01*
X174209736Y-95780721D01*
X174192418Y-95708225D01*
X174063860Y-95555016D01*
X173995473Y-95525373D01*
X173948512Y-95521264D01*
X174020433Y-96592268D02*
X174063286Y-96643338D01*
X174131673Y-96672981D01*
X174178634Y-96677090D01*
X174251130Y-96659772D01*
X174374695Y-96599602D01*
X174502369Y-96492471D01*
X174583082Y-96381231D01*
X174612726Y-96312844D01*
X174616834Y-96265882D01*
X174599517Y-96193387D01*
X174556664Y-96142317D01*
X174488277Y-96112674D01*
X174441316Y-96108565D01*
X174368820Y-96125883D01*
X174245254Y-96186053D01*
X174117580Y-96293184D01*
X174036867Y-96404424D01*
X174007224Y-96472811D01*
X174003115Y-96519772D01*
X174020433Y-96592268D01*
%TO.C,R71*%
X175833034Y-88530569D02*
X175432340Y-88601280D01*
X175550191Y-88247727D02*
X175055216Y-88742701D01*
X175243778Y-88931263D01*
X175314489Y-88954833D01*
X175361629Y-88954833D01*
X175432340Y-88931263D01*
X175503050Y-88860552D01*
X175526621Y-88789842D01*
X175526621Y-88742701D01*
X175503050Y-88671991D01*
X175314489Y-88483429D01*
X175503050Y-89190536D02*
X175833034Y-89520519D01*
X176115876Y-88813412D01*
X176775843Y-89473378D02*
X176493000Y-89190536D01*
X176634421Y-89331957D02*
X176139447Y-89826932D01*
X176163017Y-89709081D01*
X176163017Y-89614800D01*
X176139447Y-89544089D01*
%TO.C,C14*%
X181650000Y-105413334D02*
X181683333Y-105446667D01*
X181783333Y-105480000D01*
X181850000Y-105480000D01*
X181950000Y-105446667D01*
X182016666Y-105380000D01*
X182050000Y-105313334D01*
X182083333Y-105180000D01*
X182083333Y-105080000D01*
X182050000Y-104946667D01*
X182016666Y-104880000D01*
X181950000Y-104813334D01*
X181850000Y-104780000D01*
X181783333Y-104780000D01*
X181683333Y-104813334D01*
X181650000Y-104846667D01*
X180983333Y-105480000D02*
X181383333Y-105480000D01*
X181183333Y-105480000D02*
X181183333Y-104780000D01*
X181250000Y-104880000D01*
X181316666Y-104946667D01*
X181383333Y-104980000D01*
X180383333Y-105013334D02*
X180383333Y-105480000D01*
X180550000Y-104746667D02*
X180716666Y-105246667D01*
X180283333Y-105246667D01*
%TO.C,L16*%
X182100000Y-111346666D02*
X182433333Y-111346666D01*
X182433333Y-110646666D01*
X181500000Y-111346666D02*
X181900000Y-111346666D01*
X181700000Y-111346666D02*
X181700000Y-110646666D01*
X181766666Y-110746666D01*
X181833333Y-110813333D01*
X181900000Y-110846666D01*
X180900000Y-110646666D02*
X181033333Y-110646666D01*
X181100000Y-110680000D01*
X181133333Y-110713333D01*
X181200000Y-110813333D01*
X181233333Y-110946666D01*
X181233333Y-111213333D01*
X181200000Y-111280000D01*
X181166666Y-111313333D01*
X181100000Y-111346666D01*
X180966666Y-111346666D01*
X180900000Y-111313333D01*
X180866666Y-111280000D01*
X180833333Y-111213333D01*
X180833333Y-111046666D01*
X180866666Y-110980000D01*
X180900000Y-110946666D01*
X180966666Y-110913333D01*
X181100000Y-110913333D01*
X181166666Y-110946666D01*
X181200000Y-110980000D01*
X181233333Y-111046666D01*
%TO.C,R28*%
X170350000Y-99051668D02*
X170583333Y-98718335D01*
X170750000Y-99051668D02*
X170750000Y-98351668D01*
X170483333Y-98351668D01*
X170416666Y-98385002D01*
X170383333Y-98418335D01*
X170350000Y-98485002D01*
X170350000Y-98585002D01*
X170383333Y-98651668D01*
X170416666Y-98685002D01*
X170483333Y-98718335D01*
X170750000Y-98718335D01*
X170083333Y-98418335D02*
X170050000Y-98385002D01*
X169983333Y-98351668D01*
X169816666Y-98351668D01*
X169750000Y-98385002D01*
X169716666Y-98418335D01*
X169683333Y-98485002D01*
X169683333Y-98551668D01*
X169716666Y-98651668D01*
X170116666Y-99051668D01*
X169683333Y-99051668D01*
X169283333Y-98651668D02*
X169350000Y-98618335D01*
X169383333Y-98585002D01*
X169416666Y-98518335D01*
X169416666Y-98485002D01*
X169383333Y-98418335D01*
X169350000Y-98385002D01*
X169283333Y-98351668D01*
X169150000Y-98351668D01*
X169083333Y-98385002D01*
X169050000Y-98418335D01*
X169016666Y-98485002D01*
X169016666Y-98518335D01*
X169050000Y-98585002D01*
X169083333Y-98618335D01*
X169150000Y-98651668D01*
X169283333Y-98651668D01*
X169350000Y-98685002D01*
X169383333Y-98718335D01*
X169416666Y-98785002D01*
X169416666Y-98918335D01*
X169383333Y-98985002D01*
X169350000Y-99018335D01*
X169283333Y-99051668D01*
X169150000Y-99051668D01*
X169083333Y-99018335D01*
X169050000Y-98985002D01*
X169016666Y-98918335D01*
X169016666Y-98785002D01*
X169050000Y-98718335D01*
X169083333Y-98685002D01*
X169150000Y-98651668D01*
%TO.C,L1*%
X188516666Y-96886666D02*
X188850000Y-96886666D01*
X188850000Y-96186666D01*
X187916666Y-96886666D02*
X188316666Y-96886666D01*
X188116666Y-96886666D02*
X188116666Y-96186666D01*
X188183333Y-96286666D01*
X188250000Y-96353333D01*
X188316666Y-96386666D01*
%TO.C,C41*%
X181650000Y-103250000D02*
X181683333Y-103283333D01*
X181783333Y-103316666D01*
X181850000Y-103316666D01*
X181950000Y-103283333D01*
X182016666Y-103216666D01*
X182050000Y-103150000D01*
X182083333Y-103016666D01*
X182083333Y-102916666D01*
X182050000Y-102783333D01*
X182016666Y-102716666D01*
X181950000Y-102650000D01*
X181850000Y-102616666D01*
X181783333Y-102616666D01*
X181683333Y-102650000D01*
X181650000Y-102683333D01*
X181050000Y-102850000D02*
X181050000Y-103316666D01*
X181216666Y-102583333D02*
X181383333Y-103083333D01*
X180950000Y-103083333D01*
X180316666Y-103316666D02*
X180716666Y-103316666D01*
X180516666Y-103316666D02*
X180516666Y-102616666D01*
X180583333Y-102716666D01*
X180650000Y-102783333D01*
X180716666Y-102816666D01*
%TO.C,L5*%
X188506666Y-101636666D02*
X188840000Y-101636666D01*
X188840000Y-100936666D01*
X187940000Y-100936666D02*
X188273333Y-100936666D01*
X188306666Y-101270000D01*
X188273333Y-101236666D01*
X188206666Y-101203333D01*
X188040000Y-101203333D01*
X187973333Y-101236666D01*
X187940000Y-101270000D01*
X187906666Y-101336666D01*
X187906666Y-101503333D01*
X187940000Y-101570000D01*
X187973333Y-101603333D01*
X188040000Y-101636666D01*
X188206666Y-101636666D01*
X188273333Y-101603333D01*
X188306666Y-101570000D01*
%TO.C,R86*%
X173633034Y-104830569D02*
X173232340Y-104901280D01*
X173350191Y-104547727D02*
X172855216Y-105042701D01*
X173043778Y-105231263D01*
X173114489Y-105254833D01*
X173161629Y-105254833D01*
X173232340Y-105231263D01*
X173303050Y-105160552D01*
X173326621Y-105089842D01*
X173326621Y-105042701D01*
X173303050Y-104971991D01*
X173114489Y-104783429D01*
X173633034Y-105396255D02*
X173562323Y-105372684D01*
X173515182Y-105372685D01*
X173444472Y-105396255D01*
X173420902Y-105419825D01*
X173397331Y-105490536D01*
X173397331Y-105537676D01*
X173420902Y-105608387D01*
X173515182Y-105702668D01*
X173585893Y-105726238D01*
X173633034Y-105726238D01*
X173703744Y-105702668D01*
X173727315Y-105679097D01*
X173750885Y-105608387D01*
X173750885Y-105561246D01*
X173727315Y-105490536D01*
X173633034Y-105396255D01*
X173609463Y-105325544D01*
X173609463Y-105278404D01*
X173633034Y-105207693D01*
X173727315Y-105113412D01*
X173798025Y-105089842D01*
X173845166Y-105089842D01*
X173915876Y-105113412D01*
X174010157Y-105207693D01*
X174033727Y-105278404D01*
X174033727Y-105325544D01*
X174010157Y-105396255D01*
X173915876Y-105490536D01*
X173845166Y-105514106D01*
X173798025Y-105514106D01*
X173727315Y-105490536D01*
X174033727Y-106221213D02*
X173939447Y-106126932D01*
X173915876Y-106056221D01*
X173915876Y-106009081D01*
X173939447Y-105891229D01*
X174010157Y-105773378D01*
X174198719Y-105584817D01*
X174269430Y-105561246D01*
X174316570Y-105561246D01*
X174387281Y-105584817D01*
X174481562Y-105679097D01*
X174505132Y-105749808D01*
X174505132Y-105796949D01*
X174481562Y-105867659D01*
X174363711Y-105985510D01*
X174293000Y-106009081D01*
X174245859Y-106009081D01*
X174175149Y-105985510D01*
X174080868Y-105891229D01*
X174057298Y-105820519D01*
X174057298Y-105773378D01*
X174080868Y-105702668D01*
%TO.C,R110*%
X176812331Y-111444867D02*
X176411637Y-111515578D01*
X176529489Y-111162024D02*
X176034514Y-111656999D01*
X176223076Y-111845561D01*
X176293786Y-111869131D01*
X176340927Y-111869131D01*
X176411637Y-111845561D01*
X176482348Y-111774850D01*
X176505918Y-111704140D01*
X176505918Y-111656999D01*
X176482348Y-111586288D01*
X176293786Y-111397727D01*
X177283736Y-111916272D02*
X177000893Y-111633429D01*
X177142315Y-111774850D02*
X176647340Y-112269825D01*
X176670910Y-112151974D01*
X176670910Y-112057693D01*
X176647340Y-111986982D01*
X177755140Y-112387676D02*
X177472298Y-112104833D01*
X177613719Y-112246255D02*
X177118744Y-112741229D01*
X177142315Y-112623378D01*
X177142315Y-112529097D01*
X177118744Y-112458387D01*
X177566579Y-113189064D02*
X177613719Y-113236204D01*
X177684430Y-113259774D01*
X177731570Y-113259774D01*
X177802281Y-113236204D01*
X177920132Y-113165494D01*
X178037983Y-113047642D01*
X178108694Y-112929791D01*
X178132264Y-112859081D01*
X178132264Y-112811940D01*
X178108694Y-112741229D01*
X178061553Y-112694089D01*
X177990843Y-112670519D01*
X177943702Y-112670519D01*
X177872992Y-112694089D01*
X177755140Y-112764800D01*
X177637289Y-112882651D01*
X177566579Y-113000502D01*
X177543008Y-113071213D01*
X177543008Y-113118353D01*
X177566579Y-113189064D01*
%TO.C,R93*%
X168250000Y-111886666D02*
X168483333Y-111553333D01*
X168650000Y-111886666D02*
X168650000Y-111186666D01*
X168383333Y-111186666D01*
X168316666Y-111220000D01*
X168283333Y-111253333D01*
X168250000Y-111320000D01*
X168250000Y-111420000D01*
X168283333Y-111486666D01*
X168316666Y-111520000D01*
X168383333Y-111553333D01*
X168650000Y-111553333D01*
X167916666Y-111886666D02*
X167783333Y-111886666D01*
X167716666Y-111853333D01*
X167683333Y-111820000D01*
X167616666Y-111720000D01*
X167583333Y-111586666D01*
X167583333Y-111320000D01*
X167616666Y-111253333D01*
X167650000Y-111220000D01*
X167716666Y-111186666D01*
X167850000Y-111186666D01*
X167916666Y-111220000D01*
X167950000Y-111253333D01*
X167983333Y-111320000D01*
X167983333Y-111486666D01*
X167950000Y-111553333D01*
X167916666Y-111586666D01*
X167850000Y-111620000D01*
X167716666Y-111620000D01*
X167650000Y-111586666D01*
X167616666Y-111553333D01*
X167583333Y-111486666D01*
X167350000Y-111186666D02*
X166916666Y-111186666D01*
X167150000Y-111453333D01*
X167050000Y-111453333D01*
X166983333Y-111486666D01*
X166950000Y-111520000D01*
X166916666Y-111586666D01*
X166916666Y-111753333D01*
X166950000Y-111820000D01*
X166983333Y-111853333D01*
X167050000Y-111886666D01*
X167250000Y-111886666D01*
X167316666Y-111853333D01*
X167350000Y-111820000D01*
%TO.C,L2*%
X179016666Y-93446666D02*
X179350000Y-93446666D01*
X179350000Y-92746666D01*
X178816666Y-92813333D02*
X178783333Y-92780000D01*
X178716666Y-92746666D01*
X178550000Y-92746666D01*
X178483333Y-92780000D01*
X178450000Y-92813333D01*
X178416666Y-92880000D01*
X178416666Y-92946666D01*
X178450000Y-93046666D01*
X178850000Y-93446666D01*
X178416666Y-93446666D01*
%TO.C,R39*%
X197812400Y-97601666D02*
X198045733Y-97268333D01*
X198212400Y-97601666D02*
X198212400Y-96901666D01*
X197945733Y-96901666D01*
X197879066Y-96935000D01*
X197845733Y-96968333D01*
X197812400Y-97035000D01*
X197812400Y-97135000D01*
X197845733Y-97201666D01*
X197879066Y-97235000D01*
X197945733Y-97268333D01*
X198212400Y-97268333D01*
X197579066Y-96901666D02*
X197145733Y-96901666D01*
X197379066Y-97168333D01*
X197279066Y-97168333D01*
X197212400Y-97201666D01*
X197179066Y-97235000D01*
X197145733Y-97301666D01*
X197145733Y-97468333D01*
X197179066Y-97535000D01*
X197212400Y-97568333D01*
X197279066Y-97601666D01*
X197479066Y-97601666D01*
X197545733Y-97568333D01*
X197579066Y-97535000D01*
X196812400Y-97601666D02*
X196679066Y-97601666D01*
X196612400Y-97568333D01*
X196579066Y-97535000D01*
X196512400Y-97435000D01*
X196479066Y-97301666D01*
X196479066Y-97035000D01*
X196512400Y-96968333D01*
X196545733Y-96935000D01*
X196612400Y-96901666D01*
X196745733Y-96901666D01*
X196812400Y-96935000D01*
X196845733Y-96968333D01*
X196879066Y-97035000D01*
X196879066Y-97201666D01*
X196845733Y-97268333D01*
X196812400Y-97301666D01*
X196745733Y-97335000D01*
X196612400Y-97335000D01*
X196545733Y-97301666D01*
X196512400Y-97268333D01*
X196479066Y-97201666D01*
%TO.C,R96*%
X170350000Y-111936666D02*
X170583333Y-111603333D01*
X170750000Y-111936666D02*
X170750000Y-111236666D01*
X170483333Y-111236666D01*
X170416666Y-111270000D01*
X170383333Y-111303333D01*
X170350000Y-111370000D01*
X170350000Y-111470000D01*
X170383333Y-111536666D01*
X170416666Y-111570000D01*
X170483333Y-111603333D01*
X170750000Y-111603333D01*
X170016666Y-111936666D02*
X169883333Y-111936666D01*
X169816666Y-111903333D01*
X169783333Y-111870000D01*
X169716666Y-111770000D01*
X169683333Y-111636666D01*
X169683333Y-111370000D01*
X169716666Y-111303333D01*
X169750000Y-111270000D01*
X169816666Y-111236666D01*
X169950000Y-111236666D01*
X170016666Y-111270000D01*
X170050000Y-111303333D01*
X170083333Y-111370000D01*
X170083333Y-111536666D01*
X170050000Y-111603333D01*
X170016666Y-111636666D01*
X169950000Y-111670000D01*
X169816666Y-111670000D01*
X169750000Y-111636666D01*
X169716666Y-111603333D01*
X169683333Y-111536666D01*
X169083333Y-111236666D02*
X169216666Y-111236666D01*
X169283333Y-111270000D01*
X169316666Y-111303333D01*
X169383333Y-111403333D01*
X169416666Y-111536666D01*
X169416666Y-111803333D01*
X169383333Y-111870000D01*
X169350000Y-111903333D01*
X169283333Y-111936666D01*
X169150000Y-111936666D01*
X169083333Y-111903333D01*
X169050000Y-111870000D01*
X169016666Y-111803333D01*
X169016666Y-111636666D01*
X169050000Y-111570000D01*
X169083333Y-111536666D01*
X169150000Y-111503333D01*
X169283333Y-111503333D01*
X169350000Y-111536666D01*
X169383333Y-111570000D01*
X169416666Y-111636666D01*
%TO.C,L7*%
X188476666Y-104196666D02*
X188810000Y-104196666D01*
X188810000Y-103496666D01*
X188310000Y-103496666D02*
X187843333Y-103496666D01*
X188143333Y-104196666D01*
%TO.C,R8*%
X197404066Y-91176666D02*
X197637400Y-90843333D01*
X197804066Y-91176666D02*
X197804066Y-90476666D01*
X197537400Y-90476666D01*
X197470733Y-90510000D01*
X197437400Y-90543333D01*
X197404066Y-90610000D01*
X197404066Y-90710000D01*
X197437400Y-90776666D01*
X197470733Y-90810000D01*
X197537400Y-90843333D01*
X197804066Y-90843333D01*
X197004066Y-90776666D02*
X197070733Y-90743333D01*
X197104066Y-90710000D01*
X197137400Y-90643333D01*
X197137400Y-90610000D01*
X197104066Y-90543333D01*
X197070733Y-90510000D01*
X197004066Y-90476666D01*
X196870733Y-90476666D01*
X196804066Y-90510000D01*
X196770733Y-90543333D01*
X196737400Y-90610000D01*
X196737400Y-90643333D01*
X196770733Y-90710000D01*
X196804066Y-90743333D01*
X196870733Y-90776666D01*
X197004066Y-90776666D01*
X197070733Y-90810000D01*
X197104066Y-90843333D01*
X197137400Y-90910000D01*
X197137400Y-91043333D01*
X197104066Y-91110000D01*
X197070733Y-91143333D01*
X197004066Y-91176666D01*
X196870733Y-91176666D01*
X196804066Y-91143333D01*
X196770733Y-91110000D01*
X196737400Y-91043333D01*
X196737400Y-90910000D01*
X196770733Y-90843333D01*
X196804066Y-90810000D01*
X196870733Y-90776666D01*
%TO.C,R95*%
X197810000Y-107296666D02*
X198043333Y-106963333D01*
X198210000Y-107296666D02*
X198210000Y-106596666D01*
X197943333Y-106596666D01*
X197876666Y-106630000D01*
X197843333Y-106663333D01*
X197810000Y-106730000D01*
X197810000Y-106830000D01*
X197843333Y-106896666D01*
X197876666Y-106930000D01*
X197943333Y-106963333D01*
X198210000Y-106963333D01*
X197476666Y-107296666D02*
X197343333Y-107296666D01*
X197276666Y-107263333D01*
X197243333Y-107230000D01*
X197176666Y-107130000D01*
X197143333Y-106996666D01*
X197143333Y-106730000D01*
X197176666Y-106663333D01*
X197210000Y-106630000D01*
X197276666Y-106596666D01*
X197410000Y-106596666D01*
X197476666Y-106630000D01*
X197510000Y-106663333D01*
X197543333Y-106730000D01*
X197543333Y-106896666D01*
X197510000Y-106963333D01*
X197476666Y-106996666D01*
X197410000Y-107030000D01*
X197276666Y-107030000D01*
X197210000Y-106996666D01*
X197176666Y-106963333D01*
X197143333Y-106896666D01*
X196510000Y-106596666D02*
X196843333Y-106596666D01*
X196876666Y-106930000D01*
X196843333Y-106896666D01*
X196776666Y-106863333D01*
X196610000Y-106863333D01*
X196543333Y-106896666D01*
X196510000Y-106930000D01*
X196476666Y-106996666D01*
X196476666Y-107163333D01*
X196510000Y-107230000D01*
X196543333Y-107263333D01*
X196610000Y-107296666D01*
X196776666Y-107296666D01*
X196843333Y-107263333D01*
X196876666Y-107230000D01*
%TO.C,L11*%
X188830000Y-94086666D02*
X189163333Y-94086666D01*
X189163333Y-93386666D01*
X188230000Y-94086666D02*
X188630000Y-94086666D01*
X188430000Y-94086666D02*
X188430000Y-93386666D01*
X188496666Y-93486666D01*
X188563333Y-93553333D01*
X188630000Y-93586666D01*
X187563333Y-94086666D02*
X187963333Y-94086666D01*
X187763333Y-94086666D02*
X187763333Y-93386666D01*
X187830000Y-93486666D01*
X187896666Y-93553333D01*
X187963333Y-93586666D01*
%TO.C,R69*%
X172500000Y-92376666D02*
X172733333Y-92043333D01*
X172900000Y-92376666D02*
X172900000Y-91676666D01*
X172633333Y-91676666D01*
X172566666Y-91710000D01*
X172533333Y-91743333D01*
X172500000Y-91810000D01*
X172500000Y-91910000D01*
X172533333Y-91976666D01*
X172566666Y-92010000D01*
X172633333Y-92043333D01*
X172900000Y-92043333D01*
X171900000Y-91676666D02*
X172033333Y-91676666D01*
X172100000Y-91710000D01*
X172133333Y-91743333D01*
X172200000Y-91843333D01*
X172233333Y-91976666D01*
X172233333Y-92243333D01*
X172200000Y-92310000D01*
X172166666Y-92343333D01*
X172100000Y-92376666D01*
X171966666Y-92376666D01*
X171900000Y-92343333D01*
X171866666Y-92310000D01*
X171833333Y-92243333D01*
X171833333Y-92076666D01*
X171866666Y-92010000D01*
X171900000Y-91976666D01*
X171966666Y-91943333D01*
X172100000Y-91943333D01*
X172166666Y-91976666D01*
X172200000Y-92010000D01*
X172233333Y-92076666D01*
X171500000Y-92376666D02*
X171366666Y-92376666D01*
X171300000Y-92343333D01*
X171266666Y-92310000D01*
X171200000Y-92210000D01*
X171166666Y-92076666D01*
X171166666Y-91810000D01*
X171200000Y-91743333D01*
X171233333Y-91710000D01*
X171300000Y-91676666D01*
X171433333Y-91676666D01*
X171500000Y-91710000D01*
X171533333Y-91743333D01*
X171566666Y-91810000D01*
X171566666Y-91976666D01*
X171533333Y-92043333D01*
X171500000Y-92076666D01*
X171433333Y-92110000D01*
X171300000Y-92110000D01*
X171233333Y-92076666D01*
X171200000Y-92043333D01*
X171166666Y-91976666D01*
%TO.C,R84*%
X170350000Y-108696666D02*
X170583333Y-108363333D01*
X170750000Y-108696666D02*
X170750000Y-107996666D01*
X170483333Y-107996666D01*
X170416666Y-108030000D01*
X170383333Y-108063333D01*
X170350000Y-108130000D01*
X170350000Y-108230000D01*
X170383333Y-108296666D01*
X170416666Y-108330000D01*
X170483333Y-108363333D01*
X170750000Y-108363333D01*
X169950000Y-108296666D02*
X170016666Y-108263333D01*
X170050000Y-108230000D01*
X170083333Y-108163333D01*
X170083333Y-108130000D01*
X170050000Y-108063333D01*
X170016666Y-108030000D01*
X169950000Y-107996666D01*
X169816666Y-107996666D01*
X169750000Y-108030000D01*
X169716666Y-108063333D01*
X169683333Y-108130000D01*
X169683333Y-108163333D01*
X169716666Y-108230000D01*
X169750000Y-108263333D01*
X169816666Y-108296666D01*
X169950000Y-108296666D01*
X170016666Y-108330000D01*
X170050000Y-108363333D01*
X170083333Y-108430000D01*
X170083333Y-108563333D01*
X170050000Y-108630000D01*
X170016666Y-108663333D01*
X169950000Y-108696666D01*
X169816666Y-108696666D01*
X169750000Y-108663333D01*
X169716666Y-108630000D01*
X169683333Y-108563333D01*
X169683333Y-108430000D01*
X169716666Y-108363333D01*
X169750000Y-108330000D01*
X169816666Y-108296666D01*
X169083333Y-108230000D02*
X169083333Y-108696666D01*
X169250000Y-107963333D02*
X169416666Y-108463333D01*
X168983333Y-108463333D01*
%TO.C,L10*%
X179350000Y-104366666D02*
X179683333Y-104366666D01*
X179683333Y-103666666D01*
X178750000Y-104366666D02*
X179150000Y-104366666D01*
X178950000Y-104366666D02*
X178950000Y-103666666D01*
X179016666Y-103766666D01*
X179083333Y-103833333D01*
X179150000Y-103866666D01*
X178316666Y-103666666D02*
X178250000Y-103666666D01*
X178183333Y-103700000D01*
X178150000Y-103733333D01*
X178116666Y-103800000D01*
X178083333Y-103933333D01*
X178083333Y-104100000D01*
X178116666Y-104233333D01*
X178150000Y-104300000D01*
X178183333Y-104333333D01*
X178250000Y-104366666D01*
X178316666Y-104366666D01*
X178383333Y-104333333D01*
X178416666Y-104300000D01*
X178450000Y-104233333D01*
X178483333Y-104100000D01*
X178483333Y-103933333D01*
X178450000Y-103800000D01*
X178416666Y-103733333D01*
X178383333Y-103700000D01*
X178316666Y-103666666D01*
%TO.C,J18*%
X189146666Y-132263333D02*
X189646666Y-132263333D01*
X189746666Y-132230000D01*
X189813333Y-132163333D01*
X189846666Y-132063333D01*
X189846666Y-131996666D01*
X189846666Y-132963333D02*
X189846666Y-132563333D01*
X189846666Y-132763333D02*
X189146666Y-132763333D01*
X189246666Y-132696666D01*
X189313333Y-132630000D01*
X189346666Y-132563333D01*
X189446666Y-133363333D02*
X189413333Y-133296666D01*
X189380000Y-133263333D01*
X189313333Y-133230000D01*
X189280000Y-133230000D01*
X189213333Y-133263333D01*
X189180000Y-133296666D01*
X189146666Y-133363333D01*
X189146666Y-133496666D01*
X189180000Y-133563333D01*
X189213333Y-133596666D01*
X189280000Y-133630000D01*
X189313333Y-133630000D01*
X189380000Y-133596666D01*
X189413333Y-133563333D01*
X189446666Y-133496666D01*
X189446666Y-133363333D01*
X189480000Y-133296666D01*
X189513333Y-133263333D01*
X189580000Y-133230000D01*
X189713333Y-133230000D01*
X189780000Y-133263333D01*
X189813333Y-133296666D01*
X189846666Y-133363333D01*
X189846666Y-133496666D01*
X189813333Y-133563333D01*
X189780000Y-133596666D01*
X189713333Y-133630000D01*
X189580000Y-133630000D01*
X189513333Y-133596666D01*
X189480000Y-133563333D01*
X189446666Y-133496666D01*
%TO.C,C12*%
X186550000Y-89750000D02*
X186583333Y-89783333D01*
X186683333Y-89816666D01*
X186750000Y-89816666D01*
X186850000Y-89783333D01*
X186916666Y-89716666D01*
X186950000Y-89650000D01*
X186983333Y-89516666D01*
X186983333Y-89416666D01*
X186950000Y-89283333D01*
X186916666Y-89216666D01*
X186850000Y-89150000D01*
X186750000Y-89116666D01*
X186683333Y-89116666D01*
X186583333Y-89150000D01*
X186550000Y-89183333D01*
X185883333Y-89816666D02*
X186283333Y-89816666D01*
X186083333Y-89816666D02*
X186083333Y-89116666D01*
X186150000Y-89216666D01*
X186216666Y-89283333D01*
X186283333Y-89316666D01*
X185616666Y-89183333D02*
X185583333Y-89150000D01*
X185516666Y-89116666D01*
X185350000Y-89116666D01*
X185283333Y-89150000D01*
X185250000Y-89183333D01*
X185216666Y-89250000D01*
X185216666Y-89316666D01*
X185250000Y-89416666D01*
X185650000Y-89816666D01*
X185216666Y-89816666D01*
%TO.C,R29*%
X193415804Y-96465199D02*
X193015110Y-96535910D01*
X193132961Y-96182357D02*
X192637986Y-96677331D01*
X192826548Y-96865893D01*
X192897259Y-96889463D01*
X192944399Y-96889463D01*
X193015110Y-96865893D01*
X193085820Y-96795182D01*
X193109391Y-96724472D01*
X193109391Y-96677331D01*
X193085820Y-96606621D01*
X192897259Y-96418059D01*
X193156531Y-97101595D02*
X193156531Y-97148736D01*
X193180101Y-97219447D01*
X193297952Y-97337298D01*
X193368663Y-97360868D01*
X193415804Y-97360868D01*
X193486514Y-97337298D01*
X193533655Y-97290157D01*
X193580795Y-97195876D01*
X193580795Y-96630191D01*
X193887208Y-96936604D01*
X194122910Y-97172306D02*
X194217191Y-97266587D01*
X194240762Y-97337298D01*
X194240762Y-97384438D01*
X194217191Y-97502289D01*
X194146481Y-97620140D01*
X193957919Y-97808702D01*
X193887208Y-97832272D01*
X193840068Y-97832272D01*
X193769357Y-97808702D01*
X193675076Y-97714421D01*
X193651506Y-97643711D01*
X193651506Y-97596570D01*
X193675076Y-97525859D01*
X193792927Y-97408008D01*
X193863638Y-97384438D01*
X193910778Y-97384438D01*
X193981489Y-97408008D01*
X194075770Y-97502289D01*
X194099340Y-97573000D01*
X194099340Y-97620140D01*
X194075770Y-97690851D01*
%TO.C,R53*%
X193415804Y-102915199D02*
X193015110Y-102985910D01*
X193132961Y-102632357D02*
X192637986Y-103127331D01*
X192826548Y-103315893D01*
X192897259Y-103339463D01*
X192944399Y-103339463D01*
X193015110Y-103315893D01*
X193085820Y-103245182D01*
X193109391Y-103174472D01*
X193109391Y-103127331D01*
X193085820Y-103056621D01*
X192897259Y-102868059D01*
X193368663Y-103858008D02*
X193132961Y-103622306D01*
X193345093Y-103363034D01*
X193345093Y-103410174D01*
X193368663Y-103480885D01*
X193486514Y-103598736D01*
X193557225Y-103622306D01*
X193604365Y-103622306D01*
X193675076Y-103598736D01*
X193792927Y-103480885D01*
X193816497Y-103410174D01*
X193816497Y-103363034D01*
X193792927Y-103292323D01*
X193675076Y-103174472D01*
X193604365Y-103150902D01*
X193557225Y-103150902D01*
X193557225Y-104046570D02*
X193863638Y-104352983D01*
X193887208Y-103999430D01*
X193957919Y-104070140D01*
X194028629Y-104093711D01*
X194075770Y-104093711D01*
X194146481Y-104070140D01*
X194264332Y-103952289D01*
X194287902Y-103881579D01*
X194287902Y-103834438D01*
X194264332Y-103763727D01*
X194122910Y-103622306D01*
X194052200Y-103598736D01*
X194005059Y-103598736D01*
%TO.C,C11*%
X186550000Y-95750000D02*
X186583333Y-95783333D01*
X186683333Y-95816666D01*
X186750000Y-95816666D01*
X186850000Y-95783333D01*
X186916666Y-95716666D01*
X186950000Y-95650000D01*
X186983333Y-95516666D01*
X186983333Y-95416666D01*
X186950000Y-95283333D01*
X186916666Y-95216666D01*
X186850000Y-95150000D01*
X186750000Y-95116666D01*
X186683333Y-95116666D01*
X186583333Y-95150000D01*
X186550000Y-95183333D01*
X185883333Y-95816666D02*
X186283333Y-95816666D01*
X186083333Y-95816666D02*
X186083333Y-95116666D01*
X186150000Y-95216666D01*
X186216666Y-95283333D01*
X186283333Y-95316666D01*
X185216666Y-95816666D02*
X185616666Y-95816666D01*
X185416666Y-95816666D02*
X185416666Y-95116666D01*
X185483333Y-95216666D01*
X185550000Y-95283333D01*
X185616666Y-95316666D01*
%TO.C,R37*%
X168250000Y-102186666D02*
X168483333Y-101853333D01*
X168650000Y-102186666D02*
X168650000Y-101486666D01*
X168383333Y-101486666D01*
X168316666Y-101520000D01*
X168283333Y-101553333D01*
X168250000Y-101620000D01*
X168250000Y-101720000D01*
X168283333Y-101786666D01*
X168316666Y-101820000D01*
X168383333Y-101853333D01*
X168650000Y-101853333D01*
X168016666Y-101486666D02*
X167583333Y-101486666D01*
X167816666Y-101753333D01*
X167716666Y-101753333D01*
X167650000Y-101786666D01*
X167616666Y-101820000D01*
X167583333Y-101886666D01*
X167583333Y-102053333D01*
X167616666Y-102120000D01*
X167650000Y-102153333D01*
X167716666Y-102186666D01*
X167916666Y-102186666D01*
X167983333Y-102153333D01*
X168016666Y-102120000D01*
X167350000Y-101486666D02*
X166883333Y-101486666D01*
X167183333Y-102186666D01*
%TO.C,R9*%
X170016666Y-95651668D02*
X170250000Y-95318335D01*
X170416666Y-95651668D02*
X170416666Y-94951668D01*
X170150000Y-94951668D01*
X170083333Y-94985002D01*
X170050000Y-95018335D01*
X170016666Y-95085002D01*
X170016666Y-95185002D01*
X170050000Y-95251668D01*
X170083333Y-95285002D01*
X170150000Y-95318335D01*
X170416666Y-95318335D01*
X169683333Y-95651668D02*
X169550000Y-95651668D01*
X169483333Y-95618335D01*
X169450000Y-95585002D01*
X169383333Y-95485002D01*
X169350000Y-95351668D01*
X169350000Y-95085002D01*
X169383333Y-95018335D01*
X169416666Y-94985002D01*
X169483333Y-94951668D01*
X169616666Y-94951668D01*
X169683333Y-94985002D01*
X169716666Y-95018335D01*
X169750000Y-95085002D01*
X169750000Y-95251668D01*
X169716666Y-95318335D01*
X169683333Y-95351668D01*
X169616666Y-95385002D01*
X169483333Y-95385002D01*
X169416666Y-95351668D01*
X169383333Y-95318335D01*
X169350000Y-95251668D01*
%TO.C,R54*%
X173733034Y-101630569D02*
X173332340Y-101701280D01*
X173450191Y-101347727D02*
X172955216Y-101842701D01*
X173143778Y-102031263D01*
X173214489Y-102054833D01*
X173261629Y-102054833D01*
X173332340Y-102031263D01*
X173403050Y-101960552D01*
X173426621Y-101889842D01*
X173426621Y-101842701D01*
X173403050Y-101771991D01*
X173214489Y-101583429D01*
X173685893Y-102573378D02*
X173450191Y-102337676D01*
X173662323Y-102078404D01*
X173662323Y-102125544D01*
X173685893Y-102196255D01*
X173803744Y-102314106D01*
X173874455Y-102337676D01*
X173921595Y-102337676D01*
X173992306Y-102314106D01*
X174110157Y-102196255D01*
X174133727Y-102125544D01*
X174133727Y-102078404D01*
X174110157Y-102007693D01*
X173992306Y-101889842D01*
X173921595Y-101866272D01*
X173874455Y-101866272D01*
X174298719Y-102856221D02*
X174628702Y-102526238D01*
X173992306Y-102926932D02*
X174228008Y-102455527D01*
X174534421Y-102761940D01*
%TO.C,L4*%
X179016666Y-96306666D02*
X179350000Y-96306666D01*
X179350000Y-95606666D01*
X178483333Y-95840000D02*
X178483333Y-96306666D01*
X178650000Y-95573333D02*
X178816666Y-96073333D01*
X178383333Y-96073333D01*
%TO.C,R14*%
X168250000Y-92486666D02*
X168483333Y-92153333D01*
X168650000Y-92486666D02*
X168650000Y-91786666D01*
X168383333Y-91786666D01*
X168316666Y-91820000D01*
X168283333Y-91853333D01*
X168250000Y-91920000D01*
X168250000Y-92020000D01*
X168283333Y-92086666D01*
X168316666Y-92120000D01*
X168383333Y-92153333D01*
X168650000Y-92153333D01*
X167583333Y-92486666D02*
X167983333Y-92486666D01*
X167783333Y-92486666D02*
X167783333Y-91786666D01*
X167850000Y-91886666D01*
X167916666Y-91953333D01*
X167983333Y-91986666D01*
X166983333Y-92020000D02*
X166983333Y-92486666D01*
X167150000Y-91753333D02*
X167316666Y-92253333D01*
X166883333Y-92253333D01*
%TO.C,C10*%
X186550000Y-91750000D02*
X186583333Y-91783333D01*
X186683333Y-91816666D01*
X186750000Y-91816666D01*
X186850000Y-91783333D01*
X186916666Y-91716666D01*
X186950000Y-91650000D01*
X186983333Y-91516666D01*
X186983333Y-91416666D01*
X186950000Y-91283333D01*
X186916666Y-91216666D01*
X186850000Y-91150000D01*
X186750000Y-91116666D01*
X186683333Y-91116666D01*
X186583333Y-91150000D01*
X186550000Y-91183333D01*
X185883333Y-91816666D02*
X186283333Y-91816666D01*
X186083333Y-91816666D02*
X186083333Y-91116666D01*
X186150000Y-91216666D01*
X186216666Y-91283333D01*
X186283333Y-91316666D01*
X185450000Y-91116666D02*
X185383333Y-91116666D01*
X185316666Y-91150000D01*
X185283333Y-91183333D01*
X185250000Y-91250000D01*
X185216666Y-91383333D01*
X185216666Y-91550000D01*
X185250000Y-91683333D01*
X185283333Y-91750000D01*
X185316666Y-91783333D01*
X185383333Y-91816666D01*
X185450000Y-91816666D01*
X185516666Y-91783333D01*
X185550000Y-91750000D01*
X185583333Y-91683333D01*
X185616666Y-91550000D01*
X185616666Y-91383333D01*
X185583333Y-91250000D01*
X185550000Y-91183333D01*
X185516666Y-91150000D01*
X185450000Y-91116666D01*
%TO.C,R11*%
X173533034Y-91730569D02*
X173132340Y-91801280D01*
X173250191Y-91447727D02*
X172755216Y-91942701D01*
X172943778Y-92131263D01*
X173014489Y-92154833D01*
X173061629Y-92154833D01*
X173132340Y-92131263D01*
X173203050Y-92060552D01*
X173226621Y-91989842D01*
X173226621Y-91942701D01*
X173203050Y-91871991D01*
X173014489Y-91683429D01*
X174004438Y-92201974D02*
X173721595Y-91919131D01*
X173863017Y-92060552D02*
X173368042Y-92555527D01*
X173391612Y-92437676D01*
X173391612Y-92343395D01*
X173368042Y-92272684D01*
X174475843Y-92673378D02*
X174193000Y-92390536D01*
X174334421Y-92531957D02*
X173839447Y-93026932D01*
X173863017Y-92909081D01*
X173863017Y-92814800D01*
X173839447Y-92744089D01*
%TO.C,C39*%
X181650000Y-101116667D02*
X181683333Y-101150000D01*
X181783333Y-101183333D01*
X181850000Y-101183333D01*
X181950000Y-101150000D01*
X182016666Y-101083333D01*
X182050000Y-101016667D01*
X182083333Y-100883333D01*
X182083333Y-100783333D01*
X182050000Y-100650000D01*
X182016666Y-100583333D01*
X181950000Y-100516667D01*
X181850000Y-100483333D01*
X181783333Y-100483333D01*
X181683333Y-100516667D01*
X181650000Y-100550000D01*
X181416666Y-100483333D02*
X180983333Y-100483333D01*
X181216666Y-100750000D01*
X181116666Y-100750000D01*
X181050000Y-100783333D01*
X181016666Y-100816667D01*
X180983333Y-100883333D01*
X180983333Y-101050000D01*
X181016666Y-101116667D01*
X181050000Y-101150000D01*
X181116666Y-101183333D01*
X181316666Y-101183333D01*
X181383333Y-101150000D01*
X181416666Y-101116667D01*
X180650000Y-101183333D02*
X180516666Y-101183333D01*
X180450000Y-101150000D01*
X180416666Y-101116667D01*
X180350000Y-101016667D01*
X180316666Y-100883333D01*
X180316666Y-100616667D01*
X180350000Y-100550000D01*
X180383333Y-100516667D01*
X180450000Y-100483333D01*
X180583333Y-100483333D01*
X180650000Y-100516667D01*
X180683333Y-100550000D01*
X180716666Y-100616667D01*
X180716666Y-100783333D01*
X180683333Y-100850000D01*
X180650000Y-100883333D01*
X180583333Y-100916667D01*
X180450000Y-100916667D01*
X180383333Y-100883333D01*
X180350000Y-100850000D01*
X180316666Y-100783333D01*
%TO.C,R109*%
X190017702Y-112949497D02*
X189617008Y-113020208D01*
X189734860Y-112666654D02*
X189239885Y-113161629D01*
X189428447Y-113350191D01*
X189499157Y-113373761D01*
X189546298Y-113373761D01*
X189617008Y-113350191D01*
X189687719Y-113279480D01*
X189711289Y-113208770D01*
X189711289Y-113161629D01*
X189687719Y-113090918D01*
X189499157Y-112902357D01*
X190489107Y-113420902D02*
X190206264Y-113138059D01*
X190347686Y-113279480D02*
X189852711Y-113774455D01*
X189876281Y-113656604D01*
X189876281Y-113562323D01*
X189852711Y-113491612D01*
X190300545Y-114222289D02*
X190347686Y-114269430D01*
X190418396Y-114293000D01*
X190465537Y-114293000D01*
X190536247Y-114269430D01*
X190654098Y-114198719D01*
X190771950Y-114080868D01*
X190842660Y-113963017D01*
X190866230Y-113892306D01*
X190866230Y-113845166D01*
X190842660Y-113774455D01*
X190795520Y-113727314D01*
X190724809Y-113703744D01*
X190677669Y-113703744D01*
X190606958Y-113727315D01*
X190489107Y-113798025D01*
X190371256Y-113915876D01*
X190300545Y-114033727D01*
X190276975Y-114104438D01*
X190276975Y-114151579D01*
X190300545Y-114222289D01*
X191196214Y-114128008D02*
X191290495Y-114222289D01*
X191314065Y-114293000D01*
X191314065Y-114340140D01*
X191290495Y-114457992D01*
X191219784Y-114575843D01*
X191031222Y-114764404D01*
X190960511Y-114787975D01*
X190913371Y-114787975D01*
X190842660Y-114764404D01*
X190748379Y-114670124D01*
X190724809Y-114599413D01*
X190724809Y-114552272D01*
X190748379Y-114481562D01*
X190866230Y-114363711D01*
X190936941Y-114340140D01*
X190984082Y-114340140D01*
X191054792Y-114363711D01*
X191149073Y-114457992D01*
X191172643Y-114528702D01*
X191172643Y-114575843D01*
X191149073Y-114646553D01*
%TO.C,R107*%
X194714334Y-114092666D02*
X194947667Y-113759333D01*
X195114334Y-114092666D02*
X195114334Y-113392666D01*
X194847667Y-113392666D01*
X194781001Y-113426000D01*
X194747667Y-113459333D01*
X194714334Y-113526000D01*
X194714334Y-113626000D01*
X194747667Y-113692666D01*
X194781001Y-113726000D01*
X194847667Y-113759333D01*
X195114334Y-113759333D01*
X194047667Y-114092666D02*
X194447667Y-114092666D01*
X194247667Y-114092666D02*
X194247667Y-113392666D01*
X194314334Y-113492666D01*
X194381001Y-113559333D01*
X194447667Y-113592666D01*
X193614334Y-113392666D02*
X193547667Y-113392666D01*
X193481001Y-113426000D01*
X193447667Y-113459333D01*
X193414334Y-113526000D01*
X193381001Y-113659333D01*
X193381001Y-113826000D01*
X193414334Y-113959333D01*
X193447667Y-114026000D01*
X193481001Y-114059333D01*
X193547667Y-114092666D01*
X193614334Y-114092666D01*
X193681001Y-114059333D01*
X193714334Y-114026000D01*
X193747667Y-113959333D01*
X193781001Y-113826000D01*
X193781001Y-113659333D01*
X193747667Y-113526000D01*
X193714334Y-113459333D01*
X193681001Y-113426000D01*
X193614334Y-113392666D01*
X193147667Y-113392666D02*
X192681001Y-113392666D01*
X192981001Y-114092666D01*
%TO.C,L14*%
X179350000Y-108596666D02*
X179683333Y-108596666D01*
X179683333Y-107896666D01*
X178750000Y-108596666D02*
X179150000Y-108596666D01*
X178950000Y-108596666D02*
X178950000Y-107896666D01*
X179016666Y-107996666D01*
X179083333Y-108063333D01*
X179150000Y-108096666D01*
X178150000Y-108130000D02*
X178150000Y-108596666D01*
X178316666Y-107863333D02*
X178483333Y-108363333D01*
X178050000Y-108363333D01*
%TO.C,R51*%
X197807400Y-100816666D02*
X198040733Y-100483333D01*
X198207400Y-100816666D02*
X198207400Y-100116666D01*
X197940733Y-100116666D01*
X197874066Y-100150000D01*
X197840733Y-100183333D01*
X197807400Y-100250000D01*
X197807400Y-100350000D01*
X197840733Y-100416666D01*
X197874066Y-100450000D01*
X197940733Y-100483333D01*
X198207400Y-100483333D01*
X197174066Y-100116666D02*
X197507400Y-100116666D01*
X197540733Y-100450000D01*
X197507400Y-100416666D01*
X197440733Y-100383333D01*
X197274066Y-100383333D01*
X197207400Y-100416666D01*
X197174066Y-100450000D01*
X197140733Y-100516666D01*
X197140733Y-100683333D01*
X197174066Y-100750000D01*
X197207400Y-100783333D01*
X197274066Y-100816666D01*
X197440733Y-100816666D01*
X197507400Y-100783333D01*
X197540733Y-100750000D01*
X196474066Y-100816666D02*
X196874066Y-100816666D01*
X196674066Y-100816666D02*
X196674066Y-100116666D01*
X196740733Y-100216666D01*
X196807400Y-100283333D01*
X196874066Y-100316666D01*
%TO.C,R106*%
X200483333Y-113286666D02*
X200716666Y-112953333D01*
X200883333Y-113286666D02*
X200883333Y-112586666D01*
X200616666Y-112586666D01*
X200550000Y-112620000D01*
X200516666Y-112653333D01*
X200483333Y-112720000D01*
X200483333Y-112820000D01*
X200516666Y-112886666D01*
X200550000Y-112920000D01*
X200616666Y-112953333D01*
X200883333Y-112953333D01*
X199816666Y-113286666D02*
X200216666Y-113286666D01*
X200016666Y-113286666D02*
X200016666Y-112586666D01*
X200083333Y-112686666D01*
X200150000Y-112753333D01*
X200216666Y-112786666D01*
X199383333Y-112586666D02*
X199316666Y-112586666D01*
X199250000Y-112620000D01*
X199216666Y-112653333D01*
X199183333Y-112720000D01*
X199150000Y-112853333D01*
X199150000Y-113020000D01*
X199183333Y-113153333D01*
X199216666Y-113220000D01*
X199250000Y-113253333D01*
X199316666Y-113286666D01*
X199383333Y-113286666D01*
X199450000Y-113253333D01*
X199483333Y-113220000D01*
X199516666Y-113153333D01*
X199550000Y-113020000D01*
X199550000Y-112853333D01*
X199516666Y-112720000D01*
X199483333Y-112653333D01*
X199450000Y-112620000D01*
X199383333Y-112586666D01*
X198550000Y-112586666D02*
X198683333Y-112586666D01*
X198750000Y-112620000D01*
X198783333Y-112653333D01*
X198850000Y-112753333D01*
X198883333Y-112886666D01*
X198883333Y-113153333D01*
X198850000Y-113220000D01*
X198816666Y-113253333D01*
X198750000Y-113286666D01*
X198616666Y-113286666D01*
X198550000Y-113253333D01*
X198516666Y-113220000D01*
X198483333Y-113153333D01*
X198483333Y-112986666D01*
X198516666Y-112920000D01*
X198550000Y-112886666D01*
X198616666Y-112853333D01*
X198750000Y-112853333D01*
X198816666Y-112886666D01*
X198850000Y-112920000D01*
X198883333Y-112986666D01*
%TO.C,R82*%
X199830000Y-106306666D02*
X200063333Y-105973333D01*
X200230000Y-106306666D02*
X200230000Y-105606666D01*
X199963333Y-105606666D01*
X199896666Y-105640000D01*
X199863333Y-105673333D01*
X199830000Y-105740000D01*
X199830000Y-105840000D01*
X199863333Y-105906666D01*
X199896666Y-105940000D01*
X199963333Y-105973333D01*
X200230000Y-105973333D01*
X199430000Y-105906666D02*
X199496666Y-105873333D01*
X199530000Y-105840000D01*
X199563333Y-105773333D01*
X199563333Y-105740000D01*
X199530000Y-105673333D01*
X199496666Y-105640000D01*
X199430000Y-105606666D01*
X199296666Y-105606666D01*
X199230000Y-105640000D01*
X199196666Y-105673333D01*
X199163333Y-105740000D01*
X199163333Y-105773333D01*
X199196666Y-105840000D01*
X199230000Y-105873333D01*
X199296666Y-105906666D01*
X199430000Y-105906666D01*
X199496666Y-105940000D01*
X199530000Y-105973333D01*
X199563333Y-106040000D01*
X199563333Y-106173333D01*
X199530000Y-106240000D01*
X199496666Y-106273333D01*
X199430000Y-106306666D01*
X199296666Y-106306666D01*
X199230000Y-106273333D01*
X199196666Y-106240000D01*
X199163333Y-106173333D01*
X199163333Y-106040000D01*
X199196666Y-105973333D01*
X199230000Y-105940000D01*
X199296666Y-105906666D01*
X198896666Y-105673333D02*
X198863333Y-105640000D01*
X198796666Y-105606666D01*
X198630000Y-105606666D01*
X198563333Y-105640000D01*
X198530000Y-105673333D01*
X198496666Y-105740000D01*
X198496666Y-105806666D01*
X198530000Y-105906666D01*
X198930000Y-106306666D01*
X198496666Y-106306666D01*
%TO.C,R97*%
X192646805Y-109341199D02*
X192246111Y-109411910D01*
X192363962Y-109058357D02*
X191868987Y-109553331D01*
X192057549Y-109741893D01*
X192128260Y-109765463D01*
X192175400Y-109765463D01*
X192246111Y-109741893D01*
X192316821Y-109671182D01*
X192340392Y-109600472D01*
X192340392Y-109553331D01*
X192316821Y-109482621D01*
X192128260Y-109294059D01*
X192882507Y-109576902D02*
X192976788Y-109671182D01*
X193000358Y-109741893D01*
X193000358Y-109789034D01*
X192976788Y-109906885D01*
X192906077Y-110024736D01*
X192717515Y-110213298D01*
X192646805Y-110236868D01*
X192599664Y-110236868D01*
X192528953Y-110213298D01*
X192434673Y-110119017D01*
X192411102Y-110048306D01*
X192411102Y-110001166D01*
X192434673Y-109930455D01*
X192552524Y-109812604D01*
X192623234Y-109789034D01*
X192670375Y-109789034D01*
X192741086Y-109812604D01*
X192835366Y-109906885D01*
X192858937Y-109977595D01*
X192858937Y-110024736D01*
X192835366Y-110095447D01*
X192788226Y-110472570D02*
X193118209Y-110802553D01*
X193401052Y-110095447D01*
%TO.C,R40*%
X170350000Y-102216668D02*
X170583333Y-101883335D01*
X170750000Y-102216668D02*
X170750000Y-101516668D01*
X170483333Y-101516668D01*
X170416666Y-101550002D01*
X170383333Y-101583335D01*
X170350000Y-101650002D01*
X170350000Y-101750002D01*
X170383333Y-101816668D01*
X170416666Y-101850002D01*
X170483333Y-101883335D01*
X170750000Y-101883335D01*
X169750000Y-101750002D02*
X169750000Y-102216668D01*
X169916666Y-101483335D02*
X170083333Y-101983335D01*
X169650000Y-101983335D01*
X169250000Y-101516668D02*
X169183333Y-101516668D01*
X169116666Y-101550002D01*
X169083333Y-101583335D01*
X169050000Y-101650002D01*
X169016666Y-101783335D01*
X169016666Y-101950002D01*
X169050000Y-102083335D01*
X169083333Y-102150002D01*
X169116666Y-102183335D01*
X169183333Y-102216668D01*
X169250000Y-102216668D01*
X169316666Y-102183335D01*
X169350000Y-102150002D01*
X169383333Y-102083335D01*
X169416666Y-101950002D01*
X169416666Y-101783335D01*
X169383333Y-101650002D01*
X169350000Y-101583335D01*
X169316666Y-101550002D01*
X169250000Y-101516668D01*
%TO.C,R105*%
X175386666Y-115716666D02*
X175053333Y-115483333D01*
X175386666Y-115316666D02*
X174686666Y-115316666D01*
X174686666Y-115583333D01*
X174720000Y-115650000D01*
X174753333Y-115683333D01*
X174820000Y-115716666D01*
X174920000Y-115716666D01*
X174986666Y-115683333D01*
X175020000Y-115650000D01*
X175053333Y-115583333D01*
X175053333Y-115316666D01*
X175386666Y-116383333D02*
X175386666Y-115983333D01*
X175386666Y-116183333D02*
X174686666Y-116183333D01*
X174786666Y-116116666D01*
X174853333Y-116050000D01*
X174886666Y-115983333D01*
X174686666Y-116816666D02*
X174686666Y-116883333D01*
X174720000Y-116950000D01*
X174753333Y-116983333D01*
X174820000Y-117016666D01*
X174953333Y-117050000D01*
X175120000Y-117050000D01*
X175253333Y-117016666D01*
X175320000Y-116983333D01*
X175353333Y-116950000D01*
X175386666Y-116883333D01*
X175386666Y-116816666D01*
X175353333Y-116750000D01*
X175320000Y-116716666D01*
X175253333Y-116683333D01*
X175120000Y-116650000D01*
X174953333Y-116650000D01*
X174820000Y-116683333D01*
X174753333Y-116716666D01*
X174720000Y-116750000D01*
X174686666Y-116816666D01*
X174686666Y-117683333D02*
X174686666Y-117350000D01*
X175020000Y-117316666D01*
X174986666Y-117350000D01*
X174953333Y-117416666D01*
X174953333Y-117583333D01*
X174986666Y-117650000D01*
X175020000Y-117683333D01*
X175086666Y-117716666D01*
X175253333Y-117716666D01*
X175320000Y-117683333D01*
X175353333Y-117650000D01*
X175386666Y-117583333D01*
X175386666Y-117416666D01*
X175353333Y-117350000D01*
X175320000Y-117316666D01*
%TO.C,R98*%
X173633034Y-108130569D02*
X173232340Y-108201280D01*
X173350191Y-107847727D02*
X172855216Y-108342701D01*
X173043778Y-108531263D01*
X173114489Y-108554833D01*
X173161629Y-108554833D01*
X173232340Y-108531263D01*
X173303050Y-108460552D01*
X173326621Y-108389842D01*
X173326621Y-108342701D01*
X173303050Y-108271991D01*
X173114489Y-108083429D01*
X173868736Y-108366272D02*
X173963017Y-108460552D01*
X173986587Y-108531263D01*
X173986587Y-108578404D01*
X173963017Y-108696255D01*
X173892306Y-108814106D01*
X173703744Y-109002668D01*
X173633034Y-109026238D01*
X173585893Y-109026238D01*
X173515182Y-109002668D01*
X173420902Y-108908387D01*
X173397331Y-108837676D01*
X173397331Y-108790536D01*
X173420902Y-108719825D01*
X173538753Y-108601974D01*
X173609463Y-108578404D01*
X173656604Y-108578404D01*
X173727315Y-108601974D01*
X173821595Y-108696255D01*
X173845166Y-108766965D01*
X173845166Y-108814106D01*
X173821595Y-108884817D01*
X174104438Y-109167659D02*
X174033727Y-109144089D01*
X173986587Y-109144089D01*
X173915876Y-109167659D01*
X173892306Y-109191229D01*
X173868736Y-109261940D01*
X173868736Y-109309081D01*
X173892306Y-109379791D01*
X173986587Y-109474072D01*
X174057298Y-109497642D01*
X174104438Y-109497642D01*
X174175149Y-109474072D01*
X174198719Y-109450502D01*
X174222289Y-109379791D01*
X174222289Y-109332651D01*
X174198719Y-109261940D01*
X174104438Y-109167659D01*
X174080868Y-109096949D01*
X174080868Y-109049808D01*
X174104438Y-108979097D01*
X174198719Y-108884817D01*
X174269430Y-108861246D01*
X174316570Y-108861246D01*
X174387281Y-108884817D01*
X174481562Y-108979097D01*
X174505132Y-109049808D01*
X174505132Y-109096949D01*
X174481562Y-109167659D01*
X174387281Y-109261940D01*
X174316570Y-109285510D01*
X174269430Y-109285510D01*
X174198719Y-109261940D01*
%TO.C,R50*%
X199857400Y-103186666D02*
X200090733Y-102853333D01*
X200257400Y-103186666D02*
X200257400Y-102486666D01*
X199990733Y-102486666D01*
X199924066Y-102520000D01*
X199890733Y-102553333D01*
X199857400Y-102620000D01*
X199857400Y-102720000D01*
X199890733Y-102786666D01*
X199924066Y-102820000D01*
X199990733Y-102853333D01*
X200257400Y-102853333D01*
X199224066Y-102486666D02*
X199557400Y-102486666D01*
X199590733Y-102820000D01*
X199557400Y-102786666D01*
X199490733Y-102753333D01*
X199324066Y-102753333D01*
X199257400Y-102786666D01*
X199224066Y-102820000D01*
X199190733Y-102886666D01*
X199190733Y-103053333D01*
X199224066Y-103120000D01*
X199257400Y-103153333D01*
X199324066Y-103186666D01*
X199490733Y-103186666D01*
X199557400Y-103153333D01*
X199590733Y-103120000D01*
X198757400Y-102486666D02*
X198690733Y-102486666D01*
X198624066Y-102520000D01*
X198590733Y-102553333D01*
X198557400Y-102620000D01*
X198524066Y-102753333D01*
X198524066Y-102920000D01*
X198557400Y-103053333D01*
X198590733Y-103120000D01*
X198624066Y-103153333D01*
X198690733Y-103186666D01*
X198757400Y-103186666D01*
X198824066Y-103153333D01*
X198857400Y-103120000D01*
X198890733Y-103053333D01*
X198924066Y-102920000D01*
X198924066Y-102753333D01*
X198890733Y-102620000D01*
X198857400Y-102553333D01*
X198824066Y-102520000D01*
X198757400Y-102486666D01*
%TO.C,R26*%
X199887400Y-96841666D02*
X200120733Y-96508333D01*
X200287400Y-96841666D02*
X200287400Y-96141666D01*
X200020733Y-96141666D01*
X199954066Y-96175000D01*
X199920733Y-96208333D01*
X199887400Y-96275000D01*
X199887400Y-96375000D01*
X199920733Y-96441666D01*
X199954066Y-96475000D01*
X200020733Y-96508333D01*
X200287400Y-96508333D01*
X199620733Y-96208333D02*
X199587400Y-96175000D01*
X199520733Y-96141666D01*
X199354066Y-96141666D01*
X199287400Y-96175000D01*
X199254066Y-96208333D01*
X199220733Y-96275000D01*
X199220733Y-96341666D01*
X199254066Y-96441666D01*
X199654066Y-96841666D01*
X199220733Y-96841666D01*
X198620733Y-96141666D02*
X198754066Y-96141666D01*
X198820733Y-96175000D01*
X198854066Y-96208333D01*
X198920733Y-96308333D01*
X198954066Y-96441666D01*
X198954066Y-96708333D01*
X198920733Y-96775000D01*
X198887400Y-96808333D01*
X198820733Y-96841666D01*
X198687400Y-96841666D01*
X198620733Y-96808333D01*
X198587400Y-96775000D01*
X198554066Y-96708333D01*
X198554066Y-96541666D01*
X198587400Y-96475000D01*
X198620733Y-96441666D01*
X198687400Y-96408333D01*
X198820733Y-96408333D01*
X198887400Y-96441666D01*
X198920733Y-96475000D01*
X198954066Y-96541666D01*
%TO.C,R68*%
X191746666Y-86750000D02*
X191413333Y-86516666D01*
X191746666Y-86350000D02*
X191046666Y-86350000D01*
X191046666Y-86616666D01*
X191080000Y-86683333D01*
X191113333Y-86716666D01*
X191180000Y-86750000D01*
X191280000Y-86750000D01*
X191346666Y-86716666D01*
X191380000Y-86683333D01*
X191413333Y-86616666D01*
X191413333Y-86350000D01*
X191046666Y-87350000D02*
X191046666Y-87216666D01*
X191080000Y-87150000D01*
X191113333Y-87116666D01*
X191213333Y-87050000D01*
X191346666Y-87016666D01*
X191613333Y-87016666D01*
X191680000Y-87050000D01*
X191713333Y-87083333D01*
X191746666Y-87150000D01*
X191746666Y-87283333D01*
X191713333Y-87350000D01*
X191680000Y-87383333D01*
X191613333Y-87416666D01*
X191446666Y-87416666D01*
X191380000Y-87383333D01*
X191346666Y-87350000D01*
X191313333Y-87283333D01*
X191313333Y-87150000D01*
X191346666Y-87083333D01*
X191380000Y-87050000D01*
X191446666Y-87016666D01*
X191346666Y-87816666D02*
X191313333Y-87750000D01*
X191280000Y-87716666D01*
X191213333Y-87683333D01*
X191180000Y-87683333D01*
X191113333Y-87716666D01*
X191080000Y-87750000D01*
X191046666Y-87816666D01*
X191046666Y-87950000D01*
X191080000Y-88016666D01*
X191113333Y-88050000D01*
X191180000Y-88083333D01*
X191213333Y-88083333D01*
X191280000Y-88050000D01*
X191313333Y-88016666D01*
X191346666Y-87950000D01*
X191346666Y-87816666D01*
X191380000Y-87750000D01*
X191413333Y-87716666D01*
X191480000Y-87683333D01*
X191613333Y-87683333D01*
X191680000Y-87716666D01*
X191713333Y-87750000D01*
X191746666Y-87816666D01*
X191746666Y-87950000D01*
X191713333Y-88016666D01*
X191680000Y-88050000D01*
X191613333Y-88083333D01*
X191480000Y-88083333D01*
X191413333Y-88050000D01*
X191380000Y-88016666D01*
X191346666Y-87950000D01*
%TO.C,L6*%
X179016666Y-98646666D02*
X179350000Y-98646666D01*
X179350000Y-97946666D01*
X178483333Y-97946666D02*
X178616666Y-97946666D01*
X178683333Y-97980000D01*
X178716666Y-98013333D01*
X178783333Y-98113333D01*
X178816666Y-98246666D01*
X178816666Y-98513333D01*
X178783333Y-98580000D01*
X178750000Y-98613333D01*
X178683333Y-98646666D01*
X178550000Y-98646666D01*
X178483333Y-98613333D01*
X178450000Y-98580000D01*
X178416666Y-98513333D01*
X178416666Y-98346666D01*
X178450000Y-98280000D01*
X178483333Y-98246666D01*
X178550000Y-98213333D01*
X178683333Y-98213333D01*
X178750000Y-98246666D01*
X178783333Y-98280000D01*
X178816666Y-98346666D01*
D13*
%TO.C,C1*%
X183403922Y-92690000D02*
X183921078Y-92690000D01*
X183403922Y-94110000D02*
X183921078Y-94110000D01*
%TO.C,C40*%
X183403922Y-98123334D02*
X183921078Y-98123334D01*
X183403922Y-99543334D02*
X183921078Y-99543334D01*
%TO.C,C14*%
X183403922Y-105943334D02*
X183921078Y-105943334D01*
X183403922Y-104523334D02*
X183921078Y-104523334D01*
%TO.C,C41*%
X183403922Y-103810000D02*
X183921078Y-103810000D01*
X183403922Y-102390000D02*
X183921078Y-102390000D01*
%TO.C,J18*%
X185930000Y-132830000D02*
X188530000Y-132830000D01*
X188530000Y-132830000D02*
X188530000Y-130230000D01*
X185930000Y-135430000D02*
X180790000Y-135430000D01*
X180790000Y-135430000D02*
X180790000Y-130230000D01*
X185930000Y-135430000D02*
X185930000Y-132830000D01*
X188530000Y-130230000D02*
X180790000Y-130230000D01*
X187200000Y-135430000D02*
X188530000Y-135430000D01*
X188530000Y-135430000D02*
X188530000Y-134100000D01*
%TO.C,C12*%
X183403922Y-88690000D02*
X183921078Y-88690000D01*
X183403922Y-90110000D02*
X183921078Y-90110000D01*
%TO.C,C11*%
X183403922Y-96110000D02*
X183921078Y-96110000D01*
X183403922Y-94690000D02*
X183921078Y-94690000D01*
%TO.C,J1*%
X182745000Y-72795000D02*
X182745000Y-75395000D01*
X180145000Y-75395000D02*
X180145000Y-77995000D01*
X187885000Y-72795000D02*
X187885000Y-77995000D01*
X180145000Y-77995000D02*
X187885000Y-77995000D01*
X182745000Y-75395000D02*
X180145000Y-75395000D01*
X181475000Y-72795000D02*
X180145000Y-72795000D01*
X180145000Y-72795000D02*
X180145000Y-74125000D01*
X182745000Y-72795000D02*
X187885000Y-72795000D01*
%TO.C,C10*%
X183403922Y-92110000D02*
X183921078Y-92110000D01*
X183403922Y-90690000D02*
X183921078Y-90690000D01*
%TO.C,C39*%
X183403922Y-100256667D02*
X183921078Y-100256667D01*
X183403922Y-101676667D02*
X183921078Y-101676667D01*
%TD*%
M02*
